<?xml version="1.0"?>
<!-- Generated by SVGo -->
<svg width="1000" height="1000"
     xmlns="http://www.w3.org/2000/svg"
     xmlns:xlink="http://www.w3.org/1999/xlink">
<text x="20" y="20" style="font-size:25;" >Country Road</text>
<text x="20" y="40" style="font-size:12;" >key of A</text>
<text x="20" y="60" >A Outro</text>
<line x1="20" y1="70" x2="180" y2="70" style="stroke:#bbb;stroke-width:1" />
<line x1="20" y1="80" x2="180" y2="80" style="stroke:#bbb;stroke-width:1" />
<line x1="20" y1="90" x2="180" y2="90" style="stroke:#bbb;stroke-width:1" />
<line x1="20" y1="100" x2="180" y2="100" style="stroke:#bbb;stroke-width:1" />
<line x1="20" y1="110" x2="180" y2="110" style="stroke:#bbb;stroke-width:1" />
<text x="30" y="105" style="text-anchor:middle;font-size:10px" >4</text>
<text x="40" y="110" style="text-anchor:middle;font-size:10px" >h</text>
<line x1="36" y1="100" x2="44" y2="100" style="stroke:#444;stroke-width:1.2" />
<text x="50" y="105" style="text-anchor:middle;font-size:10px" >5</text>
<text x="40" y="110" style="text-anchor:middle;font-size:10px" >h</text>
<line x1="36" y1="100" x2="44" y2="100" style="stroke:#444;stroke-width:1.2" />
<text x="50" y="105" style="text-anchor:middle;font-size:10px" >5</text>
<text x="50" y="95" style="text-anchor:middle;font-size:10px" >0</text>
<text x="70" y="85" style="text-anchor:middle;font-size:10px" >0</text>
<text x="90" y="75" style="text-anchor:middle;font-size:10px" >0</text>
<text x="110" y="105" style="text-anchor:middle;font-size:10px" >4</text>
<text x="120" y="110" style="text-anchor:middle;font-size:10px" >h</text>
<line x1="116" y1="100" x2="124" y2="100" style="stroke:#444;stroke-width:1.2" />
<text x="130" y="105" style="text-anchor:middle;font-size:10px" >5</text>
<text x="120" y="110" style="text-anchor:middle;font-size:10px" >h</text>
<line x1="116" y1="100" x2="124" y2="100" style="stroke:#444;stroke-width:1.2" />
<text x="130" y="105" style="text-anchor:middle;font-size:10px" >5</text>
<text x="130" y="95" style="text-anchor:middle;font-size:10px" >0</text>
<text x="150" y="85" style="text-anchor:middle;font-size:10px" >0</text>
<text x="170" y="75" style="text-anchor:middle;font-size:10px" >0</text>
<line x1="20" y1="70" x2="20" y2="110" style="stroke:#bbb;stroke-width:1" />
<text x="180" y="60" >A</text>
<line x1="180" y1="70" x2="340" y2="70" style="stroke:#bbb;stroke-width:1" />
<line x1="180" y1="80" x2="340" y2="80" style="stroke:#bbb;stroke-width:1" />
<line x1="180" y1="90" x2="340" y2="90" style="stroke:#bbb;stroke-width:1" />
<line x1="180" y1="100" x2="340" y2="100" style="stroke:#bbb;stroke-width:1" />
<line x1="180" y1="110" x2="340" y2="110" style="stroke:#bbb;stroke-width:1" />
<text x="190" y="105" style="text-anchor:middle;font-size:10px" >4</text>
<text x="200" y="110" style="text-anchor:middle;font-size:10px" >h</text>
<line x1="196" y1="100" x2="204" y2="100" style="stroke:#444;stroke-width:1.2" />
<text x="210" y="105" style="text-anchor:middle;font-size:10px" >5</text>
<text x="200" y="110" style="text-anchor:middle;font-size:10px" >h</text>
<line x1="196" y1="100" x2="204" y2="100" style="stroke:#444;stroke-width:1.2" />
<text x="210" y="105" style="text-anchor:middle;font-size:10px" >5</text>
<text x="210" y="95" style="text-anchor:middle;font-size:10px" >0</text>
<text x="230" y="85" style="text-anchor:middle;font-size:10px" >0</text>
<text x="250" y="75" style="text-anchor:middle;font-size:10px" >0</text>
<text x="270" y="105" style="text-anchor:middle;font-size:10px" >4</text>
<text x="280" y="110" style="text-anchor:middle;font-size:10px" >h</text>
<line x1="276" y1="100" x2="284" y2="100" style="stroke:#444;stroke-width:1.2" />
<text x="290" y="105" style="text-anchor:middle;font-size:10px" >5</text>
<text x="280" y="110" style="text-anchor:middle;font-size:10px" >h</text>
<line x1="276" y1="100" x2="284" y2="100" style="stroke:#444;stroke-width:1.2" />
<text x="290" y="105" style="text-anchor:middle;font-size:10px" >5</text>
<text x="290" y="95" style="text-anchor:middle;font-size:10px" >0</text>
<text x="310" y="85" style="text-anchor:middle;font-size:10px" >0</text>
<text x="330" y="75" style="text-anchor:middle;font-size:10px" >0</text>
<line x1="180" y1="70" x2="180" y2="110" style="stroke:#bbb;stroke-width:1" />
<text x="340" y="60" >E</text>
<line x1="340" y1="70" x2="500" y2="70" style="stroke:#bbb;stroke-width:1" />
<line x1="340" y1="80" x2="500" y2="80" style="stroke:#bbb;stroke-width:1" />
<line x1="340" y1="90" x2="500" y2="90" style="stroke:#bbb;stroke-width:1" />
<line x1="340" y1="100" x2="500" y2="100" style="stroke:#bbb;stroke-width:1" />
<line x1="340" y1="110" x2="500" y2="110" style="stroke:#bbb;stroke-width:1" />
<text x="350" y="105" style="text-anchor:middle;font-size:10px" >4</text>
<text x="370" y="95" style="text-anchor:middle;font-size:10px" >2</text>
<text x="390" y="85" style="text-anchor:middle;font-size:10px" >0</text>
<text x="410" y="75" style="text-anchor:middle;font-size:10px" >4</text>
<text x="430" y="105" style="text-anchor:middle;font-size:10px" >4</text>
<text x="450" y="95" style="text-anchor:middle;font-size:10px" >2</text>
<text x="470" y="85" style="text-anchor:middle;font-size:10px" >0</text>
<text x="490" y="75" style="text-anchor:middle;font-size:10px" >4</text>
<line x1="340" y1="70" x2="340" y2="110" style="stroke:#bbb;stroke-width:1" />
<text x="500" y="60" >E</text>
<line x1="500" y1="70" x2="660" y2="70" style="stroke:#bbb;stroke-width:1" />
<line x1="500" y1="80" x2="660" y2="80" style="stroke:#bbb;stroke-width:1" />
<line x1="500" y1="90" x2="660" y2="90" style="stroke:#bbb;stroke-width:1" />
<line x1="500" y1="100" x2="660" y2="100" style="stroke:#bbb;stroke-width:1" />
<line x1="500" y1="110" x2="660" y2="110" style="stroke:#bbb;stroke-width:1" />
<text x="510" y="105" style="text-anchor:middle;font-size:10px" >4</text>
<text x="530" y="95" style="text-anchor:middle;font-size:10px" >2</text>
<text x="550" y="85" style="text-anchor:middle;font-size:10px" >0</text>
<text x="570" y="75" style="text-anchor:middle;font-size:10px" >5</text>
<text x="590" y="115" style="text-anchor:middle;font-size:10px" >0</text>
<text x="610" y="95" style="text-anchor:middle;font-size:10px" >2</text>
<text x="630" y="75" style="text-anchor:middle;font-size:10px" >4</text>
<text x="650" y="115" style="text-anchor:middle;font-size:10px" >0</text>
<line x1="500" y1="70" x2="500" y2="110" style="stroke:#bbb;stroke-width:1" />
<line x1="660" y1="70" x2="660" y2="110" style="stroke:#bbb;stroke-width:1" />
<text x="20" y="130" >F#m</text>
<line x1="20" y1="140" x2="180" y2="140" style="stroke:#bbb;stroke-width:1" />
<line x1="20" y1="150" x2="180" y2="150" style="stroke:#bbb;stroke-width:1" />
<line x1="20" y1="160" x2="180" y2="160" style="stroke:#bbb;stroke-width:1" />
<line x1="20" y1="170" x2="180" y2="170" style="stroke:#bbb;stroke-width:1" />
<line x1="20" y1="180" x2="180" y2="180" style="stroke:#bbb;stroke-width:1" />
<text x="30" y="175" style="text-anchor:middle;font-size:10px" >0</text>
<text x="40" y="180" style="text-anchor:middle;font-size:10px" >h</text>
<line x1="36" y1="170" x2="44" y2="170" style="stroke:#444;stroke-width:1.2" />
<text x="50" y="175" style="text-anchor:middle;font-size:10px" >2</text>
<text x="40" y="180" style="text-anchor:middle;font-size:10px" >h</text>
<line x1="36" y1="170" x2="44" y2="170" style="stroke:#444;stroke-width:1.2" />
<text x="50" y="175" style="text-anchor:middle;font-size:10px" >2</text>
<text x="50" y="165" style="text-anchor:middle;font-size:10px" >0</text>
<text x="70" y="155" style="text-anchor:middle;font-size:10px" >0</text>
<text x="90" y="145" style="text-anchor:middle;font-size:10px" >0</text>
<text x="110" y="175" style="text-anchor:middle;font-size:10px" >2</text>
<text x="130" y="165" style="text-anchor:middle;font-size:10px" >0</text>
<text x="150" y="155" style="text-anchor:middle;font-size:10px" >0</text>
<text x="170" y="145" style="text-anchor:middle;font-size:10px" >0</text>
<line x1="20" y1="140" x2="20" y2="180" style="stroke:#bbb;stroke-width:1" />
<text x="180" y="130" >F#m</text>
<line x1="180" y1="140" x2="340" y2="140" style="stroke:#bbb;stroke-width:1" />
<line x1="180" y1="150" x2="340" y2="150" style="stroke:#bbb;stroke-width:1" />
<line x1="180" y1="160" x2="340" y2="160" style="stroke:#bbb;stroke-width:1" />
<line x1="180" y1="170" x2="340" y2="170" style="stroke:#bbb;stroke-width:1" />
<line x1="180" y1="180" x2="340" y2="180" style="stroke:#bbb;stroke-width:1" />
<text x="190" y="175" style="text-anchor:middle;font-size:10px" >2</text>
<text x="200" y="180" style="text-anchor:middle;font-size:10px" >s</text>
<line x1="196" y1="170" x2="204" y2="170" style="stroke:#444;stroke-width:1.2" />
<text x="210" y="175" style="text-anchor:middle;font-size:10px" >4</text>
<text x="200" y="180" style="text-anchor:middle;font-size:10px" >s</text>
<line x1="196" y1="170" x2="204" y2="170" style="stroke:#444;stroke-width:1.2" />
<text x="210" y="175" style="text-anchor:middle;font-size:10px" >4</text>
<text x="210" y="165" style="text-anchor:middle;font-size:10px" >0</text>
<text x="230" y="155" style="text-anchor:middle;font-size:10px" >5</text>
<text x="250" y="145" style="text-anchor:middle;font-size:10px" >7</text>
<text x="270" y="175" style="text-anchor:middle;font-size:10px" >2</text>
<text x="280" y="180" style="text-anchor:middle;font-size:10px" >s</text>
<line x1="276" y1="170" x2="284" y2="170" style="stroke:#444;stroke-width:1.2" />
<text x="290" y="175" style="text-anchor:middle;font-size:10px" >4</text>
<text x="280" y="180" style="text-anchor:middle;font-size:10px" >s</text>
<line x1="276" y1="170" x2="284" y2="170" style="stroke:#444;stroke-width:1.2" />
<text x="290" y="175" style="text-anchor:middle;font-size:10px" >4</text>
<text x="290" y="165" style="text-anchor:middle;font-size:10px" >0</text>
<text x="310" y="155" style="text-anchor:middle;font-size:10px" >5</text>
<text x="330" y="145" style="text-anchor:middle;font-size:10px" >7</text>
<line x1="180" y1="140" x2="180" y2="180" style="stroke:#bbb;stroke-width:1" />
<text x="340" y="130" >D Fフォーム (適当にロール)</text>
<line x1="340" y1="140" x2="500" y2="140" style="stroke:#bbb;stroke-width:1" />
<line x1="340" y1="150" x2="500" y2="150" style="stroke:#bbb;stroke-width:1" />
<line x1="340" y1="160" x2="500" y2="160" style="stroke:#bbb;stroke-width:1" />
<line x1="340" y1="170" x2="500" y2="170" style="stroke:#bbb;stroke-width:1" />
<line x1="340" y1="180" x2="500" y2="180" style="stroke:#bbb;stroke-width:1" />
<text x="350" y="165" style="text-anchor:middle;font-size:10px" >x</text>
<line x1="340" y1="140" x2="340" y2="180" style="stroke:#bbb;stroke-width:1" />
<text x="500" y="130" >C Fフォーム+9th</text>
<line x1="500" y1="140" x2="660" y2="140" style="stroke:#bbb;stroke-width:1" />
<line x1="500" y1="150" x2="660" y2="150" style="stroke:#bbb;stroke-width:1" />
<line x1="500" y1="160" x2="660" y2="160" style="stroke:#bbb;stroke-width:1" />
<line x1="500" y1="170" x2="660" y2="170" style="stroke:#bbb;stroke-width:1" />
<line x1="500" y1="180" x2="660" y2="180" style="stroke:#bbb;stroke-width:1" />
<text x="510" y="165" style="text-anchor:middle;font-size:10px" >x</text>
<line x1="500" y1="140" x2="500" y2="180" style="stroke:#bbb;stroke-width:1" />
<line x1="660" y1="140" x2="660" y2="180" style="stroke:#bbb;stroke-width:1" />
<text x="20" y="200" >D Dフォーム</text>
<line x1="20" y1="210" x2="180" y2="210" style="stroke:#bbb;stroke-width:1" />
<line x1="20" y1="220" x2="180" y2="220" style="stroke:#bbb;stroke-width:1" />
<line x1="20" y1="230" x2="180" y2="230" style="stroke:#bbb;stroke-width:1" />
<line x1="20" y1="240" x2="180" y2="240" style="stroke:#bbb;stroke-width:1" />
<line x1="20" y1="250" x2="180" y2="250" style="stroke:#bbb;stroke-width:1" />
<text x="30" y="235" style="text-anchor:middle;font-size:10px" >x</text>
<line x1="20" y1="210" x2="20" y2="250" style="stroke:#bbb;stroke-width:1" />
<text x="180" y="200" >A Dフォーム+9th</text>
<line x1="180" y1="210" x2="340" y2="210" style="stroke:#bbb;stroke-width:1" />
<line x1="180" y1="220" x2="340" y2="220" style="stroke:#bbb;stroke-width:1" />
<line x1="180" y1="230" x2="340" y2="230" style="stroke:#bbb;stroke-width:1" />
<line x1="180" y1="240" x2="340" y2="240" style="stroke:#bbb;stroke-width:1" />
<line x1="180" y1="250" x2="340" y2="250" style="stroke:#bbb;stroke-width:1" />
<text x="190" y="235" style="text-anchor:middle;font-size:10px" >x</text>
<line x1="180" y1="210" x2="180" y2="250" style="stroke:#bbb;stroke-width:1" />
<text x="340" y="200" >E barフォーム</text>
<line x1="340" y1="210" x2="500" y2="210" style="stroke:#bbb;stroke-width:1" />
<line x1="340" y1="220" x2="500" y2="220" style="stroke:#bbb;stroke-width:1" />
<line x1="340" y1="230" x2="500" y2="230" style="stroke:#bbb;stroke-width:1" />
<line x1="340" y1="240" x2="500" y2="240" style="stroke:#bbb;stroke-width:1" />
<line x1="340" y1="250" x2="500" y2="250" style="stroke:#bbb;stroke-width:1" />
<text x="350" y="245" style="text-anchor:middle;font-size:10px" >0</text>
<text x="370" y="235" style="text-anchor:middle;font-size:10px" >7</text>
<text x="390" y="225" style="text-anchor:middle;font-size:10px" >7</text>
<text x="410" y="215" style="text-anchor:middle;font-size:10px" >9</text>
<text x="430" y="245" style="text-anchor:middle;font-size:10px" >0</text>
<text x="450" y="235" style="text-anchor:middle;font-size:10px" >7</text>
<text x="470" y="225" style="text-anchor:middle;font-size:10px" >7</text>
<text x="490" y="215" style="text-anchor:middle;font-size:10px" >9</text>
<line x1="340" y1="210" x2="340" y2="250" style="stroke:#bbb;stroke-width:1" />
<line x1="500" y1="210" x2="500" y2="250" style="stroke:#bbb;stroke-width:1" />
<text x="500" y="200" >E</text>
<line x1="500" y1="210" x2="660" y2="210" style="stroke:#bbb;stroke-width:1" />
<line x1="500" y1="220" x2="660" y2="220" style="stroke:#bbb;stroke-width:1" />
<line x1="500" y1="230" x2="660" y2="230" style="stroke:#bbb;stroke-width:1" />
<line x1="500" y1="240" x2="660" y2="240" style="stroke:#bbb;stroke-width:1" />
<line x1="500" y1="250" x2="660" y2="250" style="stroke:#bbb;stroke-width:1" />
<text x="510" y="245" style="text-anchor:middle;font-size:10px" >0</text>
<text x="530" y="235" style="text-anchor:middle;font-size:10px" >7</text>
<text x="550" y="225" style="text-anchor:middle;font-size:10px" >7</text>
<text x="570" y="215" style="text-anchor:middle;font-size:10px" >9</text>
<text x="590" y="245" style="text-anchor:middle;font-size:10px" >0</text>
<text x="610" y="235" style="text-anchor:middle;font-size:10px" >7</text>
<text x="630" y="225" style="text-anchor:middle;font-size:10px" >7</text>
<text x="650" y="215" style="text-anchor:middle;font-size:10px" >9</text>
<line x1="500" y1="210" x2="500" y2="250" style="stroke:#bbb;stroke-width:1" />
<line x1="660" y1="210" x2="660" y2="250" style="stroke:#bbb;stroke-width:1" />
<text x="20" y="270" >D barフォーム</text>
<line x1="20" y1="280" x2="180" y2="280" style="stroke:#bbb;stroke-width:1" />
<line x1="20" y1="290" x2="180" y2="290" style="stroke:#bbb;stroke-width:1" />
<line x1="20" y1="300" x2="180" y2="300" style="stroke:#bbb;stroke-width:1" />
<line x1="20" y1="310" x2="180" y2="310" style="stroke:#bbb;stroke-width:1" />
<line x1="20" y1="320" x2="180" y2="320" style="stroke:#bbb;stroke-width:1" />
<text x="30" y="315" style="text-anchor:middle;font-size:10px" >5</text>
<text x="50" y="305" style="text-anchor:middle;font-size:10px" >5</text>
<text x="70" y="295" style="text-anchor:middle;font-size:10px" >5</text>
<text x="90" y="285" style="text-anchor:middle;font-size:10px" >7</text>
<text x="110" y="315" style="text-anchor:middle;font-size:10px" >5</text>
<text x="130" y="305" style="text-anchor:middle;font-size:10px" >5</text>
<text x="150" y="295" style="text-anchor:middle;font-size:10px" >5</text>
<text x="170" y="285" style="text-anchor:middle;font-size:10px" >5</text>
<line x1="20" y1="280" x2="20" y2="320" style="stroke:#bbb;stroke-width:1" />
<text x="180" y="270" >D barフォーム</text>
<line x1="180" y1="280" x2="340" y2="280" style="stroke:#bbb;stroke-width:1" />
<line x1="180" y1="290" x2="340" y2="290" style="stroke:#bbb;stroke-width:1" />
<line x1="180" y1="300" x2="340" y2="300" style="stroke:#bbb;stroke-width:1" />
<line x1="180" y1="310" x2="340" y2="310" style="stroke:#bbb;stroke-width:1" />
<line x1="180" y1="320" x2="340" y2="320" style="stroke:#bbb;stroke-width:1" />
<text x="190" y="315" style="text-anchor:middle;font-size:10px" >5</text>
<text x="210" y="305" style="text-anchor:middle;font-size:10px" >5</text>
<text x="230" y="295" style="text-anchor:middle;font-size:10px" >5</text>
<text x="250" y="285" style="text-anchor:middle;font-size:10px" >7</text>
<text x="270" y="315" style="text-anchor:middle;font-size:10px" >5</text>
<text x="290" y="295" style="text-anchor:middle;font-size:10px" >5</text>
<text x="310" y="305" style="text-anchor:middle;font-size:10px" >5</text>
<text x="320" y="310" style="text-anchor:middle;font-size:10px" >s</text>
<line x1="316" y1="300" x2="324" y2="300" style="stroke:#444;stroke-width:1.2" />
<text x="330" y="305" style="text-anchor:middle;font-size:10px" >4</text>
<text x="320" y="310" style="text-anchor:middle;font-size:10px" >s</text>
<line x1="316" y1="300" x2="324" y2="300" style="stroke:#444;stroke-width:1.2" />
<text x="330" y="305" style="text-anchor:middle;font-size:10px" >4</text>
<text x="330" y="295" style="text-anchor:middle;font-size:10px" >3</text>
<line x1="180" y1="280" x2="180" y2="320" style="stroke:#bbb;stroke-width:1" />
<text x="340" y="270" >D barフォーム</text>
<line x1="340" y1="280" x2="500" y2="280" style="stroke:#bbb;stroke-width:1" />
<line x1="340" y1="290" x2="500" y2="290" style="stroke:#bbb;stroke-width:1" />
<line x1="340" y1="300" x2="500" y2="300" style="stroke:#bbb;stroke-width:1" />
<line x1="340" y1="310" x2="500" y2="310" style="stroke:#bbb;stroke-width:1" />
<line x1="340" y1="320" x2="500" y2="320" style="stroke:#bbb;stroke-width:1" />
<text x="350" y="285" style="text-anchor:middle;font-size:10px" >5</text>
<text x="350" y="305" style="text-anchor:middle;font-size:10px" >4</text>
<text x="390" y="305" style="text-anchor:middle;font-size:10px" >x</text>
<text x="430" y="305" style="text-anchor:middle;font-size:10px" >x</text>
<text x="470" y="305" style="text-anchor:middle;font-size:10px" >x</text>
<line x1="340" y1="280" x2="340" y2="320" style="stroke:#bbb;stroke-width:1" />
<line x1="500" y1="280" x2="500" y2="320" style="stroke:#bbb;stroke-width:1" />
</svg>
