<?xml version="1.0"?>
<!-- Generated by SVGo -->
<svg width="1000" height="1700"
     xmlns="http://www.w3.org/2000/svg"
     xmlns:xlink="http://www.w3.org/1999/xlink">
<text x="20" y="20" style="font-size:25;" >Everyday I Write a Book(D form)</text>
<text x="20" y="40" style="font-size:12;" >key of C, ♪ = 122</text>
<text x="20" y="60" >Bb</text>
<line x1="20" y1="70" x2="200" y2="70" style="stroke:#bbb;stroke-width:1" />
<line x1="20" y1="80" x2="200" y2="80" style="stroke:#bbb;stroke-width:1" />
<line x1="20" y1="90" x2="200" y2="90" style="stroke:#bbb;stroke-width:1" />
<line x1="20" y1="100" x2="200" y2="100" style="stroke:#bbb;stroke-width:1" />
<line x1="20" y1="110" x2="200" y2="110" style="stroke:#bbb;stroke-width:1" />
<text x="30" y="75" style="text-anchor:middle;font-size:10px" >4</text>
<text x="30" y="85" style="text-anchor:middle;font-size:10px" >0</text>
<text x="50" y="95" style="text-anchor:middle;font-size:10px" >0</text>
<text x="70" y="75" style="text-anchor:middle;font-size:10px" >4</text>
<text x="70" y="85" style="text-anchor:middle;font-size:10px" >0</text>
<text x="90" y="95" style="text-anchor:middle;font-size:10px" >0</text>
<text x="110" y="75" style="text-anchor:middle;font-size:10px" >4</text>
<text x="110" y="85" style="text-anchor:middle;font-size:10px" >0</text>
<text x="130" y="95" style="text-anchor:middle;font-size:10px" >0</text>
<text x="150" y="75" style="text-anchor:middle;font-size:10px" >4</text>
<text x="150" y="85" style="text-anchor:middle;font-size:10px" >0</text>
<text x="170" y="95" style="text-anchor:middle;font-size:10px" >0</text>
<text x="190" y="75" style="text-anchor:middle;font-size:10px" >4</text>
<text x="190" y="85" style="text-anchor:middle;font-size:10px" >0</text>
<line x1="20" y1="70" x2="20" y2="110" style="stroke:#bbb;stroke-width:1" />
<text x="200" y="60" >Bb</text>
<line x1="200" y1="70" x2="380" y2="70" style="stroke:#bbb;stroke-width:1" />
<line x1="200" y1="80" x2="380" y2="80" style="stroke:#bbb;stroke-width:1" />
<line x1="200" y1="90" x2="380" y2="90" style="stroke:#bbb;stroke-width:1" />
<line x1="200" y1="100" x2="380" y2="100" style="stroke:#bbb;stroke-width:1" />
<line x1="200" y1="110" x2="380" y2="110" style="stroke:#bbb;stroke-width:1" />
<text x="210" y="95" style="text-anchor:middle;font-size:10px" >0</text>
<text x="230" y="75" style="text-anchor:middle;font-size:10px" >4</text>
<text x="230" y="85" style="text-anchor:middle;font-size:10px" >0</text>
<text x="250" y="95" style="text-anchor:middle;font-size:10px" >0</text>
<text x="270" y="75" style="text-anchor:middle;font-size:10px" >4</text>
<text x="270" y="85" style="text-anchor:middle;font-size:10px" >0</text>
<text x="290" y="95" style="text-anchor:middle;font-size:10px" >0</text>
<text x="310" y="75" style="text-anchor:middle;font-size:10px" >4</text>
<text x="310" y="85" style="text-anchor:middle;font-size:10px" >0</text>
<text x="330" y="95" style="text-anchor:middle;font-size:10px" >0</text>
<text x="350" y="75" style="text-anchor:middle;font-size:10px" >4</text>
<text x="350" y="85" style="text-anchor:middle;font-size:10px" >0</text>
<text x="370" y="95" style="text-anchor:middle;font-size:10px" >0</text>
<line x1="200" y1="70" x2="200" y2="110" style="stroke:#bbb;stroke-width:1" />
<text x="380" y="60" >D#</text>
<line x1="380" y1="70" x2="560" y2="70" style="stroke:#bbb;stroke-width:1" />
<line x1="380" y1="80" x2="560" y2="80" style="stroke:#bbb;stroke-width:1" />
<line x1="380" y1="90" x2="560" y2="90" style="stroke:#bbb;stroke-width:1" />
<line x1="380" y1="100" x2="560" y2="100" style="stroke:#bbb;stroke-width:1" />
<line x1="380" y1="110" x2="560" y2="110" style="stroke:#bbb;stroke-width:1" />
<text x="390" y="75" style="text-anchor:middle;font-size:10px" >4</text>
<text x="390" y="85" style="text-anchor:middle;font-size:10px" >1</text>
<text x="410" y="95" style="text-anchor:middle;font-size:10px" >x</text>
<text x="430" y="95" style="text-anchor:middle;font-size:10px" >0</text>
<text x="450" y="85" style="text-anchor:middle;font-size:10px" >1</text>
<text x="470" y="95" style="text-anchor:middle;font-size:10px" >x</text>
<text x="490" y="75" style="text-anchor:middle;font-size:10px" >4</text>
<text x="510" y="85" style="text-anchor:middle;font-size:10px" >1</text>
<text x="530" y="95" style="text-anchor:middle;font-size:10px" >x</text>
<text x="550" y="95" style="text-anchor:middle;font-size:10px" >0</text>
<line x1="380" y1="70" x2="380" y2="110" style="stroke:#bbb;stroke-width:1" />
<text x="560" y="60" >D#</text>
<line x1="560" y1="70" x2="740" y2="70" style="stroke:#bbb;stroke-width:1" />
<line x1="560" y1="80" x2="740" y2="80" style="stroke:#bbb;stroke-width:1" />
<line x1="560" y1="90" x2="740" y2="90" style="stroke:#bbb;stroke-width:1" />
<line x1="560" y1="100" x2="740" y2="100" style="stroke:#bbb;stroke-width:1" />
<line x1="560" y1="110" x2="740" y2="110" style="stroke:#bbb;stroke-width:1" />
<text x="570" y="75" style="text-anchor:middle;font-size:10px" >4</text>
<text x="570" y="85" style="text-anchor:middle;font-size:10px" >1</text>
<text x="590" y="95" style="text-anchor:middle;font-size:10px" >x</text>
<text x="610" y="95" style="text-anchor:middle;font-size:10px" >0</text>
<text x="630" y="75" style="text-anchor:middle;font-size:10px" >5</text>
<text x="630" y="85" style="text-anchor:middle;font-size:10px" >1</text>
<text x="650" y="95" style="text-anchor:middle;font-size:10px" >x</text>
<text x="670" y="95" style="text-anchor:middle;font-size:10px" >0</text>
<text x="690" y="75" style="text-anchor:middle;font-size:10px" >4</text>
<text x="690" y="85" style="text-anchor:middle;font-size:10px" >1</text>
<text x="710" y="95" style="text-anchor:middle;font-size:10px" >x</text>
<text x="730" y="95" style="text-anchor:middle;font-size:10px" >0</text>
<line x1="560" y1="70" x2="560" y2="110" style="stroke:#bbb;stroke-width:1" />
<text x="20" y="130" >Gm</text>
<line x1="20" y1="140" x2="200" y2="140" style="stroke:#bbb;stroke-width:1" />
<line x1="20" y1="150" x2="200" y2="150" style="stroke:#bbb;stroke-width:1" />
<line x1="20" y1="160" x2="200" y2="160" style="stroke:#bbb;stroke-width:1" />
<line x1="20" y1="170" x2="200" y2="170" style="stroke:#bbb;stroke-width:1" />
<line x1="20" y1="180" x2="200" y2="180" style="stroke:#bbb;stroke-width:1" />
<text x="30" y="145" style="text-anchor:middle;font-size:10px" >2</text>
<text x="30" y="155" style="text-anchor:middle;font-size:10px" >0</text>
<text x="50" y="165" style="text-anchor:middle;font-size:10px" >x</text>
<text x="70" y="165" style="text-anchor:middle;font-size:10px" >0</text>
<text x="90" y="155" style="text-anchor:middle;font-size:10px" >0</text>
<text x="110" y="165" style="text-anchor:middle;font-size:10px" >x</text>
<text x="130" y="145" style="text-anchor:middle;font-size:10px" >2</text>
<text x="150" y="155" style="text-anchor:middle;font-size:10px" >0</text>
<text x="170" y="165" style="text-anchor:middle;font-size:10px" >x</text>
<text x="190" y="165" style="text-anchor:middle;font-size:10px" >1</text>
<text x="200" y="170" style="text-anchor:middle;font-size:10px" >s</text>
<line x1="196" y1="160" x2="204" y2="160" style="stroke:#444;stroke-width:1.2" />
<text x="210" y="165" style="text-anchor:middle;font-size:10px" >4</text>
<text x="200" y="170" style="text-anchor:middle;font-size:10px" >s</text>
<line x1="196" y1="160" x2="204" y2="160" style="stroke:#444;stroke-width:1.2" />
<text x="210" y="165" style="text-anchor:middle;font-size:10px" >4</text>
<line x1="20" y1="140" x2="20" y2="180" style="stroke:#bbb;stroke-width:1" />
<text x="200" y="130" >Gm</text>
<line x1="200" y1="140" x2="380" y2="140" style="stroke:#bbb;stroke-width:1" />
<line x1="200" y1="150" x2="380" y2="150" style="stroke:#bbb;stroke-width:1" />
<line x1="200" y1="160" x2="380" y2="160" style="stroke:#bbb;stroke-width:1" />
<line x1="200" y1="170" x2="380" y2="170" style="stroke:#bbb;stroke-width:1" />
<line x1="200" y1="180" x2="380" y2="180" style="stroke:#bbb;stroke-width:1" />
<text x="210" y="145" style="text-anchor:middle;font-size:10px" >5</text>
<text x="210" y="155" style="text-anchor:middle;font-size:10px" >5</text>
<text x="230" y="165" style="text-anchor:middle;font-size:10px" >x</text>
<text x="250" y="165" style="text-anchor:middle;font-size:10px" >4</text>
<text x="270" y="145" style="text-anchor:middle;font-size:10px" >5</text>
<text x="270" y="155" style="text-anchor:middle;font-size:10px" >5</text>
<text x="290" y="165" style="text-anchor:middle;font-size:10px" >x</text>
<text x="310" y="165" style="text-anchor:middle;font-size:10px" >4</text>
<text x="330" y="145" style="text-anchor:middle;font-size:10px" >5</text>
<text x="330" y="155" style="text-anchor:middle;font-size:10px" >5</text>
<text x="350" y="165" style="text-anchor:middle;font-size:10px" >x</text>
<text x="370" y="165" style="text-anchor:middle;font-size:10px" >4</text>
<text x="380" y="170" style="text-anchor:middle;font-size:10px" >s</text>
<line x1="376" y1="160" x2="384" y2="160" style="stroke:#444;stroke-width:1.2" />
<text x="390" y="165" style="text-anchor:middle;font-size:10px" >7</text>
<text x="380" y="170" style="text-anchor:middle;font-size:10px" >s</text>
<line x1="376" y1="160" x2="384" y2="160" style="stroke:#444;stroke-width:1.2" />
<text x="390" y="165" style="text-anchor:middle;font-size:10px" >7</text>
<line x1="200" y1="140" x2="200" y2="180" style="stroke:#bbb;stroke-width:1" />
<text x="380" y="130" >F</text>
<line x1="380" y1="140" x2="560" y2="140" style="stroke:#bbb;stroke-width:1" />
<line x1="380" y1="150" x2="560" y2="150" style="stroke:#bbb;stroke-width:1" />
<line x1="380" y1="160" x2="560" y2="160" style="stroke:#bbb;stroke-width:1" />
<line x1="380" y1="170" x2="560" y2="170" style="stroke:#bbb;stroke-width:1" />
<line x1="380" y1="180" x2="560" y2="180" style="stroke:#bbb;stroke-width:1" />
<text x="390" y="145" style="text-anchor:middle;font-size:10px" >7</text>
<text x="390" y="155" style="text-anchor:middle;font-size:10px" >7</text>
<text x="410" y="165" style="text-anchor:middle;font-size:10px" >x</text>
<text x="430" y="165" style="text-anchor:middle;font-size:10px" >7</text>
<text x="450" y="145" style="text-anchor:middle;font-size:10px" >9</text>
<text x="450" y="155" style="text-anchor:middle;font-size:10px" >7</text>
<text x="470" y="165" style="text-anchor:middle;font-size:10px" >x</text>
<text x="490" y="145" style="text-anchor:middle;font-size:10px" >7</text>
<text x="490" y="155" style="text-anchor:middle;font-size:10px" >7</text>
<text x="510" y="155" style="text-anchor:middle;font-size:10px" >8</text>
<text x="530" y="165" style="text-anchor:middle;font-size:10px" >x</text>
<text x="550" y="155" style="text-anchor:middle;font-size:10px" >7</text>
<line x1="380" y1="140" x2="380" y2="180" style="stroke:#bbb;stroke-width:1" />
<text x="560" y="130" >F ハーモニクスでも良さそう</text>
<line x1="560" y1="140" x2="740" y2="140" style="stroke:#bbb;stroke-width:1" />
<line x1="560" y1="150" x2="740" y2="150" style="stroke:#bbb;stroke-width:1" />
<line x1="560" y1="160" x2="740" y2="160" style="stroke:#bbb;stroke-width:1" />
<line x1="560" y1="170" x2="740" y2="170" style="stroke:#bbb;stroke-width:1" />
<line x1="560" y1="180" x2="740" y2="180" style="stroke:#bbb;stroke-width:1" />
<text x="570" y="165" style="text-anchor:middle;font-size:10px" >7</text>
<line x1="560" y1="140" x2="560" y2="180" style="stroke:#bbb;stroke-width:1" />
<line x1="740" y1="140" x2="740" y2="180" style="stroke:#bbb;stroke-width:1" />
</svg>
