<?xml version="1.0"?>
<!-- Generated by SVGo -->
<svg width="1000" height="1000"
     xmlns="http://www.w3.org/2000/svg"
     xmlns:xlink="http://www.w3.org/1999/xlink">
<text x="20" y="20" style="font-size:25;" >The Only Living Boy in New York</text>
<text x="20" y="40" style="font-size:12;" >key of C, ♪ = 74</text>
<text x="20" y="60" >C A part</text>
<line x1="20" y1="70" x2="180" y2="70" style="stroke:#bbb;stroke-width:1" />
<line x1="20" y1="80" x2="180" y2="80" style="stroke:#bbb;stroke-width:1" />
<line x1="20" y1="90" x2="180" y2="90" style="stroke:#bbb;stroke-width:1" />
<line x1="20" y1="100" x2="180" y2="100" style="stroke:#bbb;stroke-width:1" />
<line x1="20" y1="110" x2="180" y2="110" style="stroke:#bbb;stroke-width:1" />
<text x="30" y="75" style="text-anchor:middle;font-size:10px" >2</text>
<text x="30" y="85" style="text-anchor:middle;font-size:10px" >1</text>
<text x="70" y="105" style="text-anchor:middle;font-size:10px" >0</text>
<text x="80" y="110" style="text-anchor:middle;font-size:10px" >h</text>
<line x1="76" y1="100" x2="84" y2="100" style="stroke:#444;stroke-width:1.2" />
<text x="90" y="105" style="text-anchor:middle;font-size:10px" >2</text>
<text x="80" y="110" style="text-anchor:middle;font-size:10px" >h</text>
<line x1="76" y1="100" x2="84" y2="100" style="stroke:#444;stroke-width:1.2" />
<text x="90" y="105" style="text-anchor:middle;font-size:10px" >2</text>
<text x="90" y="85" style="text-anchor:middle;font-size:10px" >1</text>
<text x="110" y="75" style="text-anchor:middle;font-size:10px" >2</text>
<text x="130" y="85" style="text-anchor:middle;font-size:10px" >1</text>
<text x="150" y="95" style="text-anchor:middle;font-size:10px" >0</text>
<text x="170" y="75" style="text-anchor:middle;font-size:10px" >2</text>
<line x1="20" y1="70" x2="20" y2="110" style="stroke:#bbb;stroke-width:1" />
<text x="180" y="60" >C</text>
<line x1="180" y1="70" x2="340" y2="70" style="stroke:#bbb;stroke-width:1" />
<line x1="180" y1="80" x2="340" y2="80" style="stroke:#bbb;stroke-width:1" />
<line x1="180" y1="90" x2="340" y2="90" style="stroke:#bbb;stroke-width:1" />
<line x1="180" y1="100" x2="340" y2="100" style="stroke:#bbb;stroke-width:1" />
<line x1="180" y1="110" x2="340" y2="110" style="stroke:#bbb;stroke-width:1" />
<text x="190" y="115" style="text-anchor:middle;font-size:10px" >0</text>
<text x="210" y="75" style="text-anchor:middle;font-size:10px" >2</text>
<text x="210" y="85" style="text-anchor:middle;font-size:10px" >1</text>
<text x="230" y="95" style="text-anchor:middle;font-size:10px" >0</text>
<text x="250" y="75" style="text-anchor:middle;font-size:10px" >2</text>
<text x="270" y="105" style="text-anchor:middle;font-size:10px" >0</text>
<text x="280" y="110" style="text-anchor:middle;font-size:10px" >h</text>
<line x1="276" y1="100" x2="284" y2="100" style="stroke:#444;stroke-width:1.2" />
<text x="290" y="105" style="text-anchor:middle;font-size:10px" >2</text>
<text x="280" y="110" style="text-anchor:middle;font-size:10px" >h</text>
<line x1="276" y1="100" x2="284" y2="100" style="stroke:#444;stroke-width:1.2" />
<text x="290" y="105" style="text-anchor:middle;font-size:10px" >2</text>
<text x="290" y="85" style="text-anchor:middle;font-size:10px" >1</text>
<text x="310" y="95" style="text-anchor:middle;font-size:10px" >0</text>
<text x="330" y="75" style="text-anchor:middle;font-size:10px" >2</text>
<line x1="180" y1="70" x2="180" y2="110" style="stroke:#bbb;stroke-width:1" />
<text x="340" y="60" >F</text>
<line x1="340" y1="70" x2="500" y2="70" style="stroke:#bbb;stroke-width:1" />
<line x1="340" y1="80" x2="500" y2="80" style="stroke:#bbb;stroke-width:1" />
<line x1="340" y1="90" x2="500" y2="90" style="stroke:#bbb;stroke-width:1" />
<line x1="340" y1="100" x2="500" y2="100" style="stroke:#bbb;stroke-width:1" />
<line x1="340" y1="110" x2="500" y2="110" style="stroke:#bbb;stroke-width:1" />
<text x="350" y="95" style="text-anchor:middle;font-size:10px" >0</text>
<text x="360" y="100" style="text-anchor:middle;font-size:10px" >h</text>
<line x1="356" y1="90" x2="364" y2="90" style="stroke:#444;stroke-width:1.2" />
<text x="370" y="95" style="text-anchor:middle;font-size:10px" >2</text>
<text x="360" y="100" style="text-anchor:middle;font-size:10px" >h</text>
<line x1="356" y1="90" x2="364" y2="90" style="stroke:#444;stroke-width:1.2" />
<text x="370" y="95" style="text-anchor:middle;font-size:10px" >2</text>
<text x="0" y="0" style="text-anchor:middle;font-size:10px" ></text>
<text x="390" y="85" style="text-anchor:middle;font-size:10px" >1</text>
<text x="410" y="95" style="text-anchor:middle;font-size:10px" >x</text>
<text x="430" y="75" style="text-anchor:middle;font-size:10px" >3</text>
<text x="450" y="95" style="text-anchor:middle;font-size:10px" >2</text>
<text x="470" y="85" style="text-anchor:middle;font-size:10px" >1</text>
<text x="490" y="75" style="text-anchor:middle;font-size:10px" >3</text>
<line x1="340" y1="70" x2="340" y2="110" style="stroke:#bbb;stroke-width:1" />
<text x="500" y="60" >F</text>
<line x1="500" y1="70" x2="660" y2="70" style="stroke:#bbb;stroke-width:1" />
<line x1="500" y1="80" x2="660" y2="80" style="stroke:#bbb;stroke-width:1" />
<line x1="500" y1="90" x2="660" y2="90" style="stroke:#bbb;stroke-width:1" />
<line x1="500" y1="100" x2="660" y2="100" style="stroke:#bbb;stroke-width:1" />
<line x1="500" y1="110" x2="660" y2="110" style="stroke:#bbb;stroke-width:1" />
<text x="510" y="105" style="text-anchor:middle;font-size:10px" >3</text>
<text x="530" y="85" style="text-anchor:middle;font-size:10px" >1</text>
<text x="550" y="95" style="text-anchor:middle;font-size:10px" >0</text>
<text x="560" y="100" style="text-anchor:middle;font-size:10px" >h</text>
<line x1="556" y1="90" x2="564" y2="90" style="stroke:#444;stroke-width:1.2" />
<text x="570" y="95" style="text-anchor:middle;font-size:10px" >2</text>
<text x="560" y="100" style="text-anchor:middle;font-size:10px" >h</text>
<line x1="556" y1="90" x2="564" y2="90" style="stroke:#444;stroke-width:1.2" />
<text x="570" y="95" style="text-anchor:middle;font-size:10px" >2</text>
<text x="570" y="85" style="text-anchor:middle;font-size:10px" >1</text>
<text x="590" y="75" style="text-anchor:middle;font-size:10px" >3</text>
<text x="610" y="85" style="text-anchor:middle;font-size:10px" >1</text>
<text x="630" y="95" style="text-anchor:middle;font-size:10px" >2</text>
<text x="650" y="95" style="text-anchor:middle;font-size:10px" >x</text>
<line x1="500" y1="70" x2="500" y2="110" style="stroke:#bbb;stroke-width:1" />
<text x="20" y="130" >C</text>
<line x1="20" y1="140" x2="180" y2="140" style="stroke:#bbb;stroke-width:1" />
<line x1="20" y1="150" x2="180" y2="150" style="stroke:#bbb;stroke-width:1" />
<line x1="20" y1="160" x2="180" y2="160" style="stroke:#bbb;stroke-width:1" />
<line x1="20" y1="170" x2="180" y2="170" style="stroke:#bbb;stroke-width:1" />
<line x1="20" y1="180" x2="180" y2="180" style="stroke:#bbb;stroke-width:1" />
<text x="30" y="145" style="text-anchor:middle;font-size:10px" >2</text>
<text x="30" y="155" style="text-anchor:middle;font-size:10px" >1</text>
<text x="70" y="175" style="text-anchor:middle;font-size:10px" >0</text>
<text x="80" y="180" style="text-anchor:middle;font-size:10px" >h</text>
<line x1="76" y1="170" x2="84" y2="170" style="stroke:#444;stroke-width:1.2" />
<text x="90" y="175" style="text-anchor:middle;font-size:10px" >2</text>
<text x="80" y="180" style="text-anchor:middle;font-size:10px" >h</text>
<line x1="76" y1="170" x2="84" y2="170" style="stroke:#444;stroke-width:1.2" />
<text x="90" y="175" style="text-anchor:middle;font-size:10px" >2</text>
<text x="90" y="155" style="text-anchor:middle;font-size:10px" >1</text>
<text x="110" y="145" style="text-anchor:middle;font-size:10px" >2</text>
<text x="130" y="155" style="text-anchor:middle;font-size:10px" >1</text>
<text x="150" y="165" style="text-anchor:middle;font-size:10px" >0</text>
<text x="170" y="145" style="text-anchor:middle;font-size:10px" >2</text>
<line x1="20" y1="140" x2="20" y2="180" style="stroke:#bbb;stroke-width:1" />
<text x="180" y="130" >C</text>
<line x1="180" y1="140" x2="340" y2="140" style="stroke:#bbb;stroke-width:1" />
<line x1="180" y1="150" x2="340" y2="150" style="stroke:#bbb;stroke-width:1" />
<line x1="180" y1="160" x2="340" y2="160" style="stroke:#bbb;stroke-width:1" />
<line x1="180" y1="170" x2="340" y2="170" style="stroke:#bbb;stroke-width:1" />
<line x1="180" y1="180" x2="340" y2="180" style="stroke:#bbb;stroke-width:1" />
<text x="190" y="185" style="text-anchor:middle;font-size:10px" >0</text>
<text x="210" y="145" style="text-anchor:middle;font-size:10px" >2</text>
<text x="210" y="155" style="text-anchor:middle;font-size:10px" >1</text>
<text x="230" y="165" style="text-anchor:middle;font-size:10px" >0</text>
<text x="240" y="170" style="text-anchor:middle;font-size:10px" >h</text>
<line x1="236" y1="160" x2="244" y2="160" style="stroke:#444;stroke-width:1.2" />
<text x="250" y="165" style="text-anchor:middle;font-size:10px" >2</text>
<text x="240" y="170" style="text-anchor:middle;font-size:10px" >h</text>
<line x1="236" y1="160" x2="244" y2="160" style="stroke:#444;stroke-width:1.2" />
<text x="250" y="165" style="text-anchor:middle;font-size:10px" >2</text>
<text x="0" y="0" style="text-anchor:middle;font-size:10px" ></text>
<text x="270" y="145" style="text-anchor:middle;font-size:10px" >2</text>
<text x="290" y="155" style="text-anchor:middle;font-size:10px" >1</text>
<text x="310" y="165" style="text-anchor:middle;font-size:10px" >0</text>
<text x="330" y="165" style="text-anchor:middle;font-size:10px" >x</text>
<line x1="180" y1="140" x2="180" y2="180" style="stroke:#bbb;stroke-width:1" />
<text x="340" y="130" >F -&gt; F/E</text>
<line x1="340" y1="140" x2="500" y2="140" style="stroke:#bbb;stroke-width:1" />
<line x1="340" y1="150" x2="500" y2="150" style="stroke:#bbb;stroke-width:1" />
<line x1="340" y1="160" x2="500" y2="160" style="stroke:#bbb;stroke-width:1" />
<line x1="340" y1="170" x2="500" y2="170" style="stroke:#bbb;stroke-width:1" />
<line x1="340" y1="180" x2="500" y2="180" style="stroke:#bbb;stroke-width:1" />
<text x="350" y="145" style="text-anchor:middle;font-size:10px" >3</text>
<text x="350" y="155" style="text-anchor:middle;font-size:10px" >1</text>
<text x="350" y="165" style="text-anchor:middle;font-size:10px" >2</text>
<text x="390" y="165" style="text-anchor:middle;font-size:10px" >x</text>
<text x="430" y="145" style="text-anchor:middle;font-size:10px" >2</text>
<text x="430" y="155" style="text-anchor:middle;font-size:10px" >1</text>
<text x="430" y="165" style="text-anchor:middle;font-size:10px" >2</text>
<text x="470" y="165" style="text-anchor:middle;font-size:10px" >x</text>
<line x1="340" y1="140" x2="340" y2="180" style="stroke:#bbb;stroke-width:1" />
<text x="500" y="130" >Dm -&gt; Dm/C</text>
<line x1="500" y1="140" x2="660" y2="140" style="stroke:#bbb;stroke-width:1" />
<line x1="500" y1="150" x2="660" y2="150" style="stroke:#bbb;stroke-width:1" />
<line x1="500" y1="160" x2="660" y2="160" style="stroke:#bbb;stroke-width:1" />
<line x1="500" y1="170" x2="660" y2="170" style="stroke:#bbb;stroke-width:1" />
<line x1="500" y1="180" x2="660" y2="180" style="stroke:#bbb;stroke-width:1" />
<text x="510" y="145" style="text-anchor:middle;font-size:10px" >0</text>
<text x="510" y="165" style="text-anchor:middle;font-size:10px" >2</text>
<text x="510" y="175" style="text-anchor:middle;font-size:10px" >3</text>
<text x="550" y="165" style="text-anchor:middle;font-size:10px" >x</text>
<text x="590" y="155" style="text-anchor:middle;font-size:10px" >1</text>
<text x="590" y="165" style="text-anchor:middle;font-size:10px" >2</text>
<text x="590" y="175" style="text-anchor:middle;font-size:10px" >3</text>
<text x="630" y="165" style="text-anchor:middle;font-size:10px" >x</text>
<line x1="500" y1="140" x2="500" y2="180" style="stroke:#bbb;stroke-width:1" />
<text x="20" y="200" >G</text>
<line x1="20" y1="210" x2="180" y2="210" style="stroke:#bbb;stroke-width:1" />
<line x1="20" y1="220" x2="180" y2="220" style="stroke:#bbb;stroke-width:1" />
<line x1="20" y1="230" x2="180" y2="230" style="stroke:#bbb;stroke-width:1" />
<line x1="20" y1="240" x2="180" y2="240" style="stroke:#bbb;stroke-width:1" />
<line x1="20" y1="250" x2="180" y2="250" style="stroke:#bbb;stroke-width:1" />
<text x="30" y="215" style="text-anchor:middle;font-size:10px" >0</text>
<text x="30" y="235" style="text-anchor:middle;font-size:10px" >0</text>
<text x="70" y="245" style="text-anchor:middle;font-size:10px" >3</text>
<text x="80" y="250" style="text-anchor:middle;font-size:10px" >s</text>
<line x1="76" y1="240" x2="84" y2="240" style="stroke:#444;stroke-width:1.2" />
<text x="90" y="245" style="text-anchor:middle;font-size:10px" >5</text>
<text x="80" y="250" style="text-anchor:middle;font-size:10px" >s</text>
<line x1="76" y1="240" x2="84" y2="240" style="stroke:#444;stroke-width:1.2" />
<text x="90" y="245" style="text-anchor:middle;font-size:10px" >5</text>
<text x="90" y="235" style="text-anchor:middle;font-size:10px" >0</text>
<text x="110" y="215" style="text-anchor:middle;font-size:10px" >0</text>
<text x="130" y="235" style="text-anchor:middle;font-size:10px" >0</text>
<text x="150" y="245" style="text-anchor:middle;font-size:10px" >3</text>
<text x="170" y="215" style="text-anchor:middle;font-size:10px" >0</text>
<line x1="20" y1="210" x2="20" y2="250" style="stroke:#bbb;stroke-width:1" />
<text x="180" y="200" >G</text>
<line x1="180" y1="210" x2="340" y2="210" style="stroke:#bbb;stroke-width:1" />
<line x1="180" y1="220" x2="340" y2="220" style="stroke:#bbb;stroke-width:1" />
<line x1="180" y1="230" x2="340" y2="230" style="stroke:#bbb;stroke-width:1" />
<line x1="180" y1="240" x2="340" y2="240" style="stroke:#bbb;stroke-width:1" />
<line x1="180" y1="250" x2="340" y2="250" style="stroke:#bbb;stroke-width:1" />
<text x="190" y="255" style="text-anchor:middle;font-size:10px" >0</text>
<text x="210" y="235" style="text-anchor:middle;font-size:10px" >0</text>
<text x="230" y="245" style="text-anchor:middle;font-size:10px" >3</text>
<text x="250" y="215" style="text-anchor:middle;font-size:10px" >0</text>
<text x="270" y="245" style="text-anchor:middle;font-size:10px" >0</text>
<text x="280" y="250" style="text-anchor:middle;font-size:10px" >h</text>
<line x1="276" y1="240" x2="284" y2="240" style="stroke:#444;stroke-width:1.2" />
<text x="290" y="245" style="text-anchor:middle;font-size:10px" >2</text>
<text x="280" y="250" style="text-anchor:middle;font-size:10px" >h</text>
<line x1="276" y1="240" x2="284" y2="240" style="stroke:#444;stroke-width:1.2" />
<text x="290" y="245" style="text-anchor:middle;font-size:10px" >2</text>
<text x="290" y="225" style="text-anchor:middle;font-size:10px" >0</text>
<text x="310" y="235" style="text-anchor:middle;font-size:10px" >0</text>
<text x="330" y="215" style="text-anchor:middle;font-size:10px" >0</text>
<line x1="180" y1="210" x2="180" y2="250" style="stroke:#bbb;stroke-width:1" />
<text x="340" y="200" >F</text>
<line x1="340" y1="210" x2="500" y2="210" style="stroke:#bbb;stroke-width:1" />
<line x1="340" y1="220" x2="500" y2="220" style="stroke:#bbb;stroke-width:1" />
<line x1="340" y1="230" x2="500" y2="230" style="stroke:#bbb;stroke-width:1" />
<line x1="340" y1="240" x2="500" y2="240" style="stroke:#bbb;stroke-width:1" />
<line x1="340" y1="250" x2="500" y2="250" style="stroke:#bbb;stroke-width:1" />
<text x="350" y="245" style="text-anchor:middle;font-size:10px" >3</text>
<text x="0" y="0" style="text-anchor:middle;font-size:10px" ></text>
<text x="390" y="245" style="text-anchor:middle;font-size:10px" >3</text>
<text x="410" y="235" style="text-anchor:middle;font-size:10px" >x</text>
<text x="430" y="215" style="text-anchor:middle;font-size:10px" >3</text>
<text x="450" y="235" style="text-anchor:middle;font-size:10px" >2</text>
<text x="470" y="225" style="text-anchor:middle;font-size:10px" >1</text>
<text x="490" y="215" style="text-anchor:middle;font-size:10px" >3</text>
<line x1="340" y1="210" x2="340" y2="250" style="stroke:#bbb;stroke-width:1" />
<text x="500" y="200" >F</text>
<line x1="500" y1="210" x2="660" y2="210" style="stroke:#bbb;stroke-width:1" />
<line x1="500" y1="220" x2="660" y2="220" style="stroke:#bbb;stroke-width:1" />
<line x1="500" y1="230" x2="660" y2="230" style="stroke:#bbb;stroke-width:1" />
<line x1="500" y1="240" x2="660" y2="240" style="stroke:#bbb;stroke-width:1" />
<line x1="500" y1="250" x2="660" y2="250" style="stroke:#bbb;stroke-width:1" />
<text x="510" y="245" style="text-anchor:middle;font-size:10px" >3</text>
<text x="530" y="215" style="text-anchor:middle;font-size:10px" >3</text>
<text x="530" y="225" style="text-anchor:middle;font-size:10px" >1</text>
<text x="550" y="235" style="text-anchor:middle;font-size:10px" >0</text>
<text x="560" y="240" style="text-anchor:middle;font-size:10px" >h</text>
<line x1="556" y1="230" x2="564" y2="230" style="stroke:#444;stroke-width:1.2" />
<text x="570" y="235" style="text-anchor:middle;font-size:10px" >2</text>
<text x="560" y="240" style="text-anchor:middle;font-size:10px" >h</text>
<line x1="556" y1="230" x2="564" y2="230" style="stroke:#444;stroke-width:1.2" />
<text x="570" y="235" style="text-anchor:middle;font-size:10px" >2</text>
<text x="570" y="225" style="text-anchor:middle;font-size:10px" >1</text>
<text x="590" y="215" style="text-anchor:middle;font-size:10px" >3</text>
<text x="610" y="225" style="text-anchor:middle;font-size:10px" >1</text>
<text x="630" y="235" style="text-anchor:middle;font-size:10px" >2</text>
<text x="650" y="215" style="text-anchor:middle;font-size:10px" >3</text>
<line x1="500" y1="210" x2="500" y2="250" style="stroke:#bbb;stroke-width:1" />
<text x="20" y="270" >C</text>
<line x1="20" y1="280" x2="180" y2="280" style="stroke:#bbb;stroke-width:1" />
<line x1="20" y1="290" x2="180" y2="290" style="stroke:#bbb;stroke-width:1" />
<line x1="20" y1="300" x2="180" y2="300" style="stroke:#bbb;stroke-width:1" />
<line x1="20" y1="310" x2="180" y2="310" style="stroke:#bbb;stroke-width:1" />
<line x1="20" y1="320" x2="180" y2="320" style="stroke:#bbb;stroke-width:1" />
<text x="30" y="315" style="text-anchor:middle;font-size:10px" >0</text>
<text x="40" y="320" style="text-anchor:middle;font-size:10px" >h</text>
<line x1="36" y1="310" x2="44" y2="310" style="stroke:#444;stroke-width:1.2" />
<text x="50" y="315" style="text-anchor:middle;font-size:10px" >2</text>
<text x="40" y="320" style="text-anchor:middle;font-size:10px" >h</text>
<line x1="36" y1="310" x2="44" y2="310" style="stroke:#444;stroke-width:1.2" />
<text x="50" y="315" style="text-anchor:middle;font-size:10px" >2</text>
<text x="50" y="295" style="text-anchor:middle;font-size:10px" >1</text>
<text x="70" y="305" style="text-anchor:middle;font-size:10px" >0</text>
<text x="90" y="285" style="text-anchor:middle;font-size:10px" >2</text>
<text x="110" y="305" style="text-anchor:middle;font-size:10px" >2</text>
<text x="120" y="310" style="text-anchor:middle;font-size:10px" >p</text>
<line x1="116" y1="300" x2="124" y2="300" style="stroke:#444;stroke-width:1.2" />
<text x="130" y="305" style="text-anchor:middle;font-size:10px" >0</text>
<text x="120" y="310" style="text-anchor:middle;font-size:10px" >p</text>
<line x1="116" y1="300" x2="124" y2="300" style="stroke:#444;stroke-width:1.2" />
<text x="130" y="305" style="text-anchor:middle;font-size:10px" >0</text>
<text x="130" y="295" style="text-anchor:middle;font-size:10px" >1</text>
<text x="150" y="315" style="text-anchor:middle;font-size:10px" >2</text>
<text x="170" y="285" style="text-anchor:middle;font-size:10px" >2</text>
<line x1="20" y1="280" x2="20" y2="320" style="stroke:#bbb;stroke-width:1" />
<text x="180" y="270" >F</text>
<line x1="180" y1="280" x2="340" y2="280" style="stroke:#bbb;stroke-width:1" />
<line x1="180" y1="290" x2="340" y2="290" style="stroke:#bbb;stroke-width:1" />
<line x1="180" y1="300" x2="340" y2="300" style="stroke:#bbb;stroke-width:1" />
<line x1="180" y1="310" x2="340" y2="310" style="stroke:#bbb;stroke-width:1" />
<line x1="180" y1="320" x2="340" y2="320" style="stroke:#bbb;stroke-width:1" />
<text x="190" y="315" style="text-anchor:middle;font-size:10px" >2</text>
<text x="200" y="320" style="text-anchor:middle;font-size:10px" >h</text>
<line x1="196" y1="310" x2="204" y2="310" style="stroke:#444;stroke-width:1.2" />
<text x="210" y="315" style="text-anchor:middle;font-size:10px" >3</text>
<text x="200" y="320" style="text-anchor:middle;font-size:10px" >h</text>
<line x1="196" y1="310" x2="204" y2="310" style="stroke:#444;stroke-width:1.2" />
<text x="210" y="315" style="text-anchor:middle;font-size:10px" >3</text>
<text x="0" y="0" style="text-anchor:middle;font-size:10px" ></text>
<text x="230" y="315" style="text-anchor:middle;font-size:10px" >3</text>
<text x="250" y="305" style="text-anchor:middle;font-size:10px" >x</text>
<text x="270" y="285" style="text-anchor:middle;font-size:10px" >3</text>
<text x="290" y="305" style="text-anchor:middle;font-size:10px" >2</text>
<text x="310" y="295" style="text-anchor:middle;font-size:10px" >1</text>
<text x="330" y="285" style="text-anchor:middle;font-size:10px" >3</text>
<line x1="180" y1="280" x2="180" y2="320" style="stroke:#bbb;stroke-width:1" />
<text x="340" y="270" >F</text>
<line x1="340" y1="280" x2="500" y2="280" style="stroke:#bbb;stroke-width:1" />
<line x1="340" y1="290" x2="500" y2="290" style="stroke:#bbb;stroke-width:1" />
<line x1="340" y1="300" x2="500" y2="300" style="stroke:#bbb;stroke-width:1" />
<line x1="340" y1="310" x2="500" y2="310" style="stroke:#bbb;stroke-width:1" />
<line x1="340" y1="320" x2="500" y2="320" style="stroke:#bbb;stroke-width:1" />
<text x="350" y="315" style="text-anchor:middle;font-size:10px" >3</text>
<text x="370" y="285" style="text-anchor:middle;font-size:10px" >3</text>
<text x="370" y="295" style="text-anchor:middle;font-size:10px" >1</text>
<text x="390" y="305" style="text-anchor:middle;font-size:10px" >0</text>
<text x="400" y="310" style="text-anchor:middle;font-size:10px" >h</text>
<line x1="396" y1="300" x2="404" y2="300" style="stroke:#444;stroke-width:1.2" />
<text x="410" y="305" style="text-anchor:middle;font-size:10px" >2</text>
<text x="400" y="310" style="text-anchor:middle;font-size:10px" >h</text>
<line x1="396" y1="300" x2="404" y2="300" style="stroke:#444;stroke-width:1.2" />
<text x="410" y="305" style="text-anchor:middle;font-size:10px" >2</text>
<text x="410" y="295" style="text-anchor:middle;font-size:10px" >1</text>
<text x="430" y="285" style="text-anchor:middle;font-size:10px" >3</text>
<text x="450" y="295" style="text-anchor:middle;font-size:10px" >1</text>
<text x="470" y="305" style="text-anchor:middle;font-size:10px" >2</text>
<text x="490" y="285" style="text-anchor:middle;font-size:10px" >3</text>
<line x1="340" y1="280" x2="340" y2="320" style="stroke:#bbb;stroke-width:1" />
<line x1="500" y1="280" x2="500" y2="320" style="stroke:#bbb;stroke-width:1" />
<text x="20" y="340" >C Bridge</text>
<line x1="20" y1="350" x2="180" y2="350" style="stroke:#bbb;stroke-width:1" />
<line x1="20" y1="360" x2="180" y2="360" style="stroke:#bbb;stroke-width:1" />
<line x1="20" y1="370" x2="180" y2="370" style="stroke:#bbb;stroke-width:1" />
<line x1="20" y1="380" x2="180" y2="380" style="stroke:#bbb;stroke-width:1" />
<line x1="20" y1="390" x2="180" y2="390" style="stroke:#bbb;stroke-width:1" />
<text x="30" y="385" style="text-anchor:middle;font-size:10px" >0</text>
<text x="40" y="390" style="text-anchor:middle;font-size:10px" >h</text>
<line x1="36" y1="380" x2="44" y2="380" style="stroke:#444;stroke-width:1.2" />
<text x="50" y="385" style="text-anchor:middle;font-size:10px" >2</text>
<text x="40" y="390" style="text-anchor:middle;font-size:10px" >h</text>
<line x1="36" y1="380" x2="44" y2="380" style="stroke:#444;stroke-width:1.2" />
<text x="50" y="385" style="text-anchor:middle;font-size:10px" >2</text>
<text x="0" y="0" style="text-anchor:middle;font-size:10px" ></text>
<text x="70" y="375" style="text-anchor:middle;font-size:10px" >x</text>
<text x="110" y="365" style="text-anchor:middle;font-size:10px" >1</text>
<text x="110" y="355" style="text-anchor:middle;font-size:10px" >2</text>
<text x="150" y="375" style="text-anchor:middle;font-size:10px" >x</text>
<line x1="20" y1="350" x2="20" y2="390" style="stroke:#bbb;stroke-width:1" />
<text x="180" y="340" >C</text>
<line x1="180" y1="350" x2="340" y2="350" style="stroke:#bbb;stroke-width:1" />
<line x1="180" y1="360" x2="340" y2="360" style="stroke:#bbb;stroke-width:1" />
<line x1="180" y1="370" x2="340" y2="370" style="stroke:#bbb;stroke-width:1" />
<line x1="180" y1="380" x2="340" y2="380" style="stroke:#bbb;stroke-width:1" />
<line x1="180" y1="390" x2="340" y2="390" style="stroke:#bbb;stroke-width:1" />
<text x="190" y="385" style="text-anchor:middle;font-size:10px" >0</text>
<text x="200" y="390" style="text-anchor:middle;font-size:10px" >h</text>
<line x1="196" y1="380" x2="204" y2="380" style="stroke:#444;stroke-width:1.2" />
<text x="210" y="385" style="text-anchor:middle;font-size:10px" >2</text>
<text x="200" y="390" style="text-anchor:middle;font-size:10px" >h</text>
<line x1="196" y1="380" x2="204" y2="380" style="stroke:#444;stroke-width:1.2" />
<text x="210" y="385" style="text-anchor:middle;font-size:10px" >2</text>
<text x="0" y="0" style="text-anchor:middle;font-size:10px" ></text>
<text x="230" y="365" style="text-anchor:middle;font-size:10px" >1</text>
<text x="230" y="355" style="text-anchor:middle;font-size:10px" >2</text>
<text x="270" y="375" style="text-anchor:middle;font-size:10px" >0</text>
<text x="280" y="380" style="text-anchor:middle;font-size:10px" >h</text>
<line x1="276" y1="370" x2="284" y2="370" style="stroke:#444;stroke-width:1.2" />
<text x="290" y="375" style="text-anchor:middle;font-size:10px" >2</text>
<text x="280" y="380" style="text-anchor:middle;font-size:10px" >h</text>
<line x1="276" y1="370" x2="284" y2="370" style="stroke:#444;stroke-width:1.2" />
<text x="290" y="375" style="text-anchor:middle;font-size:10px" >2</text>
<text x="0" y="0" style="text-anchor:middle;font-size:10px" ></text>
<text x="310" y="365" style="text-anchor:middle;font-size:10px" >1</text>
<text x="310" y="355" style="text-anchor:middle;font-size:10px" >2</text>
<line x1="180" y1="350" x2="180" y2="390" style="stroke:#bbb;stroke-width:1" />
<text x="340" y="340" >C 繰り返す</text>
<line x1="340" y1="350" x2="500" y2="350" style="stroke:#bbb;stroke-width:1" />
<line x1="340" y1="360" x2="500" y2="360" style="stroke:#bbb;stroke-width:1" />
<line x1="340" y1="370" x2="500" y2="370" style="stroke:#bbb;stroke-width:1" />
<line x1="340" y1="380" x2="500" y2="380" style="stroke:#bbb;stroke-width:1" />
<line x1="340" y1="390" x2="500" y2="390" style="stroke:#bbb;stroke-width:1" />
<text x="350" y="385" style="text-anchor:middle;font-size:10px" >0</text>
<text x="360" y="390" style="text-anchor:middle;font-size:10px" >h</text>
<line x1="356" y1="380" x2="364" y2="380" style="stroke:#444;stroke-width:1.2" />
<text x="370" y="385" style="text-anchor:middle;font-size:10px" >2</text>
<text x="360" y="390" style="text-anchor:middle;font-size:10px" >h</text>
<line x1="356" y1="380" x2="364" y2="380" style="stroke:#444;stroke-width:1.2" />
<text x="370" y="385" style="text-anchor:middle;font-size:10px" >2</text>
<text x="0" y="0" style="text-anchor:middle;font-size:10px" ></text>
<text x="390" y="375" style="text-anchor:middle;font-size:10px" >x</text>
<text x="430" y="365" style="text-anchor:middle;font-size:10px" >1</text>
<text x="430" y="355" style="text-anchor:middle;font-size:10px" >2</text>
<text x="470" y="375" style="text-anchor:middle;font-size:10px" >x</text>
<line x1="340" y1="350" x2="340" y2="390" style="stroke:#bbb;stroke-width:1" />
<text x="500" y="340" >C</text>
<line x1="500" y1="350" x2="660" y2="350" style="stroke:#bbb;stroke-width:1" />
<line x1="500" y1="360" x2="660" y2="360" style="stroke:#bbb;stroke-width:1" />
<line x1="500" y1="370" x2="660" y2="370" style="stroke:#bbb;stroke-width:1" />
<line x1="500" y1="380" x2="660" y2="380" style="stroke:#bbb;stroke-width:1" />
<line x1="500" y1="390" x2="660" y2="390" style="stroke:#bbb;stroke-width:1" />
<text x="510" y="385" style="text-anchor:middle;font-size:10px" >0</text>
<text x="520" y="390" style="text-anchor:middle;font-size:10px" >h</text>
<line x1="516" y1="380" x2="524" y2="380" style="stroke:#444;stroke-width:1.2" />
<text x="530" y="385" style="text-anchor:middle;font-size:10px" >2</text>
<text x="520" y="390" style="text-anchor:middle;font-size:10px" >h</text>
<line x1="516" y1="380" x2="524" y2="380" style="stroke:#444;stroke-width:1.2" />
<text x="530" y="385" style="text-anchor:middle;font-size:10px" >2</text>
<text x="0" y="0" style="text-anchor:middle;font-size:10px" ></text>
<text x="550" y="365" style="text-anchor:middle;font-size:10px" >1</text>
<text x="550" y="355" style="text-anchor:middle;font-size:10px" >2</text>
<text x="590" y="375" style="text-anchor:middle;font-size:10px" >0</text>
<text x="600" y="380" style="text-anchor:middle;font-size:10px" >h</text>
<line x1="596" y1="370" x2="604" y2="370" style="stroke:#444;stroke-width:1.2" />
<text x="610" y="375" style="text-anchor:middle;font-size:10px" >2</text>
<text x="600" y="380" style="text-anchor:middle;font-size:10px" >h</text>
<line x1="596" y1="370" x2="604" y2="370" style="stroke:#444;stroke-width:1.2" />
<text x="610" y="375" style="text-anchor:middle;font-size:10px" >2</text>
<text x="0" y="0" style="text-anchor:middle;font-size:10px" ></text>
<text x="630" y="365" style="text-anchor:middle;font-size:10px" >1</text>
<text x="630" y="355" style="text-anchor:middle;font-size:10px" >2</text>
<line x1="500" y1="350" x2="500" y2="390" style="stroke:#bbb;stroke-width:1" />
<text x="660" y="340" >C lead kickoff</text>
<line x1="660" y1="350" x2="820" y2="350" style="stroke:#bbb;stroke-width:1" />
<line x1="660" y1="360" x2="820" y2="360" style="stroke:#bbb;stroke-width:1" />
<line x1="660" y1="370" x2="820" y2="370" style="stroke:#bbb;stroke-width:1" />
<line x1="660" y1="380" x2="820" y2="380" style="stroke:#bbb;stroke-width:1" />
<line x1="660" y1="390" x2="820" y2="390" style="stroke:#bbb;stroke-width:1" />
<text x="670" y="385" style="text-anchor:middle;font-size:10px" >0</text>
<text x="680" y="390" style="text-anchor:middle;font-size:10px" >h</text>
<line x1="676" y1="380" x2="684" y2="380" style="stroke:#444;stroke-width:1.2" />
<text x="690" y="385" style="text-anchor:middle;font-size:10px" >2</text>
<text x="680" y="390" style="text-anchor:middle;font-size:10px" >h</text>
<line x1="676" y1="380" x2="684" y2="380" style="stroke:#444;stroke-width:1.2" />
<text x="690" y="385" style="text-anchor:middle;font-size:10px" >2</text>
<text x="0" y="0" style="text-anchor:middle;font-size:10px" ></text>
<text x="710" y="355" style="text-anchor:middle;font-size:10px" >0</text>
<text x="720" y="360" style="text-anchor:middle;font-size:10px" >h</text>
<line x1="716" y1="350" x2="724" y2="350" style="stroke:#444;stroke-width:1.2" />
<text x="730" y="355" style="text-anchor:middle;font-size:10px" >2</text>
<text x="720" y="360" style="text-anchor:middle;font-size:10px" >h</text>
<line x1="716" y1="350" x2="724" y2="350" style="stroke:#444;stroke-width:1.2" />
<text x="730" y="355" style="text-anchor:middle;font-size:10px" >2</text>
<text x="710" y="395" style="text-anchor:middle;font-size:10px" >0</text>
<text x="0" y="0" style="text-anchor:middle;font-size:10px" ></text>
<text x="750" y="355" style="text-anchor:middle;font-size:10px" >0</text>
<text x="750" y="395" style="text-anchor:middle;font-size:10px" >0</text>
<text x="790" y="365" style="text-anchor:middle;font-size:10px" >1</text>
<text x="790" y="395" style="text-anchor:middle;font-size:10px" >0</text>
<line x1="660" y1="350" x2="660" y2="390" style="stroke:#bbb;stroke-width:1" />
<line x1="820" y1="350" x2="820" y2="390" style="stroke:#bbb;stroke-width:1" />
<text x="20" y="410" >F lead</text>
<line x1="20" y1="420" x2="180" y2="420" style="stroke:#bbb;stroke-width:1" />
<line x1="20" y1="430" x2="180" y2="430" style="stroke:#bbb;stroke-width:1" />
<line x1="20" y1="440" x2="180" y2="440" style="stroke:#bbb;stroke-width:1" />
<line x1="20" y1="450" x2="180" y2="450" style="stroke:#bbb;stroke-width:1" />
<line x1="20" y1="460" x2="180" y2="460" style="stroke:#bbb;stroke-width:1" />
<text x="30" y="445" style="text-anchor:middle;font-size:10px" >0</text>
<text x="40" y="450" style="text-anchor:middle;font-size:10px" >h</text>
<line x1="36" y1="440" x2="44" y2="440" style="stroke:#444;stroke-width:1.2" />
<text x="50" y="445" style="text-anchor:middle;font-size:10px" >2</text>
<text x="40" y="450" style="text-anchor:middle;font-size:10px" >h</text>
<line x1="36" y1="440" x2="44" y2="440" style="stroke:#444;stroke-width:1.2" />
<text x="50" y="445" style="text-anchor:middle;font-size:10px" >2</text>
<text x="50" y="435" style="text-anchor:middle;font-size:10px" >1</text>
<text x="70" y="425" style="text-anchor:middle;font-size:10px" >3</text>
<text x="90" y="445" style="text-anchor:middle;font-size:10px" >2</text>
<text x="110" y="455" style="text-anchor:middle;font-size:10px" >1</text>
<text x="130" y="455" style="text-anchor:middle;font-size:10px" >2</text>
<text x="150" y="455" style="text-anchor:middle;font-size:10px" >3</text>
<text x="170" y="445" style="text-anchor:middle;font-size:10px" >0</text>
<line x1="20" y1="420" x2="20" y2="460" style="stroke:#bbb;stroke-width:1" />
<text x="180" y="410" >A</text>
<line x1="180" y1="420" x2="340" y2="420" style="stroke:#bbb;stroke-width:1" />
<line x1="180" y1="430" x2="340" y2="430" style="stroke:#bbb;stroke-width:1" />
<line x1="180" y1="440" x2="340" y2="440" style="stroke:#bbb;stroke-width:1" />
<line x1="180" y1="450" x2="340" y2="450" style="stroke:#bbb;stroke-width:1" />
<line x1="180" y1="460" x2="340" y2="460" style="stroke:#bbb;stroke-width:1" />
<text x="190" y="445" style="text-anchor:middle;font-size:10px" >2</text>
<text x="210" y="435" style="text-anchor:middle;font-size:10px" >2</text>
<text x="230" y="425" style="text-anchor:middle;font-size:10px" >2</text>
<text x="250" y="465" style="text-anchor:middle;font-size:10px" >0</text>
<text x="270" y="435" style="text-anchor:middle;font-size:10px" >6</text>
<text x="290" y="435" style="text-anchor:middle;font-size:10px" >5</text>
<text x="310" y="445" style="text-anchor:middle;font-size:10px" >6</text>
<text x="330" y="435" style="text-anchor:middle;font-size:10px" >5</text>
<line x1="180" y1="420" x2="180" y2="460" style="stroke:#bbb;stroke-width:1" />
<text x="340" y="410" >Dm</text>
<line x1="340" y1="420" x2="500" y2="420" style="stroke:#bbb;stroke-width:1" />
<line x1="340" y1="430" x2="500" y2="430" style="stroke:#bbb;stroke-width:1" />
<line x1="340" y1="440" x2="500" y2="440" style="stroke:#bbb;stroke-width:1" />
<line x1="340" y1="450" x2="500" y2="450" style="stroke:#bbb;stroke-width:1" />
<line x1="340" y1="460" x2="500" y2="460" style="stroke:#bbb;stroke-width:1" />
<text x="350" y="445" style="text-anchor:middle;font-size:10px" >6</text>
<text x="360" y="450" style="text-anchor:middle;font-size:10px" >s</text>
<line x1="356" y1="440" x2="364" y2="440" style="stroke:#444;stroke-width:1.2" />
<text x="370" y="445" style="text-anchor:middle;font-size:10px" >7</text>
<text x="360" y="450" style="text-anchor:middle;font-size:10px" >s</text>
<line x1="356" y1="440" x2="364" y2="440" style="stroke:#444;stroke-width:1.2" />
<text x="370" y="445" style="text-anchor:middle;font-size:10px" >7</text>
<text x="370" y="435" style="text-anchor:middle;font-size:10px" >6</text>
<text x="390" y="465" style="text-anchor:middle;font-size:10px" >0</text>
<text x="410" y="435" style="text-anchor:middle;font-size:10px" >10</text>
<text x="410" y="445" style="text-anchor:middle;font-size:10px" >(14)</text>
<text x="430" y="425" style="text-anchor:middle;font-size:10px" >12</text>
<text x="430" y="435" style="text-anchor:middle;font-size:10px" >(15)</text>
<text x="450" y="425" style="text-anchor:middle;font-size:10px" >17</text>
<text x="470" y="425" style="text-anchor:middle;font-size:10px" >15</text>
<text x="490" y="425" style="text-anchor:middle;font-size:10px" >14</text>
<line x1="340" y1="420" x2="340" y2="460" style="stroke:#bbb;stroke-width:1" />
<text x="500" y="410" >G/B</text>
<line x1="500" y1="420" x2="660" y2="420" style="stroke:#bbb;stroke-width:1" />
<line x1="500" y1="430" x2="660" y2="430" style="stroke:#bbb;stroke-width:1" />
<line x1="500" y1="440" x2="660" y2="440" style="stroke:#bbb;stroke-width:1" />
<line x1="500" y1="450" x2="660" y2="450" style="stroke:#bbb;stroke-width:1" />
<line x1="500" y1="460" x2="660" y2="460" style="stroke:#bbb;stroke-width:1" />
<text x="510" y="435" style="text-anchor:middle;font-size:10px" >15</text>
<text x="530" y="435" style="text-anchor:middle;font-size:10px" >13</text>
<text x="550" y="465" style="text-anchor:middle;font-size:10px" >0</text>
<text x="570" y="435" style="text-anchor:middle;font-size:10px" >12</text>
<text x="590" y="435" style="text-anchor:middle;font-size:10px" >10</text>
<text x="610" y="465" style="text-anchor:middle;font-size:10px" >0</text>
<text x="630" y="435" style="text-anchor:middle;font-size:10px" >6</text>
<text x="650" y="425" style="text-anchor:middle;font-size:10px" >0</text>
<line x1="500" y1="420" x2="500" y2="460" style="stroke:#bbb;stroke-width:1" />
<line x1="660" y1="420" x2="660" y2="460" style="stroke:#bbb;stroke-width:1" />
<text x="20" y="480" >C</text>
<line x1="20" y1="490" x2="180" y2="490" style="stroke:#bbb;stroke-width:1" />
<line x1="20" y1="500" x2="180" y2="500" style="stroke:#bbb;stroke-width:1" />
<line x1="20" y1="510" x2="180" y2="510" style="stroke:#bbb;stroke-width:1" />
<line x1="20" y1="520" x2="180" y2="520" style="stroke:#bbb;stroke-width:1" />
<line x1="20" y1="530" x2="180" y2="530" style="stroke:#bbb;stroke-width:1" />
<text x="30" y="505" style="text-anchor:middle;font-size:10px" >5</text>
<text x="70" y="505" style="text-anchor:middle;font-size:10px" >5</text>
<text x="90" y="515" style="text-anchor:middle;font-size:10px" >5</text>
<text x="110" y="535" style="text-anchor:middle;font-size:10px" >0</text>
<text x="130" y="505" style="text-anchor:middle;font-size:10px" >5</text>
<text x="150" y="495" style="text-anchor:middle;font-size:10px" >6</text>
<text x="170" y="535" style="text-anchor:middle;font-size:10px" >0</text>
<line x1="20" y1="490" x2="20" y2="530" style="stroke:#bbb;stroke-width:1" />
<text x="180" y="480" >F</text>
<line x1="180" y1="490" x2="340" y2="490" style="stroke:#bbb;stroke-width:1" />
<line x1="180" y1="500" x2="340" y2="500" style="stroke:#bbb;stroke-width:1" />
<line x1="180" y1="510" x2="340" y2="510" style="stroke:#bbb;stroke-width:1" />
<line x1="180" y1="520" x2="340" y2="520" style="stroke:#bbb;stroke-width:1" />
<line x1="180" y1="530" x2="340" y2="530" style="stroke:#bbb;stroke-width:1" />
<text x="190" y="495" style="text-anchor:middle;font-size:10px" >6</text>
<text x="200" y="500" style="text-anchor:middle;font-size:10px" >s</text>
<line x1="196" y1="490" x2="204" y2="490" style="stroke:#444;stroke-width:1.2" />
<text x="210" y="495" style="text-anchor:middle;font-size:10px" >7</text>
<text x="200" y="500" style="text-anchor:middle;font-size:10px" >s</text>
<line x1="196" y1="490" x2="204" y2="490" style="stroke:#444;stroke-width:1.2" />
<text x="210" y="495" style="text-anchor:middle;font-size:10px" >7</text>
<text x="0" y="0" style="text-anchor:middle;font-size:10px" ></text>
<text x="230" y="535" style="text-anchor:middle;font-size:10px" >0</text>
<text x="250" y="505" style="text-anchor:middle;font-size:10px" >6</text>
<text x="270" y="495" style="text-anchor:middle;font-size:10px" >7</text>
<text x="290" y="535" style="text-anchor:middle;font-size:10px" >0</text>
<text x="310" y="505" style="text-anchor:middle;font-size:10px" >6</text>
<text x="320" y="510" style="text-anchor:middle;font-size:10px" >s</text>
<line x1="316" y1="500" x2="324" y2="500" style="stroke:#444;stroke-width:1.2" />
<text x="330" y="505" style="text-anchor:middle;font-size:10px" >10</text>
<text x="320" y="510" style="text-anchor:middle;font-size:10px" >s</text>
<line x1="316" y1="500" x2="324" y2="500" style="stroke:#444;stroke-width:1.2" />
<text x="330" y="505" style="text-anchor:middle;font-size:10px" >10</text>
<text x="330" y="495" style="text-anchor:middle;font-size:10px" >10</text>
<line x1="180" y1="490" x2="180" y2="530" style="stroke:#bbb;stroke-width:1" />
<text x="340" y="480" >F</text>
<line x1="340" y1="490" x2="500" y2="490" style="stroke:#bbb;stroke-width:1" />
<line x1="340" y1="500" x2="500" y2="500" style="stroke:#bbb;stroke-width:1" />
<line x1="340" y1="510" x2="500" y2="510" style="stroke:#bbb;stroke-width:1" />
<line x1="340" y1="520" x2="500" y2="520" style="stroke:#bbb;stroke-width:1" />
<line x1="340" y1="530" x2="500" y2="530" style="stroke:#bbb;stroke-width:1" />
<text x="350" y="535" style="text-anchor:middle;font-size:10px" >0</text>
<text x="370" y="505" style="text-anchor:middle;font-size:10px" >6</text>
<text x="390" y="495" style="text-anchor:middle;font-size:10px" >7</text>
<text x="410" y="535" style="text-anchor:middle;font-size:10px" >0</text>
<text x="430" y="495" style="text-anchor:middle;font-size:10px" >5</text>
<text x="470" y="495" style="text-anchor:middle;font-size:10px" >3</text>
<text x="470" y="505" style="text-anchor:middle;font-size:10px" >1</text>
<line x1="340" y1="490" x2="340" y2="530" style="stroke:#bbb;stroke-width:1" />
</svg>
