<?xml version="1.0"?>
<!-- Generated by SVGo -->
<svg width="1000" height="1000"
     xmlns="http://www.w3.org/2000/svg"
     xmlns:xlink="http://www.w3.org/1999/xlink">
<text x="20" y="20" style="font-size:25;" >Sweet Caroline 間奏</text>
<text x="20" y="40" style="font-size:12;" >key of C</text>
<text x="20" y="60" >B</text>
<line x1="20" y1="70" x2="260" y2="70" style="stroke:#bbb;stroke-width:1" />
<line x1="20" y1="80" x2="260" y2="80" style="stroke:#bbb;stroke-width:1" />
<line x1="20" y1="90" x2="260" y2="90" style="stroke:#bbb;stroke-width:1" />
<line x1="20" y1="100" x2="260" y2="100" style="stroke:#bbb;stroke-width:1" />
<line x1="20" y1="110" x2="260" y2="110" style="stroke:#bbb;stroke-width:1" />
<line x1="20" y1="120" x2="260" y2="120" style="stroke:#bbb;stroke-width:1" />
<text x="30" y="105" style="text-anchor:middle;font-size:10px" >0</text>
<text x="70" y="105" style="text-anchor:middle;font-size:10px" >2</text>
<text x="90" y="105" style="text-anchor:middle;font-size:10px" >3</text>
<text x="130" y="105" style="text-anchor:middle;font-size:10px" >x</text>
<text x="150" y="105" style="text-anchor:middle;font-size:10px" >x</text>
<text x="210" y="105" style="text-anchor:middle;font-size:10px" >0</text>
<text x="250" y="105" style="text-anchor:middle;font-size:10px" >2</text>
<line x1="20" y1="70" x2="20" y2="120" style="stroke:#bbb;stroke-width:1" />
<text x="260" y="60" >B</text>
<line x1="260" y1="70" x2="500" y2="70" style="stroke:#bbb;stroke-width:1" />
<line x1="260" y1="80" x2="500" y2="80" style="stroke:#bbb;stroke-width:1" />
<line x1="260" y1="90" x2="500" y2="90" style="stroke:#bbb;stroke-width:1" />
<line x1="260" y1="100" x2="500" y2="100" style="stroke:#bbb;stroke-width:1" />
<line x1="260" y1="110" x2="500" y2="110" style="stroke:#bbb;stroke-width:1" />
<line x1="260" y1="120" x2="500" y2="120" style="stroke:#bbb;stroke-width:1" />
<text x="270" y="105" style="text-anchor:middle;font-size:10px" >3</text>
<text x="310" y="105" style="text-anchor:middle;font-size:10px" >2</text>
<text x="330" y="105" style="text-anchor:middle;font-size:10px" >0</text>
<text x="370" y="105" style="text-anchor:middle;font-size:10px" >x</text>
<text x="390" y="105" style="text-anchor:middle;font-size:10px" >3</text>
<text x="430" y="105" style="text-anchor:middle;font-size:10px" >2</text>
<text x="450" y="105" style="text-anchor:middle;font-size:10px" >0</text>
<text x="490" y="105" style="text-anchor:middle;font-size:10px" >x</text>
<line x1="260" y1="70" x2="260" y2="120" style="stroke:#bbb;stroke-width:1" />
<text x="500" y="60" >B</text>
<line x1="500" y1="70" x2="740" y2="70" style="stroke:#bbb;stroke-width:1" />
<line x1="500" y1="80" x2="740" y2="80" style="stroke:#bbb;stroke-width:1" />
<line x1="500" y1="90" x2="740" y2="90" style="stroke:#bbb;stroke-width:1" />
<line x1="500" y1="100" x2="740" y2="100" style="stroke:#bbb;stroke-width:1" />
<line x1="500" y1="110" x2="740" y2="110" style="stroke:#bbb;stroke-width:1" />
<line x1="500" y1="120" x2="740" y2="120" style="stroke:#bbb;stroke-width:1" />
<text x="510" y="105" style="text-anchor:middle;font-size:10px" >0</text>
<text x="550" y="105" style="text-anchor:middle;font-size:10px" >2</text>
<text x="570" y="105" style="text-anchor:middle;font-size:10px" >3</text>
<text x="610" y="105" style="text-anchor:middle;font-size:10px" >x</text>
<text x="630" y="105" style="text-anchor:middle;font-size:10px" >x</text>
<text x="690" y="105" style="text-anchor:middle;font-size:10px" >0</text>
<text x="730" y="105" style="text-anchor:middle;font-size:10px" >2</text>
<line x1="500" y1="70" x2="500" y2="120" style="stroke:#bbb;stroke-width:1" />
<text x="740" y="60" >B</text>
<line x1="740" y1="70" x2="980" y2="70" style="stroke:#bbb;stroke-width:1" />
<line x1="740" y1="80" x2="980" y2="80" style="stroke:#bbb;stroke-width:1" />
<line x1="740" y1="90" x2="980" y2="90" style="stroke:#bbb;stroke-width:1" />
<line x1="740" y1="100" x2="980" y2="100" style="stroke:#bbb;stroke-width:1" />
<line x1="740" y1="110" x2="980" y2="110" style="stroke:#bbb;stroke-width:1" />
<line x1="740" y1="120" x2="980" y2="120" style="stroke:#bbb;stroke-width:1" />
<text x="750" y="105" style="text-anchor:middle;font-size:10px" >3</text>
<text x="790" y="105" style="text-anchor:middle;font-size:10px" >2</text>
<text x="810" y="105" style="text-anchor:middle;font-size:10px" >0</text>
<text x="850" y="105" style="text-anchor:middle;font-size:10px" >x</text>
<text x="870" y="105" style="text-anchor:middle;font-size:10px" >3</text>
<text x="910" y="105" style="text-anchor:middle;font-size:10px" >2</text>
<text x="930" y="105" style="text-anchor:middle;font-size:10px" >0</text>
<text x="970" y="105" style="text-anchor:middle;font-size:10px" >x</text>
<line x1="740" y1="70" x2="740" y2="120" style="stroke:#bbb;stroke-width:1" />
<line x1="980" y1="70" x2="980" y2="120" style="stroke:#bbb;stroke-width:1" />
<text x="20" y="140" >B</text>
<line x1="20" y1="150" x2="260" y2="150" style="stroke:#bbb;stroke-width:1" />
<line x1="20" y1="160" x2="260" y2="160" style="stroke:#bbb;stroke-width:1" />
<line x1="20" y1="170" x2="260" y2="170" style="stroke:#bbb;stroke-width:1" />
<line x1="20" y1="180" x2="260" y2="180" style="stroke:#bbb;stroke-width:1" />
<line x1="20" y1="190" x2="260" y2="190" style="stroke:#bbb;stroke-width:1" />
<line x1="20" y1="200" x2="260" y2="200" style="stroke:#bbb;stroke-width:1" />
<text x="30" y="185" style="text-anchor:middle;font-size:10px" >0</text>
<text x="70" y="185" style="text-anchor:middle;font-size:10px" >2</text>
<text x="90" y="185" style="text-anchor:middle;font-size:10px" >3</text>
<text x="130" y="185" style="text-anchor:middle;font-size:10px" >x</text>
<text x="150" y="185" style="text-anchor:middle;font-size:10px" >x</text>
<text x="210" y="185" style="text-anchor:middle;font-size:10px" >0</text>
<text x="250" y="185" style="text-anchor:middle;font-size:10px" >2</text>
<line x1="20" y1="150" x2="20" y2="200" style="stroke:#bbb;stroke-width:1" />
<text x="260" y="140" >B</text>
<line x1="260" y1="150" x2="500" y2="150" style="stroke:#bbb;stroke-width:1" />
<line x1="260" y1="160" x2="500" y2="160" style="stroke:#bbb;stroke-width:1" />
<line x1="260" y1="170" x2="500" y2="170" style="stroke:#bbb;stroke-width:1" />
<line x1="260" y1="180" x2="500" y2="180" style="stroke:#bbb;stroke-width:1" />
<line x1="260" y1="190" x2="500" y2="190" style="stroke:#bbb;stroke-width:1" />
<line x1="260" y1="200" x2="500" y2="200" style="stroke:#bbb;stroke-width:1" />
<text x="270" y="175" style="text-anchor:middle;font-size:10px" >2</text>
<text x="310" y="175" style="text-anchor:middle;font-size:10px" >x</text>
<text x="330" y="175" style="text-anchor:middle;font-size:10px" >x</text>
<text x="370" y="175" style="text-anchor:middle;font-size:10px" >x</text>
<text x="390" y="175" style="text-anchor:middle;font-size:10px" >0</text>
<text x="430" y="175" style="text-anchor:middle;font-size:10px" >x</text>
<text x="450" y="175" style="text-anchor:middle;font-size:10px" >x</text>
<text x="490" y="175" style="text-anchor:middle;font-size:10px" >x</text>
<line x1="260" y1="150" x2="260" y2="200" style="stroke:#bbb;stroke-width:1" />
<text x="500" y="140" >B stroke</text>
<line x1="500" y1="150" x2="740" y2="150" style="stroke:#bbb;stroke-width:1" />
<line x1="500" y1="160" x2="740" y2="160" style="stroke:#bbb;stroke-width:1" />
<line x1="500" y1="170" x2="740" y2="170" style="stroke:#bbb;stroke-width:1" />
<line x1="500" y1="180" x2="740" y2="180" style="stroke:#bbb;stroke-width:1" />
<line x1="500" y1="190" x2="740" y2="190" style="stroke:#bbb;stroke-width:1" />
<line x1="500" y1="200" x2="740" y2="200" style="stroke:#bbb;stroke-width:1" />
<text x="510" y="155" style="text-anchor:middle;font-size:10px" >3</text>
<text x="510" y="165" style="text-anchor:middle;font-size:10px" >0</text>
<text x="510" y="175" style="text-anchor:middle;font-size:10px" >0</text>
<text x="510" y="185" style="text-anchor:middle;font-size:10px" >0</text>
<text x="510" y="195" style="text-anchor:middle;font-size:10px" >2</text>
<text x="510" y="205" style="text-anchor:middle;font-size:10px" >3</text>
<text x="550" y="175" style="text-anchor:middle;font-size:10px" >x</text>
<text x="570" y="155" style="text-anchor:middle;font-size:10px" >3</text>
<text x="570" y="165" style="text-anchor:middle;font-size:10px" >0</text>
<text x="570" y="175" style="text-anchor:middle;font-size:10px" >0</text>
<text x="570" y="185" style="text-anchor:middle;font-size:10px" >0</text>
<text x="570" y="195" style="text-anchor:middle;font-size:10px" >2</text>
<text x="570" y="205" style="text-anchor:middle;font-size:10px" >3</text>
<text x="610" y="155" style="text-anchor:middle;font-size:10px" >3</text>
<text x="610" y="165" style="text-anchor:middle;font-size:10px" >0</text>
<text x="610" y="175" style="text-anchor:middle;font-size:10px" >0</text>
<text x="610" y="185" style="text-anchor:middle;font-size:10px" >0</text>
<text x="610" y="195" style="text-anchor:middle;font-size:10px" >2</text>
<text x="610" y="205" style="text-anchor:middle;font-size:10px" >3</text>
<text x="630" y="155" style="text-anchor:middle;font-size:10px" >3</text>
<text x="630" y="165" style="text-anchor:middle;font-size:10px" >0</text>
<text x="630" y="175" style="text-anchor:middle;font-size:10px" >0</text>
<text x="630" y="185" style="text-anchor:middle;font-size:10px" >0</text>
<text x="630" y="195" style="text-anchor:middle;font-size:10px" >2</text>
<text x="630" y="205" style="text-anchor:middle;font-size:10px" >3</text>
<text x="670" y="175" style="text-anchor:middle;font-size:10px" >x</text>
<text x="690" y="155" style="text-anchor:middle;font-size:10px" >3</text>
<text x="690" y="165" style="text-anchor:middle;font-size:10px" >0</text>
<text x="690" y="175" style="text-anchor:middle;font-size:10px" >0</text>
<text x="690" y="185" style="text-anchor:middle;font-size:10px" >0</text>
<text x="690" y="195" style="text-anchor:middle;font-size:10px" >2</text>
<text x="690" y="205" style="text-anchor:middle;font-size:10px" >3</text>
<text x="730" y="175" style="text-anchor:middle;font-size:10px" >x</text>
<line x1="500" y1="150" x2="500" y2="200" style="stroke:#bbb;stroke-width:1" />
</svg>
