<?xml version="1.0"?>
<!-- Generated by SVGo -->
<svg width="1000" height="1000"
     xmlns="http://www.w3.org/2000/svg"
     xmlns:xlink="http://www.w3.org/1999/xlink">
<text x="20" y="20" style="font-size:25;" >Sweet Caroline コード解説</text>
<text x="20" y="40" style="font-size:12;" >key of C</text>
<text x="20" y="60" >G 1弦小指、5弦中指、6弦薬指で押さえる</text>
<line x1="20" y1="70" x2="180" y2="70" style="stroke:#bbb;stroke-width:1" />
<line x1="20" y1="80" x2="180" y2="80" style="stroke:#bbb;stroke-width:1" />
<line x1="20" y1="90" x2="180" y2="90" style="stroke:#bbb;stroke-width:1" />
<line x1="20" y1="100" x2="180" y2="100" style="stroke:#bbb;stroke-width:1" />
<line x1="20" y1="110" x2="180" y2="110" style="stroke:#bbb;stroke-width:1" />
<line x1="20" y1="120" x2="180" y2="120" style="stroke:#bbb;stroke-width:1" />
<text x="30" y="105" style="text-anchor:middle;font-size:10px" >x</text>
<text x="50" y="115" style="text-anchor:middle;font-size:10px" >2</text>
<text x="70" y="75" style="text-anchor:middle;font-size:10px" >3</text>
<text x="70" y="125" style="text-anchor:middle;font-size:10px" >3</text>
<line x1="20" y1="70" x2="20" y2="120" style="stroke:#bbb;stroke-width:1" />
<text x="180" y="60" ></text>
<line x1="180" y1="70" x2="260" y2="70" style="stroke:#bbb;stroke-width:1" />
<line x1="180" y1="80" x2="260" y2="80" style="stroke:#bbb;stroke-width:1" />
<line x1="180" y1="90" x2="260" y2="90" style="stroke:#bbb;stroke-width:1" />
<line x1="180" y1="100" x2="260" y2="100" style="stroke:#bbb;stroke-width:1" />
<line x1="180" y1="110" x2="260" y2="110" style="stroke:#bbb;stroke-width:1" />
<line x1="180" y1="120" x2="260" y2="120" style="stroke:#bbb;stroke-width:1" />
<text x="0" y="0" style="text-anchor:middle;font-size:10px" ></text>
<line x1="180" y1="70" x2="180" y2="120" style="stroke:#bbb;stroke-width:1" />
<text x="20" y="140" >C 2弦人差し指、4弦中指、5弦薬指。　←のように押さえることでほとんど指を動かさずG⇔Cのコードチェンジできる</text>
<line x1="20" y1="150" x2="180" y2="150" style="stroke:#bbb;stroke-width:1" />
<line x1="20" y1="160" x2="180" y2="160" style="stroke:#bbb;stroke-width:1" />
<line x1="20" y1="170" x2="180" y2="170" style="stroke:#bbb;stroke-width:1" />
<line x1="20" y1="180" x2="180" y2="180" style="stroke:#bbb;stroke-width:1" />
<line x1="20" y1="190" x2="180" y2="190" style="stroke:#bbb;stroke-width:1" />
<line x1="20" y1="200" x2="180" y2="200" style="stroke:#bbb;stroke-width:1" />
<text x="30" y="165" style="text-anchor:middle;font-size:10px" >1</text>
<text x="50" y="185" style="text-anchor:middle;font-size:10px" >2</text>
<text x="70" y="195" style="text-anchor:middle;font-size:10px" >3</text>
<line x1="20" y1="150" x2="20" y2="200" style="stroke:#bbb;stroke-width:1" />
<text x="180" y="140" ></text>
<line x1="180" y1="150" x2="260" y2="150" style="stroke:#bbb;stroke-width:1" />
<line x1="180" y1="160" x2="260" y2="160" style="stroke:#bbb;stroke-width:1" />
<line x1="180" y1="170" x2="260" y2="170" style="stroke:#bbb;stroke-width:1" />
<line x1="180" y1="180" x2="260" y2="180" style="stroke:#bbb;stroke-width:1" />
<line x1="180" y1="190" x2="260" y2="190" style="stroke:#bbb;stroke-width:1" />
<line x1="180" y1="200" x2="260" y2="200" style="stroke:#bbb;stroke-width:1" />
<text x="0" y="0" style="text-anchor:middle;font-size:10px" ></text>
<line x1="180" y1="150" x2="180" y2="200" style="stroke:#bbb;stroke-width:1" />
<line x1="260" y1="150" x2="260" y2="200" style="stroke:#bbb;stroke-width:1" />
<text x="20" y="220" >D7 1弦薬指、2弦人差し指、</text>
<line x1="20" y1="230" x2="180" y2="230" style="stroke:#bbb;stroke-width:1" />
<line x1="20" y1="240" x2="180" y2="240" style="stroke:#bbb;stroke-width:1" />
<line x1="20" y1="250" x2="180" y2="250" style="stroke:#bbb;stroke-width:1" />
<line x1="20" y1="260" x2="180" y2="260" style="stroke:#bbb;stroke-width:1" />
<line x1="20" y1="270" x2="180" y2="270" style="stroke:#bbb;stroke-width:1" />
<line x1="20" y1="280" x2="180" y2="280" style="stroke:#bbb;stroke-width:1" />
<text x="30" y="245" style="text-anchor:middle;font-size:10px" >1</text>
<text x="50" y="235" style="text-anchor:middle;font-size:10px" >2</text>
<text x="50" y="255" style="text-anchor:middle;font-size:10px" >2</text>
<text x="70" y="245" style="text-anchor:middle;font-size:10px" >(3)</text>
<line x1="20" y1="230" x2="20" y2="280" style="stroke:#bbb;stroke-width:1" />
<text x="180" y="220" >7thにすることでG,Cとの切り替えが簡単。7thではなく引きたいなら1フレットではなく()のフレットを押さえる</text>
<line x1="180" y1="230" x2="260" y2="230" style="stroke:#bbb;stroke-width:1" />
<line x1="180" y1="240" x2="260" y2="240" style="stroke:#bbb;stroke-width:1" />
<line x1="180" y1="250" x2="260" y2="250" style="stroke:#bbb;stroke-width:1" />
<line x1="180" y1="260" x2="260" y2="260" style="stroke:#bbb;stroke-width:1" />
<line x1="180" y1="270" x2="260" y2="270" style="stroke:#bbb;stroke-width:1" />
<line x1="180" y1="280" x2="260" y2="280" style="stroke:#bbb;stroke-width:1" />
<text x="0" y="0" style="text-anchor:middle;font-size:10px" ></text>
<line x1="180" y1="230" x2="180" y2="280" style="stroke:#bbb;stroke-width:1" />
<line x1="260" y1="230" x2="260" y2="280" style="stroke:#bbb;stroke-width:1" />
<text x="20" y="300" >Em 4弦中指、5弦人差し指。サビの&#34;O,O,Oh~&#34;でCと往復するため、5弦は薬指のほうが簡単かも？()は押さえなくてもいいが難しくないので押さえる。押さえないとEm7のコードになる。</text>
<line x1="20" y1="310" x2="180" y2="310" style="stroke:#bbb;stroke-width:1" />
<line x1="20" y1="320" x2="180" y2="320" style="stroke:#bbb;stroke-width:1" />
<line x1="20" y1="330" x2="180" y2="330" style="stroke:#bbb;stroke-width:1" />
<line x1="20" y1="340" x2="180" y2="340" style="stroke:#bbb;stroke-width:1" />
<line x1="20" y1="350" x2="180" y2="350" style="stroke:#bbb;stroke-width:1" />
<line x1="20" y1="360" x2="180" y2="360" style="stroke:#bbb;stroke-width:1" />
<text x="30" y="345" style="text-anchor:middle;font-size:10px" >x</text>
<text x="50" y="355" style="text-anchor:middle;font-size:10px" >2</text>
<text x="50" y="345" style="text-anchor:middle;font-size:10px" >(2)</text>
<line x1="20" y1="310" x2="20" y2="360" style="stroke:#bbb;stroke-width:1" />
<text x="180" y="300" ></text>
<line x1="180" y1="310" x2="260" y2="310" style="stroke:#bbb;stroke-width:1" />
<line x1="180" y1="320" x2="260" y2="320" style="stroke:#bbb;stroke-width:1" />
<line x1="180" y1="330" x2="260" y2="330" style="stroke:#bbb;stroke-width:1" />
<line x1="180" y1="340" x2="260" y2="340" style="stroke:#bbb;stroke-width:1" />
<line x1="180" y1="350" x2="260" y2="350" style="stroke:#bbb;stroke-width:1" />
<line x1="180" y1="360" x2="260" y2="360" style="stroke:#bbb;stroke-width:1" />
<text x="0" y="0" style="text-anchor:middle;font-size:10px" ></text>
<line x1="180" y1="310" x2="180" y2="360" style="stroke:#bbb;stroke-width:1" />
<line x1="260" y1="310" x2="260" y2="360" style="stroke:#bbb;stroke-width:1" />
<text x="20" y="380" >C　　　　Em　　　C　　　C</text>
<line x1="20" y1="390" x2="180" y2="390" style="stroke:#bbb;stroke-width:1" />
<line x1="20" y1="400" x2="180" y2="400" style="stroke:#bbb;stroke-width:1" />
<line x1="20" y1="410" x2="180" y2="410" style="stroke:#bbb;stroke-width:1" />
<line x1="20" y1="420" x2="180" y2="420" style="stroke:#bbb;stroke-width:1" />
<line x1="20" y1="430" x2="180" y2="430" style="stroke:#bbb;stroke-width:1" />
<line x1="20" y1="440" x2="180" y2="440" style="stroke:#bbb;stroke-width:1" />
<text x="30" y="405" style="text-anchor:middle;font-size:10px" >1</text>
<text x="30" y="425" style="text-anchor:middle;font-size:10px" >2</text>
<text x="30" y="435" style="text-anchor:middle;font-size:10px" >3</text>
<text x="70" y="425" style="text-anchor:middle;font-size:10px" >2</text>
<text x="70" y="435" style="text-anchor:middle;font-size:10px" >2</text>
<text x="110" y="405" style="text-anchor:middle;font-size:10px" >1</text>
<text x="110" y="425" style="text-anchor:middle;font-size:10px" >2</text>
<text x="110" y="435" style="text-anchor:middle;font-size:10px" >3</text>
<text x="150" y="405" style="text-anchor:middle;font-size:10px" >1</text>
<text x="150" y="425" style="text-anchor:middle;font-size:10px" >2</text>
<text x="150" y="435" style="text-anchor:middle;font-size:10px" >3</text>
<line x1="20" y1="390" x2="20" y2="440" style="stroke:#bbb;stroke-width:1" />
<text x="180" y="380" >サビの&#34;O, O, Oh~&#34;のコード</text>
<line x1="180" y1="390" x2="340" y2="390" style="stroke:#bbb;stroke-width:1" />
<line x1="180" y1="400" x2="340" y2="400" style="stroke:#bbb;stroke-width:1" />
<line x1="180" y1="410" x2="340" y2="410" style="stroke:#bbb;stroke-width:1" />
<line x1="180" y1="420" x2="340" y2="420" style="stroke:#bbb;stroke-width:1" />
<line x1="180" y1="430" x2="340" y2="430" style="stroke:#bbb;stroke-width:1" />
<line x1="180" y1="440" x2="340" y2="440" style="stroke:#bbb;stroke-width:1" />
<text x="0" y="0" style="text-anchor:middle;font-size:10px" ></text>
<line x1="180" y1="390" x2="180" y2="440" style="stroke:#bbb;stroke-width:1" />
<line x1="340" y1="390" x2="340" y2="440" style="stroke:#bbb;stroke-width:1" />
<text x="20" y="460" >D→C→Bm→Am</text>
<line x1="20" y1="470" x2="180" y2="470" style="stroke:#bbb;stroke-width:1" />
<line x1="20" y1="480" x2="180" y2="480" style="stroke:#bbb;stroke-width:1" />
<line x1="20" y1="490" x2="180" y2="490" style="stroke:#bbb;stroke-width:1" />
<line x1="20" y1="500" x2="180" y2="500" style="stroke:#bbb;stroke-width:1" />
<line x1="20" y1="510" x2="180" y2="510" style="stroke:#bbb;stroke-width:1" />
<line x1="20" y1="520" x2="180" y2="520" style="stroke:#bbb;stroke-width:1" />
<line x1="20" y1="470" x2="20" y2="520" style="stroke:#bbb;stroke-width:1" />
<text x="180" y="460" >サビの最後、下っていくコード。ムズイのでごまかす。BmとAmの押さえ方は次の行から説明</text>
<line x1="180" y1="470" x2="340" y2="470" style="stroke:#bbb;stroke-width:1" />
<line x1="180" y1="480" x2="340" y2="480" style="stroke:#bbb;stroke-width:1" />
<line x1="180" y1="490" x2="340" y2="490" style="stroke:#bbb;stroke-width:1" />
<line x1="180" y1="500" x2="340" y2="500" style="stroke:#bbb;stroke-width:1" />
<line x1="180" y1="510" x2="340" y2="510" style="stroke:#bbb;stroke-width:1" />
<line x1="180" y1="520" x2="340" y2="520" style="stroke:#bbb;stroke-width:1" />
<text x="0" y="0" style="text-anchor:middle;font-size:10px" ></text>
<line x1="180" y1="470" x2="180" y2="520" style="stroke:#bbb;stroke-width:1" />
<line x1="340" y1="470" x2="340" y2="520" style="stroke:#bbb;stroke-width:1" />
<text x="20" y="540" >Bm 簡単ver1 1弦人差し指、2弦中指、3弦小指、4弦薬指。1~4弦だけを鳴らす</text>
<line x1="20" y1="550" x2="180" y2="550" style="stroke:#bbb;stroke-width:1" />
<line x1="20" y1="560" x2="180" y2="560" style="stroke:#bbb;stroke-width:1" />
<line x1="20" y1="570" x2="180" y2="570" style="stroke:#bbb;stroke-width:1" />
<line x1="20" y1="580" x2="180" y2="580" style="stroke:#bbb;stroke-width:1" />
<line x1="20" y1="590" x2="180" y2="590" style="stroke:#bbb;stroke-width:1" />
<line x1="20" y1="600" x2="180" y2="600" style="stroke:#bbb;stroke-width:1" />
<text x="30" y="575" style="text-anchor:middle;font-size:10px" >x</text>
<text x="50" y="555" style="text-anchor:middle;font-size:10px" >2</text>
<text x="70" y="565" style="text-anchor:middle;font-size:10px" >3</text>
<text x="90" y="575" style="text-anchor:middle;font-size:10px" >4</text>
<text x="90" y="585" style="text-anchor:middle;font-size:10px" >4</text>
<line x1="20" y1="550" x2="20" y2="600" style="stroke:#bbb;stroke-width:1" />
<text x="180" y="540" ></text>
<line x1="180" y1="550" x2="420" y2="550" style="stroke:#bbb;stroke-width:1" />
<line x1="180" y1="560" x2="420" y2="560" style="stroke:#bbb;stroke-width:1" />
<line x1="180" y1="570" x2="420" y2="570" style="stroke:#bbb;stroke-width:1" />
<line x1="180" y1="580" x2="420" y2="580" style="stroke:#bbb;stroke-width:1" />
<line x1="180" y1="590" x2="420" y2="590" style="stroke:#bbb;stroke-width:1" />
<line x1="180" y1="600" x2="420" y2="600" style="stroke:#bbb;stroke-width:1" />
<text x="0" y="0" style="text-anchor:middle;font-size:10px" ></text>
<line x1="180" y1="550" x2="180" y2="600" style="stroke:#bbb;stroke-width:1" />
<line x1="420" y1="550" x2="420" y2="600" style="stroke:#bbb;stroke-width:1" />
<text x="20" y="620" >Am 簡単ver1 2弦中指、3弦小指、4弦薬指。Bmから同じ運指のまま左に2フレットずらすだけ。1弦だけ放す</text>
<line x1="20" y1="630" x2="180" y2="630" style="stroke:#bbb;stroke-width:1" />
<line x1="20" y1="640" x2="180" y2="640" style="stroke:#bbb;stroke-width:1" />
<line x1="20" y1="650" x2="180" y2="650" style="stroke:#bbb;stroke-width:1" />
<line x1="20" y1="660" x2="180" y2="660" style="stroke:#bbb;stroke-width:1" />
<line x1="20" y1="670" x2="180" y2="670" style="stroke:#bbb;stroke-width:1" />
<line x1="20" y1="680" x2="180" y2="680" style="stroke:#bbb;stroke-width:1" />
<text x="30" y="655" style="text-anchor:middle;font-size:10px" >x</text>
<text x="50" y="645" style="text-anchor:middle;font-size:10px" >1</text>
<text x="70" y="655" style="text-anchor:middle;font-size:10px" >2</text>
<text x="70" y="665" style="text-anchor:middle;font-size:10px" >2</text>
<line x1="20" y1="630" x2="20" y2="680" style="stroke:#bbb;stroke-width:1" />
<text x="180" y="620" ></text>
<line x1="180" y1="630" x2="340" y2="630" style="stroke:#bbb;stroke-width:1" />
<line x1="180" y1="640" x2="340" y2="640" style="stroke:#bbb;stroke-width:1" />
<line x1="180" y1="650" x2="340" y2="650" style="stroke:#bbb;stroke-width:1" />
<line x1="180" y1="660" x2="340" y2="660" style="stroke:#bbb;stroke-width:1" />
<line x1="180" y1="670" x2="340" y2="670" style="stroke:#bbb;stroke-width:1" />
<line x1="180" y1="680" x2="340" y2="680" style="stroke:#bbb;stroke-width:1" />
<text x="0" y="0" style="text-anchor:middle;font-size:10px" ></text>
<line x1="180" y1="630" x2="180" y2="680" style="stroke:#bbb;stroke-width:1" />
<line x1="340" y1="630" x2="340" y2="680" style="stroke:#bbb;stroke-width:1" />
<text x="20" y="700" >Bm7 簡単ver2 1弦3弦人差し指、2弦中指、4弦薬指。人差し指はセーハで押さえる。1~4弦だけを鳴らす</text>
<line x1="20" y1="710" x2="180" y2="710" style="stroke:#bbb;stroke-width:1" />
<line x1="20" y1="720" x2="180" y2="720" style="stroke:#bbb;stroke-width:1" />
<line x1="20" y1="730" x2="180" y2="730" style="stroke:#bbb;stroke-width:1" />
<line x1="20" y1="740" x2="180" y2="740" style="stroke:#bbb;stroke-width:1" />
<line x1="20" y1="750" x2="180" y2="750" style="stroke:#bbb;stroke-width:1" />
<line x1="20" y1="760" x2="180" y2="760" style="stroke:#bbb;stroke-width:1" />
<text x="30" y="715" style="text-anchor:middle;font-size:10px" >2</text>
<text x="30" y="735" style="text-anchor:middle;font-size:10px" >2</text>
<text x="50" y="725" style="text-anchor:middle;font-size:10px" >3</text>
<text x="70" y="745" style="text-anchor:middle;font-size:10px" >4</text>
<line x1="20" y1="710" x2="20" y2="760" style="stroke:#bbb;stroke-width:1" />
<text x="180" y="700" ></text>
<line x1="180" y1="710" x2="420" y2="710" style="stroke:#bbb;stroke-width:1" />
<line x1="180" y1="720" x2="420" y2="720" style="stroke:#bbb;stroke-width:1" />
<line x1="180" y1="730" x2="420" y2="730" style="stroke:#bbb;stroke-width:1" />
<line x1="180" y1="740" x2="420" y2="740" style="stroke:#bbb;stroke-width:1" />
<line x1="180" y1="750" x2="420" y2="750" style="stroke:#bbb;stroke-width:1" />
<line x1="180" y1="760" x2="420" y2="760" style="stroke:#bbb;stroke-width:1" />
<text x="0" y="0" style="text-anchor:middle;font-size:10px" ></text>
<line x1="180" y1="710" x2="180" y2="760" style="stroke:#bbb;stroke-width:1" />
<line x1="420" y1="710" x2="420" y2="760" style="stroke:#bbb;stroke-width:1" />
<text x="20" y="780" >Am7 簡単ver2 2弦中指、3弦小指、4弦薬指。Bmから同じ運指のまま左に2フレットずらすだけ。1弦だけ放す</text>
<line x1="20" y1="790" x2="180" y2="790" style="stroke:#bbb;stroke-width:1" />
<line x1="20" y1="800" x2="180" y2="800" style="stroke:#bbb;stroke-width:1" />
<line x1="20" y1="810" x2="180" y2="810" style="stroke:#bbb;stroke-width:1" />
<line x1="20" y1="820" x2="180" y2="820" style="stroke:#bbb;stroke-width:1" />
<line x1="20" y1="830" x2="180" y2="830" style="stroke:#bbb;stroke-width:1" />
<line x1="20" y1="840" x2="180" y2="840" style="stroke:#bbb;stroke-width:1" />
<text x="30" y="815" style="text-anchor:middle;font-size:10px" >x</text>
<text x="50" y="805" style="text-anchor:middle;font-size:10px" >1</text>
<text x="70" y="825" style="text-anchor:middle;font-size:10px" >2</text>
<line x1="20" y1="790" x2="20" y2="840" style="stroke:#bbb;stroke-width:1" />
<text x="180" y="780" ></text>
<line x1="180" y1="790" x2="340" y2="790" style="stroke:#bbb;stroke-width:1" />
<line x1="180" y1="800" x2="340" y2="800" style="stroke:#bbb;stroke-width:1" />
<line x1="180" y1="810" x2="340" y2="810" style="stroke:#bbb;stroke-width:1" />
<line x1="180" y1="820" x2="340" y2="820" style="stroke:#bbb;stroke-width:1" />
<line x1="180" y1="830" x2="340" y2="830" style="stroke:#bbb;stroke-width:1" />
<line x1="180" y1="840" x2="340" y2="840" style="stroke:#bbb;stroke-width:1" />
<text x="0" y="0" style="text-anchor:middle;font-size:10px" ></text>
<line x1="180" y1="790" x2="180" y2="840" style="stroke:#bbb;stroke-width:1" />
<line x1="340" y1="790" x2="340" y2="840" style="stroke:#bbb;stroke-width:1" />
</svg>
