<?xml version="1.0"?>
<!-- Generated by SVGo -->
<svg width="1000" height="1000"
     xmlns="http://www.w3.org/2000/svg"
     xmlns:xlink="http://www.w3.org/1999/xlink">
<text x="20" y="20" style="font-size:25;" >優しさに包まれたなら</text>
<text x="20" y="40" style="font-size:12;" >key of D</text>
<text x="20" y="60" >Bm サビ入り</text>
<line x1="20" y1="70" x2="180" y2="70" style="stroke:#bbb;stroke-width:1" />
<line x1="20" y1="80" x2="180" y2="80" style="stroke:#bbb;stroke-width:1" />
<line x1="20" y1="90" x2="180" y2="90" style="stroke:#bbb;stroke-width:1" />
<line x1="20" y1="100" x2="180" y2="100" style="stroke:#bbb;stroke-width:1" />
<line x1="20" y1="110" x2="180" y2="110" style="stroke:#bbb;stroke-width:1" />
<text x="30" y="95" style="text-anchor:middle;font-size:10px" >3</text>
<text x="40" y="100" style="text-anchor:middle;font-size:10px" >s</text>
<line x1="36" y1="90" x2="44" y2="90" style="stroke:#444;stroke-width:1.2" />
<text x="50" y="95" style="text-anchor:middle;font-size:10px" >4</text>
<text x="40" y="100" style="text-anchor:middle;font-size:10px" >s</text>
<line x1="36" y1="90" x2="44" y2="90" style="stroke:#444;stroke-width:1.2" />
<text x="50" y="95" style="text-anchor:middle;font-size:10px" >4</text>
<text x="50" y="75" style="text-anchor:middle;font-size:10px" >4</text>
<text x="70" y="115" style="text-anchor:middle;font-size:10px" >0</text>
<text x="90" y="85" style="text-anchor:middle;font-size:10px" >3</text>
<text x="110" y="75" style="text-anchor:middle;font-size:10px" >4</text>
<text x="130" y="115" style="text-anchor:middle;font-size:10px" >0</text>
<text x="150" y="75" style="text-anchor:middle;font-size:10px" >4</text>
<text x="170" y="115" style="text-anchor:middle;font-size:10px" >0</text>
<line x1="20" y1="70" x2="20" y2="110" style="stroke:#bbb;stroke-width:1" />
<text x="180" y="60" >Bm</text>
<line x1="180" y1="70" x2="340" y2="70" style="stroke:#bbb;stroke-width:1" />
<line x1="180" y1="80" x2="340" y2="80" style="stroke:#bbb;stroke-width:1" />
<line x1="180" y1="90" x2="340" y2="90" style="stroke:#bbb;stroke-width:1" />
<line x1="180" y1="100" x2="340" y2="100" style="stroke:#bbb;stroke-width:1" />
<line x1="180" y1="110" x2="340" y2="110" style="stroke:#bbb;stroke-width:1" />
<text x="190" y="95" style="text-anchor:middle;font-size:10px" >4</text>
<text x="210" y="75" style="text-anchor:middle;font-size:10px" >4</text>
<text x="230" y="115" style="text-anchor:middle;font-size:10px" >0</text>
<text x="250" y="85" style="text-anchor:middle;font-size:10px" >3</text>
<text x="270" y="75" style="text-anchor:middle;font-size:10px" >4</text>
<text x="290" y="115" style="text-anchor:middle;font-size:10px" >0</text>
<text x="310" y="75" style="text-anchor:middle;font-size:10px" >4</text>
<text x="330" y="115" style="text-anchor:middle;font-size:10px" >0</text>
<line x1="180" y1="70" x2="180" y2="110" style="stroke:#bbb;stroke-width:1" />
<text x="340" y="60" >G</text>
<line x1="340" y1="70" x2="500" y2="70" style="stroke:#bbb;stroke-width:1" />
<line x1="340" y1="80" x2="500" y2="80" style="stroke:#bbb;stroke-width:1" />
<line x1="340" y1="90" x2="500" y2="90" style="stroke:#bbb;stroke-width:1" />
<line x1="340" y1="100" x2="500" y2="100" style="stroke:#bbb;stroke-width:1" />
<line x1="340" y1="110" x2="500" y2="110" style="stroke:#bbb;stroke-width:1" />
<text x="350" y="95" style="text-anchor:middle;font-size:10px" >0</text>
<text x="370" y="75" style="text-anchor:middle;font-size:10px" >0</text>
<text x="390" y="115" style="text-anchor:middle;font-size:10px" >0</text>
<text x="410" y="85" style="text-anchor:middle;font-size:10px" >0</text>
<text x="430" y="75" style="text-anchor:middle;font-size:10px" >0</text>
<text x="450" y="115" style="text-anchor:middle;font-size:10px" >0</text>
<text x="470" y="75" style="text-anchor:middle;font-size:10px" >0</text>
<text x="490" y="115" style="text-anchor:middle;font-size:10px" >0</text>
<line x1="340" y1="70" x2="340" y2="110" style="stroke:#bbb;stroke-width:1" />
<text x="500" y="60" >G</text>
<line x1="500" y1="70" x2="660" y2="70" style="stroke:#bbb;stroke-width:1" />
<line x1="500" y1="80" x2="660" y2="80" style="stroke:#bbb;stroke-width:1" />
<line x1="500" y1="90" x2="660" y2="90" style="stroke:#bbb;stroke-width:1" />
<line x1="500" y1="100" x2="660" y2="100" style="stroke:#bbb;stroke-width:1" />
<line x1="500" y1="110" x2="660" y2="110" style="stroke:#bbb;stroke-width:1" />
<text x="510" y="95" style="text-anchor:middle;font-size:10px" >0</text>
<text x="530" y="75" style="text-anchor:middle;font-size:10px" >0</text>
<text x="550" y="115" style="text-anchor:middle;font-size:10px" >0</text>
<text x="570" y="85" style="text-anchor:middle;font-size:10px" >0</text>
<text x="590" y="75" style="text-anchor:middle;font-size:10px" >0</text>
<text x="610" y="115" style="text-anchor:middle;font-size:10px" >0</text>
<text x="630" y="75" style="text-anchor:middle;font-size:10px" >0</text>
<text x="650" y="115" style="text-anchor:middle;font-size:10px" >0</text>
<line x1="500" y1="70" x2="500" y2="110" style="stroke:#bbb;stroke-width:1" />
<line x1="660" y1="70" x2="660" y2="110" style="stroke:#bbb;stroke-width:1" />
<text x="20" y="140" >D Interude</text>
<line x1="20" y1="150" x2="180" y2="150" style="stroke:#bbb;stroke-width:1" />
<line x1="20" y1="160" x2="180" y2="160" style="stroke:#bbb;stroke-width:1" />
<line x1="20" y1="170" x2="180" y2="170" style="stroke:#bbb;stroke-width:1" />
<line x1="20" y1="180" x2="180" y2="180" style="stroke:#bbb;stroke-width:1" />
<line x1="20" y1="190" x2="180" y2="190" style="stroke:#bbb;stroke-width:1" />
<text x="30" y="155" style="text-anchor:middle;font-size:10px" >12</text>
<text x="30" y="165" style="text-anchor:middle;font-size:10px" >10</text>
<text x="70" y="195" style="text-anchor:middle;font-size:10px" >0</text>
<text x="90" y="165" style="text-anchor:middle;font-size:10px" >10</text>
<text x="110" y="155" style="text-anchor:middle;font-size:10px" >12</text>
<text x="130" y="195" style="text-anchor:middle;font-size:10px" >0</text>
<text x="150" y="165" style="text-anchor:middle;font-size:10px" >10</text>
<text x="170" y="155" style="text-anchor:middle;font-size:10px" >12</text>
<line x1="20" y1="150" x2="20" y2="190" style="stroke:#bbb;stroke-width:1" />
<text x="180" y="140" >D</text>
<line x1="180" y1="150" x2="340" y2="150" style="stroke:#bbb;stroke-width:1" />
<line x1="180" y1="160" x2="340" y2="160" style="stroke:#bbb;stroke-width:1" />
<line x1="180" y1="170" x2="340" y2="170" style="stroke:#bbb;stroke-width:1" />
<line x1="180" y1="180" x2="340" y2="180" style="stroke:#bbb;stroke-width:1" />
<line x1="180" y1="190" x2="340" y2="190" style="stroke:#bbb;stroke-width:1" />
<text x="190" y="195" style="text-anchor:middle;font-size:10px" >0</text>
<text x="210" y="155" style="text-anchor:middle;font-size:10px" >12</text>
<text x="210" y="165" style="text-anchor:middle;font-size:10px" >10</text>
<text x="220" y="170" style="text-anchor:middle;font-size:10px" >h</text>
<line x1="216" y1="160" x2="224" y2="160" style="stroke:#444;stroke-width:1.2" />
<text x="230" y="165" style="text-anchor:middle;font-size:10px" >12</text>
<text x="220" y="170" style="text-anchor:middle;font-size:10px" >h</text>
<line x1="216" y1="160" x2="224" y2="160" style="stroke:#444;stroke-width:1.2" />
<text x="230" y="165" style="text-anchor:middle;font-size:10px" >12</text>
<text x="0" y="0" style="text-anchor:middle;font-size:10px" ></text>
<text x="250" y="195" style="text-anchor:middle;font-size:10px" >0</text>
<text x="270" y="165" style="text-anchor:middle;font-size:10px" >10</text>
<text x="290" y="155" style="text-anchor:middle;font-size:10px" >12</text>
<text x="310" y="175" style="text-anchor:middle;font-size:10px" >11</text>
<text x="320" y="180" style="text-anchor:middle;font-size:10px" >s</text>
<line x1="316" y1="170" x2="324" y2="170" style="stroke:#444;stroke-width:1.2" />
<text x="330" y="175" style="text-anchor:middle;font-size:10px" >8</text>
<text x="320" y="180" style="text-anchor:middle;font-size:10px" >s</text>
<line x1="316" y1="170" x2="324" y2="170" style="stroke:#444;stroke-width:1.2" />
<text x="330" y="175" style="text-anchor:middle;font-size:10px" >8</text>
<text x="330" y="155" style="text-anchor:middle;font-size:10px" >0</text>
<line x1="180" y1="150" x2="180" y2="190" style="stroke:#bbb;stroke-width:1" />
<text x="340" y="140" >Em7onD</text>
<line x1="340" y1="150" x2="500" y2="150" style="stroke:#bbb;stroke-width:1" />
<line x1="340" y1="160" x2="500" y2="160" style="stroke:#bbb;stroke-width:1" />
<line x1="340" y1="170" x2="500" y2="170" style="stroke:#bbb;stroke-width:1" />
<line x1="340" y1="180" x2="500" y2="180" style="stroke:#bbb;stroke-width:1" />
<line x1="340" y1="190" x2="500" y2="190" style="stroke:#bbb;stroke-width:1" />
<text x="350" y="175" style="text-anchor:middle;font-size:10px" >8</text>
<text x="370" y="155" style="text-anchor:middle;font-size:10px" >0</text>
<text x="390" y="195" style="text-anchor:middle;font-size:10px" >0</text>
<text x="410" y="175" style="text-anchor:middle;font-size:10px" >7</text>
<text x="430" y="155" style="text-anchor:middle;font-size:10px" >0</text>
<text x="450" y="195" style="text-anchor:middle;font-size:10px" >0</text>
<text x="470" y="175" style="text-anchor:middle;font-size:10px" >7</text>
<text x="490" y="155" style="text-anchor:middle;font-size:10px" >0</text>
<line x1="340" y1="150" x2="340" y2="190" style="stroke:#bbb;stroke-width:1" />
<text x="500" y="140" >Em7onD</text>
<line x1="500" y1="150" x2="660" y2="150" style="stroke:#bbb;stroke-width:1" />
<line x1="500" y1="160" x2="660" y2="160" style="stroke:#bbb;stroke-width:1" />
<line x1="500" y1="170" x2="660" y2="170" style="stroke:#bbb;stroke-width:1" />
<line x1="500" y1="180" x2="660" y2="180" style="stroke:#bbb;stroke-width:1" />
<line x1="500" y1="190" x2="660" y2="190" style="stroke:#bbb;stroke-width:1" />
<text x="510" y="195" style="text-anchor:middle;font-size:10px" >0</text>
<text x="530" y="175" style="text-anchor:middle;font-size:10px" >7</text>
<text x="550" y="155" style="text-anchor:middle;font-size:10px" >0</text>
<text x="570" y="195" style="text-anchor:middle;font-size:10px" >0</text>
<text x="590" y="155" style="text-anchor:middle;font-size:10px" >0</text>
<text x="610" y="175" style="text-anchor:middle;font-size:10px" >7</text>
<text x="620" y="180" style="text-anchor:middle;font-size:10px" >s</text>
<line x1="616" y1="170" x2="624" y2="170" style="stroke:#444;stroke-width:1.2" />
<text x="630" y="175" style="text-anchor:middle;font-size:10px" >11</text>
<text x="620" y="180" style="text-anchor:middle;font-size:10px" >s</text>
<line x1="616" y1="170" x2="624" y2="170" style="stroke:#444;stroke-width:1.2" />
<text x="630" y="175" style="text-anchor:middle;font-size:10px" >11</text>
<text x="0" y="0" style="text-anchor:middle;font-size:10px" ></text>
<text x="650" y="195" style="text-anchor:middle;font-size:10px" >0</text>
<line x1="500" y1="150" x2="500" y2="190" style="stroke:#bbb;stroke-width:1" />
<line x1="660" y1="150" x2="660" y2="190" style="stroke:#bbb;stroke-width:1" />
<text x="20" y="220" >D</text>
<line x1="20" y1="230" x2="180" y2="230" style="stroke:#bbb;stroke-width:1" />
<line x1="20" y1="240" x2="180" y2="240" style="stroke:#bbb;stroke-width:1" />
<line x1="20" y1="250" x2="180" y2="250" style="stroke:#bbb;stroke-width:1" />
<line x1="20" y1="260" x2="180" y2="260" style="stroke:#bbb;stroke-width:1" />
<line x1="20" y1="270" x2="180" y2="270" style="stroke:#bbb;stroke-width:1" />
<text x="30" y="235" style="text-anchor:middle;font-size:10px" >12</text>
<text x="30" y="255" style="text-anchor:middle;font-size:10px" >11</text>
<text x="70" y="275" style="text-anchor:middle;font-size:10px" >0</text>
<text x="90" y="255" style="text-anchor:middle;font-size:10px" >11</text>
<text x="110" y="235" style="text-anchor:middle;font-size:10px" >12</text>
<text x="130" y="275" style="text-anchor:middle;font-size:10px" >0</text>
<text x="150" y="255" style="text-anchor:middle;font-size:10px" >11</text>
<text x="170" y="235" style="text-anchor:middle;font-size:10px" >12</text>
<line x1="20" y1="230" x2="20" y2="270" style="stroke:#bbb;stroke-width:1" />
<text x="180" y="220" >D 7音目ダウン先適当</text>
<line x1="180" y1="230" x2="340" y2="230" style="stroke:#bbb;stroke-width:1" />
<line x1="180" y1="240" x2="340" y2="240" style="stroke:#bbb;stroke-width:1" />
<line x1="180" y1="250" x2="340" y2="250" style="stroke:#bbb;stroke-width:1" />
<line x1="180" y1="260" x2="340" y2="260" style="stroke:#bbb;stroke-width:1" />
<line x1="180" y1="270" x2="340" y2="270" style="stroke:#bbb;stroke-width:1" />
<text x="190" y="275" style="text-anchor:middle;font-size:10px" >0</text>
<text x="210" y="255" style="text-anchor:middle;font-size:10px" >11</text>
<text x="230" y="235" style="text-anchor:middle;font-size:10px" >12</text>
<text x="250" y="275" style="text-anchor:middle;font-size:10px" >0</text>
<text x="270" y="235" style="text-anchor:middle;font-size:10px" >12</text>
<text x="270" y="255" style="text-anchor:middle;font-size:10px" >11</text>
<text x="310" y="255" style="text-anchor:middle;font-size:10px" >11</text>
<text x="320" y="260" style="text-anchor:middle;font-size:10px" >s</text>
<line x1="316" y1="250" x2="324" y2="250" style="stroke:#444;stroke-width:1.2" />
<text x="330" y="255" style="text-anchor:middle;font-size:10px" >14</text>
<text x="320" y="260" style="text-anchor:middle;font-size:10px" >s</text>
<line x1="316" y1="250" x2="324" y2="250" style="stroke:#444;stroke-width:1.2" />
<text x="330" y="255" style="text-anchor:middle;font-size:10px" >14</text>
<text x="330" y="235" style="text-anchor:middle;font-size:10px" >14</text>
<line x1="180" y1="230" x2="180" y2="270" style="stroke:#bbb;stroke-width:1" />
<text x="340" y="220" >D 1弦3連符も◎</text>
<line x1="340" y1="230" x2="500" y2="230" style="stroke:#bbb;stroke-width:1" />
<line x1="340" y1="240" x2="500" y2="240" style="stroke:#bbb;stroke-width:1" />
<line x1="340" y1="250" x2="500" y2="250" style="stroke:#bbb;stroke-width:1" />
<line x1="340" y1="260" x2="500" y2="260" style="stroke:#bbb;stroke-width:1" />
<line x1="340" y1="270" x2="500" y2="270" style="stroke:#bbb;stroke-width:1" />
<text x="350" y="235" style="text-anchor:middle;font-size:10px" >14</text>
<text x="360" y="240" style="text-anchor:middle;font-size:10px" >s</text>
<line x1="356" y1="230" x2="364" y2="230" style="stroke:#444;stroke-width:1.2" />
<text x="370" y="235" style="text-anchor:middle;font-size:10px" >7</text>
<text x="360" y="240" style="text-anchor:middle;font-size:10px" >s</text>
<line x1="356" y1="230" x2="364" y2="230" style="stroke:#444;stroke-width:1.2" />
<text x="370" y="235" style="text-anchor:middle;font-size:10px" >7</text>
<text x="0" y="0" style="text-anchor:middle;font-size:10px" ></text>
<text x="390" y="255" style="text-anchor:middle;font-size:10px" >7</text>
<text x="400" y="260" style="text-anchor:middle;font-size:10px" >s</text>
<line x1="396" y1="250" x2="404" y2="250" style="stroke:#444;stroke-width:1.2" />
<text x="410" y="255" style="text-anchor:middle;font-size:10px" >12</text>
<text x="400" y="260" style="text-anchor:middle;font-size:10px" >s</text>
<line x1="396" y1="250" x2="404" y2="250" style="stroke:#444;stroke-width:1.2" />
<text x="410" y="255" style="text-anchor:middle;font-size:10px" >12</text>
<text x="410" y="235" style="text-anchor:middle;font-size:10px" >14</text>
<text x="430" y="235" style="text-anchor:middle;font-size:10px" >14</text>
<text x="440" y="240" style="text-anchor:middle;font-size:10px" >s</text>
<line x1="436" y1="230" x2="444" y2="230" style="stroke:#444;stroke-width:1.2" />
<text x="450" y="235" style="text-anchor:middle;font-size:10px" >7</text>
<text x="440" y="240" style="text-anchor:middle;font-size:10px" >s</text>
<line x1="436" y1="230" x2="444" y2="230" style="stroke:#444;stroke-width:1.2" />
<text x="450" y="235" style="text-anchor:middle;font-size:10px" >7</text>
<text x="0" y="0" style="text-anchor:middle;font-size:10px" ></text>
<text x="470" y="245" style="text-anchor:middle;font-size:10px" >7</text>
<text x="480" y="250" style="text-anchor:middle;font-size:10px" >s</text>
<line x1="476" y1="240" x2="484" y2="240" style="stroke:#444;stroke-width:1.2" />
<text x="490" y="245" style="text-anchor:middle;font-size:10px" >11</text>
<text x="480" y="250" style="text-anchor:middle;font-size:10px" >s</text>
<line x1="476" y1="240" x2="484" y2="240" style="stroke:#444;stroke-width:1.2" />
<text x="490" y="245" style="text-anchor:middle;font-size:10px" >11</text>
<text x="490" y="235" style="text-anchor:middle;font-size:10px" >12</text>
<line x1="340" y1="230" x2="340" y2="270" style="stroke:#bbb;stroke-width:1" />
<text x="500" y="220" >Em7onD 最後チョーク気味</text>
<line x1="500" y1="230" x2="660" y2="230" style="stroke:#bbb;stroke-width:1" />
<line x1="500" y1="240" x2="660" y2="240" style="stroke:#bbb;stroke-width:1" />
<line x1="500" y1="250" x2="660" y2="250" style="stroke:#bbb;stroke-width:1" />
<line x1="500" y1="260" x2="660" y2="260" style="stroke:#bbb;stroke-width:1" />
<line x1="500" y1="270" x2="660" y2="270" style="stroke:#bbb;stroke-width:1" />
<text x="510" y="235" style="text-anchor:middle;font-size:10px" >12</text>
<text x="550" y="235" style="text-anchor:middle;font-size:10px" >12</text>
<text x="560" y="240" style="text-anchor:middle;font-size:10px" >s</text>
<line x1="556" y1="230" x2="564" y2="230" style="stroke:#444;stroke-width:1.2" />
<text x="570" y="235" style="text-anchor:middle;font-size:10px" >14</text>
<text x="560" y="240" style="text-anchor:middle;font-size:10px" >s</text>
<line x1="556" y1="230" x2="564" y2="230" style="stroke:#444;stroke-width:1.2" />
<text x="570" y="235" style="text-anchor:middle;font-size:10px" >14</text>
<text x="0" y="0" style="text-anchor:middle;font-size:10px" ></text>
<text x="590" y="235" style="text-anchor:middle;font-size:10px" >14</text>
<text x="610" y="235" style="text-anchor:middle;font-size:10px" >12</text>
<text x="630" y="245" style="text-anchor:middle;font-size:10px" >14</text>
<line x1="500" y1="230" x2="500" y2="270" style="stroke:#bbb;stroke-width:1" />
<line x1="660" y1="230" x2="660" y2="270" style="stroke:#bbb;stroke-width:1" />
<text x="20" y="300" >Em7onD repeat phrase</text>
<line x1="20" y1="310" x2="180" y2="310" style="stroke:#bbb;stroke-width:1" />
<line x1="20" y1="320" x2="180" y2="320" style="stroke:#bbb;stroke-width:1" />
<line x1="20" y1="330" x2="180" y2="330" style="stroke:#bbb;stroke-width:1" />
<line x1="20" y1="340" x2="180" y2="340" style="stroke:#bbb;stroke-width:1" />
<line x1="20" y1="350" x2="180" y2="350" style="stroke:#bbb;stroke-width:1" />
<text x="30" y="335" style="text-anchor:middle;font-size:10px" >2</text>
<text x="50" y="315" style="text-anchor:middle;font-size:10px" >0</text>
<text x="70" y="355" style="text-anchor:middle;font-size:10px" >0</text>
<text x="90" y="325" style="text-anchor:middle;font-size:10px" >0</text>
<text x="110" y="315" style="text-anchor:middle;font-size:10px" >0</text>
<text x="130" y="355" style="text-anchor:middle;font-size:10px" >0</text>
<text x="150" y="325" style="text-anchor:middle;font-size:10px" >2</text>
<text x="160" y="330" style="text-anchor:middle;font-size:10px" >h</text>
<line x1="156" y1="320" x2="164" y2="320" style="stroke:#444;stroke-width:1.2" />
<text x="170" y="325" style="text-anchor:middle;font-size:10px" >3</text>
<text x="160" y="330" style="text-anchor:middle;font-size:10px" >h</text>
<line x1="156" y1="320" x2="164" y2="320" style="stroke:#444;stroke-width:1.2" />
<text x="170" y="325" style="text-anchor:middle;font-size:10px" >3</text>
<text x="170" y="315" style="text-anchor:middle;font-size:10px" >0</text>
<line x1="20" y1="310" x2="20" y2="350" style="stroke:#bbb;stroke-width:1" />
<text x="180" y="300" ></text>
<line x1="180" y1="310" x2="340" y2="310" style="stroke:#bbb;stroke-width:1" />
<line x1="180" y1="320" x2="340" y2="320" style="stroke:#bbb;stroke-width:1" />
<line x1="180" y1="330" x2="340" y2="330" style="stroke:#bbb;stroke-width:1" />
<line x1="180" y1="340" x2="340" y2="340" style="stroke:#bbb;stroke-width:1" />
<line x1="180" y1="350" x2="340" y2="350" style="stroke:#bbb;stroke-width:1" />
<text x="190" y="355" style="text-anchor:middle;font-size:10px" >0</text>
<text x="210" y="325" style="text-anchor:middle;font-size:10px" >3</text>
<text x="220" y="330" style="text-anchor:middle;font-size:10px" >s</text>
<line x1="216" y1="320" x2="224" y2="320" style="stroke:#444;stroke-width:1.2" />
<text x="230" y="325" style="text-anchor:middle;font-size:10px" >5</text>
<text x="220" y="330" style="text-anchor:middle;font-size:10px" >s</text>
<line x1="216" y1="320" x2="224" y2="320" style="stroke:#444;stroke-width:1.2" />
<text x="230" y="325" style="text-anchor:middle;font-size:10px" >5</text>
<text x="230" y="315" style="text-anchor:middle;font-size:10px" >0</text>
<text x="250" y="355" style="text-anchor:middle;font-size:10px" >0</text>
<text x="270" y="325" style="text-anchor:middle;font-size:10px" >5</text>
<text x="280" y="330" style="text-anchor:middle;font-size:10px" >s</text>
<line x1="276" y1="320" x2="284" y2="320" style="stroke:#444;stroke-width:1.2" />
<text x="290" y="325" style="text-anchor:middle;font-size:10px" >7</text>
<text x="280" y="330" style="text-anchor:middle;font-size:10px" >s</text>
<line x1="276" y1="320" x2="284" y2="320" style="stroke:#444;stroke-width:1.2" />
<text x="290" y="325" style="text-anchor:middle;font-size:10px" >7</text>
<text x="0" y="0" style="text-anchor:middle;font-size:10px" ></text>
<text x="310" y="315" style="text-anchor:middle;font-size:10px" >7</text>
<text x="310" y="355" style="text-anchor:middle;font-size:10px" >0</text>
<line x1="180" y1="310" x2="180" y2="350" style="stroke:#bbb;stroke-width:1" />
<text x="340" y="300" >Em7onD</text>
<line x1="340" y1="310" x2="500" y2="310" style="stroke:#bbb;stroke-width:1" />
<line x1="340" y1="320" x2="500" y2="320" style="stroke:#bbb;stroke-width:1" />
<line x1="340" y1="330" x2="500" y2="330" style="stroke:#bbb;stroke-width:1" />
<line x1="340" y1="340" x2="500" y2="340" style="stroke:#bbb;stroke-width:1" />
<line x1="340" y1="350" x2="500" y2="350" style="stroke:#bbb;stroke-width:1" />
<text x="350" y="335" style="text-anchor:middle;font-size:10px" >2</text>
<text x="370" y="315" style="text-anchor:middle;font-size:10px" >0</text>
<text x="390" y="355" style="text-anchor:middle;font-size:10px" >0</text>
<text x="410" y="325" style="text-anchor:middle;font-size:10px" >0</text>
<text x="430" y="315" style="text-anchor:middle;font-size:10px" >0</text>
<text x="450" y="355" style="text-anchor:middle;font-size:10px" >0</text>
<text x="470" y="325" style="text-anchor:middle;font-size:10px" >2</text>
<text x="480" y="330" style="text-anchor:middle;font-size:10px" >h</text>
<line x1="476" y1="320" x2="484" y2="320" style="stroke:#444;stroke-width:1.2" />
<text x="490" y="325" style="text-anchor:middle;font-size:10px" >3</text>
<text x="480" y="330" style="text-anchor:middle;font-size:10px" >h</text>
<line x1="476" y1="320" x2="484" y2="320" style="stroke:#444;stroke-width:1.2" />
<text x="490" y="325" style="text-anchor:middle;font-size:10px" >3</text>
<text x="490" y="315" style="text-anchor:middle;font-size:10px" >0</text>
<line x1="340" y1="310" x2="340" y2="350" style="stroke:#bbb;stroke-width:1" />
<text x="500" y="300" ></text>
<line x1="500" y1="310" x2="660" y2="310" style="stroke:#bbb;stroke-width:1" />
<line x1="500" y1="320" x2="660" y2="320" style="stroke:#bbb;stroke-width:1" />
<line x1="500" y1="330" x2="660" y2="330" style="stroke:#bbb;stroke-width:1" />
<line x1="500" y1="340" x2="660" y2="340" style="stroke:#bbb;stroke-width:1" />
<line x1="500" y1="350" x2="660" y2="350" style="stroke:#bbb;stroke-width:1" />
<text x="510" y="355" style="text-anchor:middle;font-size:10px" >0</text>
<text x="530" y="325" style="text-anchor:middle;font-size:10px" >3</text>
<text x="540" y="330" style="text-anchor:middle;font-size:10px" >s</text>
<line x1="536" y1="320" x2="544" y2="320" style="stroke:#444;stroke-width:1.2" />
<text x="550" y="325" style="text-anchor:middle;font-size:10px" >5</text>
<text x="540" y="330" style="text-anchor:middle;font-size:10px" >s</text>
<line x1="536" y1="320" x2="544" y2="320" style="stroke:#444;stroke-width:1.2" />
<text x="550" y="325" style="text-anchor:middle;font-size:10px" >5</text>
<text x="550" y="315" style="text-anchor:middle;font-size:10px" >0</text>
<text x="570" y="355" style="text-anchor:middle;font-size:10px" >0</text>
<text x="590" y="325" style="text-anchor:middle;font-size:10px" >5</text>
<text x="590" y="315" style="text-anchor:middle;font-size:10px" >7</text>
<text x="630" y="325" style="text-anchor:middle;font-size:10px" >6</text>
<text x="630" y="315" style="text-anchor:middle;font-size:10px" >8</text>
<line x1="500" y1="310" x2="500" y2="350" style="stroke:#bbb;stroke-width:1" />
<line x1="660" y1="310" x2="660" y2="350" style="stroke:#bbb;stroke-width:1" />
<text x="20" y="380" >Bm chorus repeat 頭だけ続きでコード鳴らして、サビのフレーズに戻る</text>
<line x1="20" y1="390" x2="180" y2="390" style="stroke:#bbb;stroke-width:1" />
<line x1="20" y1="400" x2="180" y2="400" style="stroke:#bbb;stroke-width:1" />
<line x1="20" y1="410" x2="180" y2="410" style="stroke:#bbb;stroke-width:1" />
<line x1="20" y1="420" x2="180" y2="420" style="stroke:#bbb;stroke-width:1" />
<line x1="20" y1="430" x2="180" y2="430" style="stroke:#bbb;stroke-width:1" />
<text x="30" y="395" style="text-anchor:middle;font-size:10px" >9</text>
<text x="40" y="400" style="text-anchor:middle;font-size:10px" >s</text>
<line x1="36" y1="390" x2="44" y2="390" style="stroke:#444;stroke-width:1.2" />
<text x="50" y="395" style="text-anchor:middle;font-size:10px" >4</text>
<text x="40" y="400" style="text-anchor:middle;font-size:10px" >s</text>
<line x1="36" y1="390" x2="44" y2="390" style="stroke:#444;stroke-width:1.2" />
<text x="50" y="395" style="text-anchor:middle;font-size:10px" >4</text>
<text x="30" y="405" style="text-anchor:middle;font-size:10px" >7</text>
<text x="40" y="410" style="text-anchor:middle;font-size:10px" >s</text>
<line x1="36" y1="400" x2="44" y2="400" style="stroke:#444;stroke-width:1.2" />
<text x="50" y="405" style="text-anchor:middle;font-size:10px" >3</text>
<text x="40" y="410" style="text-anchor:middle;font-size:10px" >s</text>
<line x1="36" y1="400" x2="44" y2="400" style="stroke:#444;stroke-width:1.2" />
<text x="50" y="405" style="text-anchor:middle;font-size:10px" >3</text>
<text x="0" y="0" style="text-anchor:middle;font-size:10px" ></text>
<text x="70" y="435" style="text-anchor:middle;font-size:10px" >0</text>
<text x="90" y="405" style="text-anchor:middle;font-size:10px" >3</text>
<text x="110" y="395" style="text-anchor:middle;font-size:10px" >4</text>
<text x="130" y="435" style="text-anchor:middle;font-size:10px" >0</text>
<text x="150" y="395" style="text-anchor:middle;font-size:10px" >4</text>
<text x="170" y="435" style="text-anchor:middle;font-size:10px" >0</text>
<line x1="20" y1="390" x2="20" y2="430" style="stroke:#bbb;stroke-width:1" />
<line x1="180" y1="390" x2="180" y2="430" style="stroke:#bbb;stroke-width:1" />
<text x="20" y="460" >D outro</text>
<line x1="20" y1="470" x2="180" y2="470" style="stroke:#bbb;stroke-width:1" />
<line x1="20" y1="480" x2="180" y2="480" style="stroke:#bbb;stroke-width:1" />
<line x1="20" y1="490" x2="180" y2="490" style="stroke:#bbb;stroke-width:1" />
<line x1="20" y1="500" x2="180" y2="500" style="stroke:#bbb;stroke-width:1" />
<line x1="20" y1="510" x2="180" y2="510" style="stroke:#bbb;stroke-width:1" />
<text x="30" y="505" style="text-anchor:middle;font-size:10px" >0</text>
<text x="70" y="515" style="text-anchor:middle;font-size:10px" >0</text>
<text x="90" y="495" style="text-anchor:middle;font-size:10px" >2</text>
<text x="110" y="475" style="text-anchor:middle;font-size:10px" >0</text>
<text x="130" y="495" style="text-anchor:middle;font-size:10px" >2</text>
<text x="150" y="505" style="text-anchor:middle;font-size:10px" >4</text>
<text x="170" y="475" style="text-anchor:middle;font-size:10px" >0</text>
<line x1="20" y1="470" x2="20" y2="510" style="stroke:#bbb;stroke-width:1" />
<text x="180" y="460" >D</text>
<line x1="180" y1="470" x2="340" y2="470" style="stroke:#bbb;stroke-width:1" />
<line x1="180" y1="480" x2="340" y2="480" style="stroke:#bbb;stroke-width:1" />
<line x1="180" y1="490" x2="340" y2="490" style="stroke:#bbb;stroke-width:1" />
<line x1="180" y1="500" x2="340" y2="500" style="stroke:#bbb;stroke-width:1" />
<line x1="180" y1="510" x2="340" y2="510" style="stroke:#bbb;stroke-width:1" />
<text x="190" y="505" style="text-anchor:middle;font-size:10px" >0</text>
<text x="230" y="485" style="text-anchor:middle;font-size:10px" >3</text>
<text x="240" y="490" style="text-anchor:middle;font-size:10px" >s</text>
<line x1="236" y1="480" x2="244" y2="480" style="stroke:#444;stroke-width:1.2" />
<text x="250" y="485" style="text-anchor:middle;font-size:10px" >5</text>
<text x="240" y="490" style="text-anchor:middle;font-size:10px" >s</text>
<line x1="236" y1="480" x2="244" y2="480" style="stroke:#444;stroke-width:1.2" />
<text x="250" y="485" style="text-anchor:middle;font-size:10px" >5</text>
<text x="250" y="475" style="text-anchor:middle;font-size:10px" >x</text>
<text x="270" y="515" style="text-anchor:middle;font-size:10px" >0</text>
<text x="290" y="485" style="text-anchor:middle;font-size:10px" >5</text>
<text x="310" y="475" style="text-anchor:middle;font-size:10px" >4</text>
<text x="330" y="515" style="text-anchor:middle;font-size:10px" >0</text>
<line x1="180" y1="470" x2="180" y2="510" style="stroke:#bbb;stroke-width:1" />
<text x="340" y="460" >G</text>
<line x1="340" y1="470" x2="500" y2="470" style="stroke:#bbb;stroke-width:1" />
<line x1="340" y1="480" x2="500" y2="480" style="stroke:#bbb;stroke-width:1" />
<line x1="340" y1="490" x2="500" y2="490" style="stroke:#bbb;stroke-width:1" />
<line x1="340" y1="500" x2="500" y2="500" style="stroke:#bbb;stroke-width:1" />
<line x1="340" y1="510" x2="500" y2="510" style="stroke:#bbb;stroke-width:1" />
<text x="350" y="475" style="text-anchor:middle;font-size:10px" >4</text>
<text x="360" y="480" style="text-anchor:middle;font-size:10px" >h</text>
<line x1="356" y1="470" x2="364" y2="470" style="stroke:#444;stroke-width:1.2" />
<text x="370" y="475" style="text-anchor:middle;font-size:10px" >5</text>
<text x="360" y="480" style="text-anchor:middle;font-size:10px" >h</text>
<line x1="356" y1="470" x2="364" y2="470" style="stroke:#444;stroke-width:1.2" />
<text x="370" y="475" style="text-anchor:middle;font-size:10px" >5</text>
<text x="0" y="0" style="text-anchor:middle;font-size:10px" ></text>
<text x="390" y="515" style="text-anchor:middle;font-size:10px" >0</text>
<text x="410" y="485" style="text-anchor:middle;font-size:10px" >5</text>
<text x="430" y="475" style="text-anchor:middle;font-size:10px" >5</text>
<text x="450" y="515" style="text-anchor:middle;font-size:10px" >0</text>
<text x="470" y="485" style="text-anchor:middle;font-size:10px" >5</text>
<text x="490" y="475" style="text-anchor:middle;font-size:10px" >5</text>
<line x1="340" y1="470" x2="340" y2="510" style="stroke:#bbb;stroke-width:1" />
<text x="500" y="460" >G</text>
<line x1="500" y1="470" x2="660" y2="470" style="stroke:#bbb;stroke-width:1" />
<line x1="500" y1="480" x2="660" y2="480" style="stroke:#bbb;stroke-width:1" />
<line x1="500" y1="490" x2="660" y2="490" style="stroke:#bbb;stroke-width:1" />
<line x1="500" y1="500" x2="660" y2="500" style="stroke:#bbb;stroke-width:1" />
<line x1="500" y1="510" x2="660" y2="510" style="stroke:#bbb;stroke-width:1" />
<text x="510" y="515" style="text-anchor:middle;font-size:10px" >0</text>
<text x="530" y="485" style="text-anchor:middle;font-size:10px" >5</text>
<text x="550" y="475" style="text-anchor:middle;font-size:10px" >5</text>
<text x="570" y="515" style="text-anchor:middle;font-size:10px" >0</text>
<text x="590" y="475" style="text-anchor:middle;font-size:10px" >5</text>
<text x="630" y="475" style="text-anchor:middle;font-size:10px" >7</text>
<line x1="500" y1="470" x2="500" y2="510" style="stroke:#bbb;stroke-width:1" />
<line x1="660" y1="470" x2="660" y2="510" style="stroke:#bbb;stroke-width:1" />
<text x="20" y="540" >D</text>
<line x1="20" y1="550" x2="180" y2="550" style="stroke:#bbb;stroke-width:1" />
<line x1="20" y1="560" x2="180" y2="560" style="stroke:#bbb;stroke-width:1" />
<line x1="20" y1="570" x2="180" y2="570" style="stroke:#bbb;stroke-width:1" />
<line x1="20" y1="580" x2="180" y2="580" style="stroke:#bbb;stroke-width:1" />
<line x1="20" y1="590" x2="180" y2="590" style="stroke:#bbb;stroke-width:1" />
<text x="30" y="555" style="text-anchor:middle;font-size:10px" >7</text>
<text x="40" y="560" style="text-anchor:middle;font-size:10px" >s</text>
<line x1="36" y1="550" x2="44" y2="550" style="stroke:#444;stroke-width:1.2" />
<text x="50" y="555" style="text-anchor:middle;font-size:10px" >12</text>
<text x="40" y="560" style="text-anchor:middle;font-size:10px" >s</text>
<line x1="36" y1="550" x2="44" y2="550" style="stroke:#444;stroke-width:1.2" />
<text x="50" y="555" style="text-anchor:middle;font-size:10px" >12</text>
<text x="0" y="0" style="text-anchor:middle;font-size:10px" ></text>
<text x="70" y="595" style="text-anchor:middle;font-size:10px" >0</text>
<text x="90" y="565" style="text-anchor:middle;font-size:10px" >10</text>
<text x="110" y="555" style="text-anchor:middle;font-size:10px" >12</text>
<text x="130" y="595" style="text-anchor:middle;font-size:10px" >0</text>
<text x="150" y="565" style="text-anchor:middle;font-size:10px" >10</text>
<text x="170" y="555" style="text-anchor:middle;font-size:10px" >12</text>
<line x1="20" y1="550" x2="20" y2="590" style="stroke:#bbb;stroke-width:1" />
<text x="180" y="540" >D</text>
<line x1="180" y1="550" x2="340" y2="550" style="stroke:#bbb;stroke-width:1" />
<line x1="180" y1="560" x2="340" y2="560" style="stroke:#bbb;stroke-width:1" />
<line x1="180" y1="570" x2="340" y2="570" style="stroke:#bbb;stroke-width:1" />
<line x1="180" y1="580" x2="340" y2="580" style="stroke:#bbb;stroke-width:1" />
<line x1="180" y1="590" x2="340" y2="590" style="stroke:#bbb;stroke-width:1" />
<text x="190" y="595" style="text-anchor:middle;font-size:10px" >0</text>
<text x="210" y="565" style="text-anchor:middle;font-size:10px" >10</text>
<text x="230" y="555" style="text-anchor:middle;font-size:10px" >12</text>
<text x="250" y="595" style="text-anchor:middle;font-size:10px" >0</text>
<text x="270" y="555" style="text-anchor:middle;font-size:10px" >12</text>
<text x="310" y="555" style="text-anchor:middle;font-size:10px" >10</text>
<text x="310" y="595" style="text-anchor:middle;font-size:10px" >0</text>
<line x1="180" y1="550" x2="180" y2="590" style="stroke:#bbb;stroke-width:1" />
<text x="340" y="540" >G</text>
<line x1="340" y1="550" x2="500" y2="550" style="stroke:#bbb;stroke-width:1" />
<line x1="340" y1="560" x2="500" y2="560" style="stroke:#bbb;stroke-width:1" />
<line x1="340" y1="570" x2="500" y2="570" style="stroke:#bbb;stroke-width:1" />
<line x1="340" y1="580" x2="500" y2="580" style="stroke:#bbb;stroke-width:1" />
<line x1="340" y1="590" x2="500" y2="590" style="stroke:#bbb;stroke-width:1" />
<text x="350" y="555" style="text-anchor:middle;font-size:10px" >9</text>
<text x="350" y="565" style="text-anchor:middle;font-size:10px" >8</text>
<text x="390" y="595" style="text-anchor:middle;font-size:10px" >0</text>
<text x="410" y="565" style="text-anchor:middle;font-size:10px" >8</text>
<text x="430" y="555" style="text-anchor:middle;font-size:10px" >9</text>
<text x="450" y="565" style="text-anchor:middle;font-size:10px" >8</text>
<text x="470" y="595" style="text-anchor:middle;font-size:10px" >0</text>
<text x="490" y="565" style="text-anchor:middle;font-size:10px" >8</text>
<line x1="340" y1="550" x2="340" y2="590" style="stroke:#bbb;stroke-width:1" />
<text x="500" y="540" >G</text>
<line x1="500" y1="550" x2="660" y2="550" style="stroke:#bbb;stroke-width:1" />
<line x1="500" y1="560" x2="660" y2="560" style="stroke:#bbb;stroke-width:1" />
<line x1="500" y1="570" x2="660" y2="570" style="stroke:#bbb;stroke-width:1" />
<line x1="500" y1="580" x2="660" y2="580" style="stroke:#bbb;stroke-width:1" />
<line x1="500" y1="590" x2="660" y2="590" style="stroke:#bbb;stroke-width:1" />
<text x="510" y="555" style="text-anchor:middle;font-size:10px" >9</text>
<text x="530" y="565" style="text-anchor:middle;font-size:10px" >8</text>
<text x="540" y="570" style="text-anchor:middle;font-size:10px" >s</text>
<line x1="536" y1="560" x2="544" y2="560" style="stroke:#444;stroke-width:1.2" />
<text x="550" y="565" style="text-anchor:middle;font-size:10px" >10</text>
<text x="540" y="570" style="text-anchor:middle;font-size:10px" >s</text>
<line x1="536" y1="560" x2="544" y2="560" style="stroke:#444;stroke-width:1.2" />
<text x="550" y="565" style="text-anchor:middle;font-size:10px" >10</text>
<text x="550" y="595" style="text-anchor:middle;font-size:10px" >0</text>
<text x="570" y="555" style="text-anchor:middle;font-size:10px" >11</text>
<text x="590" y="565" style="text-anchor:middle;font-size:10px" >10</text>
<text x="600" y="570" style="text-anchor:middle;font-size:10px" >s</text>
<line x1="596" y1="560" x2="604" y2="560" style="stroke:#444;stroke-width:1.2" />
<text x="610" y="565" style="text-anchor:middle;font-size:10px" >15</text>
<text x="600" y="570" style="text-anchor:middle;font-size:10px" >s</text>
<line x1="596" y1="560" x2="604" y2="560" style="stroke:#444;stroke-width:1.2" />
<text x="610" y="565" style="text-anchor:middle;font-size:10px" >15</text>
<text x="610" y="555" style="text-anchor:middle;font-size:10px" >(0)</text>
<text x="630" y="565" style="text-anchor:middle;font-size:10px" >15</text>
<text x="630" y="595" style="text-anchor:middle;font-size:10px" >0</text>
<text x="650" y="575" style="text-anchor:middle;font-size:10px" >x</text>
<line x1="500" y1="550" x2="500" y2="590" style="stroke:#bbb;stroke-width:1" />
<line x1="660" y1="550" x2="660" y2="590" style="stroke:#bbb;stroke-width:1" />
</svg>
