<?xml version="1.0"?>
<!-- Generated by SVGo -->
<svg width="1000" height="1700"
     xmlns="http://www.w3.org/2000/svg"
     xmlns:xlink="http://www.w3.org/1999/xlink">
<text x="20" y="20" style="font-size:25;" >You&#39;ve Got a Friend in Me(D form)</text>
<text x="20" y="40" style="font-size:12;" >key of C, ♪ = 122</text>
<text x="20" y="60" >D intro</text>
<line x1="20" y1="70" x2="140" y2="70" style="stroke:#bbb;stroke-width:1" />
<line x1="20" y1="80" x2="140" y2="80" style="stroke:#bbb;stroke-width:1" />
<line x1="20" y1="90" x2="140" y2="90" style="stroke:#bbb;stroke-width:1" />
<line x1="20" y1="100" x2="140" y2="100" style="stroke:#bbb;stroke-width:1" />
<line x1="20" y1="110" x2="140" y2="110" style="stroke:#bbb;stroke-width:1" />
<text x="30" y="105" style="text-anchor:middle;font-size:10px" >0</text>
<text x="50" y="95" style="text-anchor:middle;font-size:10px" >x</text>
<text x="70" y="105" style="text-anchor:middle;font-size:10px" >12</text>
<text x="80" y="110" style="text-anchor:middle;font-size:10px" >s</text>
<line x1="76" y1="100" x2="84" y2="100" style="stroke:#444;stroke-width:1.2" />
<text x="90" y="105" style="text-anchor:middle;font-size:10px" >16</text>
<text x="80" y="110" style="text-anchor:middle;font-size:10px" >s</text>
<line x1="76" y1="100" x2="84" y2="100" style="stroke:#444;stroke-width:1.2" />
<text x="90" y="105" style="text-anchor:middle;font-size:10px" >16</text>
<text x="0" y="0" style="text-anchor:middle;font-size:10px" ></text>
<text x="110" y="95" style="text-anchor:middle;font-size:10px" >14</text>
<text x="130" y="85" style="text-anchor:middle;font-size:10px" >15</text>
<line x1="20" y1="70" x2="20" y2="110" style="stroke:#bbb;stroke-width:1" />
<text x="140" y="60" >F#7</text>
<line x1="140" y1="70" x2="260" y2="70" style="stroke:#bbb;stroke-width:1" />
<line x1="140" y1="80" x2="260" y2="80" style="stroke:#bbb;stroke-width:1" />
<line x1="140" y1="90" x2="260" y2="90" style="stroke:#bbb;stroke-width:1" />
<line x1="140" y1="100" x2="260" y2="100" style="stroke:#bbb;stroke-width:1" />
<line x1="140" y1="110" x2="260" y2="110" style="stroke:#bbb;stroke-width:1" />
<text x="150" y="75" style="text-anchor:middle;font-size:10px" >14</text>
<text x="150" y="85" style="text-anchor:middle;font-size:10px" >14</text>
<text x="0" y="0" style="text-anchor:middle;font-size:10px" ></text>
<text x="190" y="75" style="text-anchor:middle;font-size:10px" >16</text>
<text x="190" y="85" style="text-anchor:middle;font-size:10px" >14</text>
<text x="210" y="95" style="text-anchor:middle;font-size:10px" >15</text>
<text x="220" y="100" style="text-anchor:middle;font-size:10px" >s</text>
<line x1="216" y1="90" x2="224" y2="90" style="stroke:#444;stroke-width:1.2" />
<text x="230" y="95" style="text-anchor:middle;font-size:10px" >10</text>
<text x="220" y="100" style="text-anchor:middle;font-size:10px" >s</text>
<line x1="216" y1="90" x2="224" y2="90" style="stroke:#444;stroke-width:1.2" />
<text x="230" y="95" style="text-anchor:middle;font-size:10px" >10</text>
<text x="0" y="0" style="text-anchor:middle;font-size:10px" ></text>
<text x="250" y="75" style="text-anchor:middle;font-size:10px" >12</text>
<text x="250" y="85" style="text-anchor:middle;font-size:10px" >12</text>
<line x1="140" y1="70" x2="140" y2="110" style="stroke:#bbb;stroke-width:1" />
<text x="260" y="60" >Bm</text>
<line x1="260" y1="70" x2="380" y2="70" style="stroke:#bbb;stroke-width:1" />
<line x1="260" y1="80" x2="380" y2="80" style="stroke:#bbb;stroke-width:1" />
<line x1="260" y1="90" x2="380" y2="90" style="stroke:#bbb;stroke-width:1" />
<line x1="260" y1="100" x2="380" y2="100" style="stroke:#bbb;stroke-width:1" />
<line x1="260" y1="110" x2="380" y2="110" style="stroke:#bbb;stroke-width:1" />
<text x="270" y="95" style="text-anchor:middle;font-size:10px" >11</text>
<text x="280" y="100" style="text-anchor:middle;font-size:10px" >s</text>
<line x1="276" y1="90" x2="284" y2="90" style="stroke:#444;stroke-width:1.2" />
<text x="290" y="95" style="text-anchor:middle;font-size:10px" >7</text>
<text x="280" y="100" style="text-anchor:middle;font-size:10px" >s</text>
<line x1="276" y1="90" x2="284" y2="90" style="stroke:#444;stroke-width:1.2" />
<text x="290" y="95" style="text-anchor:middle;font-size:10px" >7</text>
<text x="0" y="0" style="text-anchor:middle;font-size:10px" ></text>
<text x="310" y="75" style="text-anchor:middle;font-size:10px" >9</text>
<text x="310" y="85" style="text-anchor:middle;font-size:10px" >7</text>
<text x="330" y="95" style="text-anchor:middle;font-size:10px" >7</text>
<text x="340" y="100" style="text-anchor:middle;font-size:10px" >s</text>
<line x1="336" y1="90" x2="344" y2="90" style="stroke:#444;stroke-width:1.2" />
<text x="350" y="95" style="text-anchor:middle;font-size:10px" >15</text>
<text x="340" y="100" style="text-anchor:middle;font-size:10px" >s</text>
<line x1="336" y1="90" x2="344" y2="90" style="stroke:#444;stroke-width:1.2" />
<text x="350" y="95" style="text-anchor:middle;font-size:10px" >15</text>
<text x="0" y="0" style="text-anchor:middle;font-size:10px" ></text>
<text x="370" y="75" style="text-anchor:middle;font-size:10px" >15</text>
<text x="370" y="85" style="text-anchor:middle;font-size:10px" >15</text>
<line x1="260" y1="70" x2="260" y2="110" style="stroke:#bbb;stroke-width:1" />
<text x="380" y="60" >A#7</text>
<line x1="380" y1="70" x2="500" y2="70" style="stroke:#bbb;stroke-width:1" />
<line x1="380" y1="80" x2="500" y2="80" style="stroke:#bbb;stroke-width:1" />
<line x1="380" y1="90" x2="500" y2="90" style="stroke:#bbb;stroke-width:1" />
<line x1="380" y1="100" x2="500" y2="100" style="stroke:#bbb;stroke-width:1" />
<line x1="380" y1="110" x2="500" y2="110" style="stroke:#bbb;stroke-width:1" />
<text x="390" y="95" style="text-anchor:middle;font-size:10px" >(15</text>
<text x="400" y="100" style="text-anchor:middle;font-size:10px" >s</text>
<line x1="396" y1="90" x2="404" y2="90" style="stroke:#444;stroke-width:1.2" />
<text x="410" y="95" style="text-anchor:middle;font-size:10px" >14)</text>
<text x="400" y="100" style="text-anchor:middle;font-size:10px" >s</text>
<line x1="396" y1="90" x2="404" y2="90" style="stroke:#444;stroke-width:1.2" />
<text x="410" y="95" style="text-anchor:middle;font-size:10px" >14)</text>
<text x="0" y="0" style="text-anchor:middle;font-size:10px" ></text>
<text x="430" y="75" style="text-anchor:middle;font-size:10px" >14</text>
<text x="430" y="85" style="text-anchor:middle;font-size:10px" >14</text>
<text x="450" y="95" style="text-anchor:middle;font-size:10px" >15</text>
<text x="460" y="100" style="text-anchor:middle;font-size:10px" >s</text>
<line x1="456" y1="90" x2="464" y2="90" style="stroke:#444;stroke-width:1.2" />
<text x="470" y="95" style="text-anchor:middle;font-size:10px" >14</text>
<text x="460" y="100" style="text-anchor:middle;font-size:10px" >s</text>
<line x1="456" y1="90" x2="464" y2="90" style="stroke:#444;stroke-width:1.2" />
<text x="470" y="95" style="text-anchor:middle;font-size:10px" >14</text>
<text x="0" y="0" style="text-anchor:middle;font-size:10px" ></text>
<text x="490" y="75" style="text-anchor:middle;font-size:10px" >12</text>
<text x="490" y="85" style="text-anchor:middle;font-size:10px" >10</text>
<line x1="380" y1="70" x2="380" y2="110" style="stroke:#bbb;stroke-width:1" />
<line x1="500" y1="70" x2="500" y2="110" style="stroke:#bbb;stroke-width:1" />
<text x="20" y="130" >D</text>
<line x1="20" y1="140" x2="140" y2="140" style="stroke:#bbb;stroke-width:1" />
<line x1="20" y1="150" x2="140" y2="150" style="stroke:#bbb;stroke-width:1" />
<line x1="20" y1="160" x2="140" y2="160" style="stroke:#bbb;stroke-width:1" />
<line x1="20" y1="170" x2="140" y2="170" style="stroke:#bbb;stroke-width:1" />
<line x1="20" y1="180" x2="140" y2="180" style="stroke:#bbb;stroke-width:1" />
<text x="30" y="165" style="text-anchor:middle;font-size:10px" >11</text>
<text x="40" y="170" style="text-anchor:middle;font-size:10px" >s</text>
<line x1="36" y1="160" x2="44" y2="160" style="stroke:#444;stroke-width:1.2" />
<text x="50" y="165" style="text-anchor:middle;font-size:10px" >7</text>
<text x="40" y="170" style="text-anchor:middle;font-size:10px" >s</text>
<line x1="36" y1="160" x2="44" y2="160" style="stroke:#444;stroke-width:1.2" />
<text x="50" y="165" style="text-anchor:middle;font-size:10px" >7</text>
<text x="0" y="0" style="text-anchor:middle;font-size:10px" ></text>
<text x="70" y="155" style="text-anchor:middle;font-size:10px" >7</text>
<text x="90" y="145" style="text-anchor:middle;font-size:10px" >7</text>
<text x="110" y="165" style="text-anchor:middle;font-size:10px" >x</text>
<text x="130" y="165" style="text-anchor:middle;font-size:10px" >7</text>
<line x1="20" y1="140" x2="20" y2="180" style="stroke:#bbb;stroke-width:1" />
<text x="140" y="130" >A</text>
<line x1="140" y1="140" x2="260" y2="140" style="stroke:#bbb;stroke-width:1" />
<line x1="140" y1="150" x2="260" y2="150" style="stroke:#bbb;stroke-width:1" />
<line x1="140" y1="160" x2="260" y2="160" style="stroke:#bbb;stroke-width:1" />
<line x1="140" y1="170" x2="260" y2="170" style="stroke:#bbb;stroke-width:1" />
<line x1="140" y1="180" x2="260" y2="180" style="stroke:#bbb;stroke-width:1" />
<text x="150" y="145" style="text-anchor:middle;font-size:10px" >5</text>
<text x="150" y="155" style="text-anchor:middle;font-size:10px" >5</text>
<text x="170" y="165" style="text-anchor:middle;font-size:10px" >x</text>
<text x="190" y="155" style="text-anchor:middle;font-size:10px" >7</text>
<text x="200" y="160" style="text-anchor:middle;font-size:10px" >s</text>
<line x1="196" y1="150" x2="204" y2="150" style="stroke:#444;stroke-width:1.2" />
<text x="210" y="155" style="text-anchor:middle;font-size:10px" ></text>
<text x="200" y="160" style="text-anchor:middle;font-size:10px" >s</text>
<line x1="196" y1="150" x2="204" y2="150" style="stroke:#444;stroke-width:1.2" />
<text x="210" y="155" style="text-anchor:middle;font-size:10px" ></text>
<text x="0" y="0" style="text-anchor:middle;font-size:10px" ></text>
<text x="230" y="165" style="text-anchor:middle;font-size:10px" >x</text>
<text x="250" y="145" style="text-anchor:middle;font-size:10px" >12</text>
<text x="250" y="155" style="text-anchor:middle;font-size:10px" >10</text>
<line x1="140" y1="140" x2="140" y2="180" style="stroke:#bbb;stroke-width:1" />
<text x="260" y="130" >D</text>
<line x1="260" y1="140" x2="380" y2="140" style="stroke:#bbb;stroke-width:1" />
<line x1="260" y1="150" x2="380" y2="150" style="stroke:#bbb;stroke-width:1" />
<line x1="260" y1="160" x2="380" y2="160" style="stroke:#bbb;stroke-width:1" />
<line x1="260" y1="170" x2="380" y2="170" style="stroke:#bbb;stroke-width:1" />
<line x1="260" y1="180" x2="380" y2="180" style="stroke:#bbb;stroke-width:1" />
<text x="270" y="165" style="text-anchor:middle;font-size:10px" >11</text>
<text x="290" y="165" style="text-anchor:middle;font-size:10px" >x</text>
<text x="310" y="155" style="text-anchor:middle;font-size:10px" >10</text>
<text x="330" y="145" style="text-anchor:middle;font-size:10px" >12</text>
<text x="350" y="165" style="text-anchor:middle;font-size:10px" >x</text>
<text x="370" y="165" style="text-anchor:middle;font-size:10px" >11</text>
<text x="380" y="170" style="text-anchor:middle;font-size:10px" >s</text>
<line x1="376" y1="160" x2="384" y2="160" style="stroke:#444;stroke-width:1.2" />
<text x="390" y="165" style="text-anchor:middle;font-size:10px" >6</text>
<text x="380" y="170" style="text-anchor:middle;font-size:10px" >s</text>
<line x1="376" y1="160" x2="384" y2="160" style="stroke:#444;stroke-width:1.2" />
<text x="390" y="165" style="text-anchor:middle;font-size:10px" >6</text>
<line x1="260" y1="140" x2="260" y2="180" style="stroke:#bbb;stroke-width:1" />
<text x="380" y="130" >Aaug</text>
<line x1="380" y1="140" x2="500" y2="140" style="stroke:#bbb;stroke-width:1" />
<line x1="380" y1="150" x2="500" y2="150" style="stroke:#bbb;stroke-width:1" />
<line x1="380" y1="160" x2="500" y2="160" style="stroke:#bbb;stroke-width:1" />
<line x1="380" y1="170" x2="500" y2="170" style="stroke:#bbb;stroke-width:1" />
<line x1="380" y1="180" x2="500" y2="180" style="stroke:#bbb;stroke-width:1" />
<text x="390" y="145" style="text-anchor:middle;font-size:10px" >7</text>
<text x="390" y="155" style="text-anchor:middle;font-size:10px" >6</text>
<text x="390" y="165" style="text-anchor:middle;font-size:10px" >6</text>
<text x="450" y="165" style="text-anchor:middle;font-size:10px" >x</text>
<line x1="380" y1="140" x2="380" y2="180" style="stroke:#bbb;stroke-width:1" />
<line x1="500" y1="140" x2="500" y2="180" style="stroke:#bbb;stroke-width:1" />
<text x="20" y="200" >D9</text>
<line x1="20" y1="210" x2="140" y2="210" style="stroke:#bbb;stroke-width:1" />
<line x1="20" y1="220" x2="140" y2="220" style="stroke:#bbb;stroke-width:1" />
<line x1="20" y1="230" x2="140" y2="230" style="stroke:#bbb;stroke-width:1" />
<line x1="20" y1="240" x2="140" y2="240" style="stroke:#bbb;stroke-width:1" />
<line x1="20" y1="250" x2="140" y2="250" style="stroke:#bbb;stroke-width:1" />
<text x="30" y="215" style="text-anchor:middle;font-size:10px" >4</text>
<text x="30" y="225" style="text-anchor:middle;font-size:10px" >0</text>
<line x1="20" y1="210" x2="20" y2="250" style="stroke:#bbb;stroke-width:1" />
<text x="140" y="200" >Aaug</text>
<line x1="140" y1="210" x2="260" y2="210" style="stroke:#bbb;stroke-width:1" />
<line x1="140" y1="220" x2="260" y2="220" style="stroke:#bbb;stroke-width:1" />
<line x1="140" y1="230" x2="260" y2="230" style="stroke:#bbb;stroke-width:1" />
<line x1="140" y1="240" x2="260" y2="240" style="stroke:#bbb;stroke-width:1" />
<line x1="140" y1="250" x2="260" y2="250" style="stroke:#bbb;stroke-width:1" />
<text x="150" y="215" style="text-anchor:middle;font-size:10px" >4</text>
<text x="150" y="225" style="text-anchor:middle;font-size:10px" >0</text>
<line x1="140" y1="210" x2="140" y2="250" style="stroke:#bbb;stroke-width:1" />
<text x="20" y="270" >D A part</text>
<line x1="20" y1="280" x2="140" y2="280" style="stroke:#bbb;stroke-width:1" />
<line x1="20" y1="290" x2="140" y2="290" style="stroke:#bbb;stroke-width:1" />
<line x1="20" y1="300" x2="140" y2="300" style="stroke:#bbb;stroke-width:1" />
<line x1="20" y1="310" x2="140" y2="310" style="stroke:#bbb;stroke-width:1" />
<line x1="20" y1="320" x2="140" y2="320" style="stroke:#bbb;stroke-width:1" />
<text x="30" y="315" style="text-anchor:middle;font-size:10px" >0</text>
<text x="50" y="305" style="text-anchor:middle;font-size:10px" >x</text>
<text x="70" y="295" style="text-anchor:middle;font-size:10px" >3</text>
<text x="80" y="300" style="text-anchor:middle;font-size:10px" >s</text>
<line x1="76" y1="290" x2="84" y2="290" style="stroke:#444;stroke-width:1.2" />
<text x="90" y="295" style="text-anchor:middle;font-size:10px" >7</text>
<text x="80" y="300" style="text-anchor:middle;font-size:10px" >s</text>
<line x1="76" y1="290" x2="84" y2="290" style="stroke:#444;stroke-width:1.2" />
<text x="90" y="295" style="text-anchor:middle;font-size:10px" >7</text>
<text x="90" y="285" style="text-anchor:middle;font-size:10px" >7</text>
<text x="110" y="305" style="text-anchor:middle;font-size:10px" >x</text>
<text x="130" y="295" style="text-anchor:middle;font-size:10px" >7</text>
<line x1="20" y1="280" x2="20" y2="320" style="stroke:#bbb;stroke-width:1" />
<text x="140" y="270" >Aaug</text>
<line x1="140" y1="280" x2="260" y2="280" style="stroke:#bbb;stroke-width:1" />
<line x1="140" y1="290" x2="260" y2="290" style="stroke:#bbb;stroke-width:1" />
<line x1="140" y1="300" x2="260" y2="300" style="stroke:#bbb;stroke-width:1" />
<line x1="140" y1="310" x2="260" y2="310" style="stroke:#bbb;stroke-width:1" />
<line x1="140" y1="320" x2="260" y2="320" style="stroke:#bbb;stroke-width:1" />
<text x="150" y="285" style="text-anchor:middle;font-size:10px" >9</text>
<text x="170" y="305" style="text-anchor:middle;font-size:10px" >x</text>
<text x="190" y="275" style="text-anchor:middle;font-size:10px" >5</text>
<text x="210" y="285" style="text-anchor:middle;font-size:10px" >7</text>
<text x="210" y="295" style="text-anchor:middle;font-size:10px" >6</text>
<text x="230" y="305" style="text-anchor:middle;font-size:10px" >x</text>
<text x="250" y="285" style="text-anchor:middle;font-size:10px" >4</text>
<text x="250" y="295" style="text-anchor:middle;font-size:10px" >3</text>
<line x1="140" y1="280" x2="140" y2="320" style="stroke:#bbb;stroke-width:1" />
<text x="260" y="270" >D</text>
<line x1="260" y1="280" x2="380" y2="280" style="stroke:#bbb;stroke-width:1" />
<line x1="260" y1="290" x2="380" y2="290" style="stroke:#bbb;stroke-width:1" />
<line x1="260" y1="300" x2="380" y2="300" style="stroke:#bbb;stroke-width:1" />
<line x1="260" y1="310" x2="380" y2="310" style="stroke:#bbb;stroke-width:1" />
<line x1="260" y1="320" x2="380" y2="320" style="stroke:#bbb;stroke-width:1" />
<text x="270" y="305" style="text-anchor:middle;font-size:10px" >x</text>
<text x="290" y="305" style="text-anchor:middle;font-size:10px" >x</text>
<text x="310" y="305" style="text-anchor:middle;font-size:10px" >2</text>
<text x="330" y="285" style="text-anchor:middle;font-size:10px" >4</text>
<text x="330" y="295" style="text-anchor:middle;font-size:10px" >3</text>
<text x="350" y="305" style="text-anchor:middle;font-size:10px" >2</text>
<text x="370" y="285" style="text-anchor:middle;font-size:10px" >4</text>
<text x="370" y="295" style="text-anchor:middle;font-size:10px" >3</text>
<line x1="260" y1="280" x2="260" y2="320" style="stroke:#bbb;stroke-width:1" />
<text x="380" y="270" >D7</text>
<line x1="380" y1="280" x2="500" y2="280" style="stroke:#bbb;stroke-width:1" />
<line x1="380" y1="290" x2="500" y2="290" style="stroke:#bbb;stroke-width:1" />
<line x1="380" y1="300" x2="500" y2="300" style="stroke:#bbb;stroke-width:1" />
<line x1="380" y1="310" x2="500" y2="310" style="stroke:#bbb;stroke-width:1" />
<line x1="380" y1="320" x2="500" y2="320" style="stroke:#bbb;stroke-width:1" />
<text x="390" y="295" style="text-anchor:middle;font-size:10px" >2</text>
<text x="400" y="300" style="text-anchor:middle;font-size:10px" >s</text>
<line x1="396" y1="290" x2="404" y2="290" style="stroke:#444;stroke-width:1.2" />
<text x="410" y="295" style="text-anchor:middle;font-size:10px" >5</text>
<text x="400" y="300" style="text-anchor:middle;font-size:10px" >s</text>
<line x1="396" y1="290" x2="404" y2="290" style="stroke:#444;stroke-width:1.2" />
<text x="410" y="295" style="text-anchor:middle;font-size:10px" >5</text>
<text x="410" y="285" style="text-anchor:middle;font-size:10px" >7</text>
<text x="410" y="295" style="text-anchor:middle;font-size:10px" >7</text>
<text x="430" y="295" style="text-anchor:middle;font-size:10px" >5</text>
<text x="450" y="285" style="text-anchor:middle;font-size:10px" >7</text>
<text x="450" y="295" style="text-anchor:middle;font-size:10px" >7</text>
<text x="470" y="295" style="text-anchor:middle;font-size:10px" >5</text>
<text x="490" y="285" style="text-anchor:middle;font-size:10px" >7</text>
<text x="490" y="295" style="text-anchor:middle;font-size:10px" >7</text>
<line x1="380" y1="280" x2="380" y2="320" style="stroke:#bbb;stroke-width:1" />
<text x="20" y="340" >G</text>
<line x1="20" y1="350" x2="140" y2="350" style="stroke:#bbb;stroke-width:1" />
<line x1="20" y1="360" x2="140" y2="360" style="stroke:#bbb;stroke-width:1" />
<line x1="20" y1="370" x2="140" y2="370" style="stroke:#bbb;stroke-width:1" />
<line x1="20" y1="380" x2="140" y2="380" style="stroke:#bbb;stroke-width:1" />
<line x1="20" y1="390" x2="140" y2="390" style="stroke:#bbb;stroke-width:1" />
<text x="30" y="375" style="text-anchor:middle;font-size:10px" >5</text>
<text x="40" y="380" style="text-anchor:middle;font-size:10px" >s</text>
<line x1="36" y1="370" x2="44" y2="370" style="stroke:#444;stroke-width:1.2" />
<text x="50" y="375" style="text-anchor:middle;font-size:10px" >12</text>
<text x="40" y="380" style="text-anchor:middle;font-size:10px" >s</text>
<line x1="36" y1="370" x2="44" y2="370" style="stroke:#444;stroke-width:1.2" />
<text x="50" y="375" style="text-anchor:middle;font-size:10px" >12</text>
<text x="0" y="0" style="text-anchor:middle;font-size:10px" ></text>
<text x="70" y="365" style="text-anchor:middle;font-size:10px" >12</text>
<text x="90" y="355" style="text-anchor:middle;font-size:10px" >12</text>
<text x="110" y="375" style="text-anchor:middle;font-size:10px" >x</text>
<text x="130" y="365" style="text-anchor:middle;font-size:10px" >12</text>
<line x1="20" y1="350" x2="20" y2="390" style="stroke:#bbb;stroke-width:1" />
<text x="140" y="340" >G#dim7</text>
<line x1="140" y1="350" x2="260" y2="350" style="stroke:#bbb;stroke-width:1" />
<line x1="140" y1="360" x2="260" y2="360" style="stroke:#bbb;stroke-width:1" />
<line x1="140" y1="370" x2="260" y2="370" style="stroke:#bbb;stroke-width:1" />
<line x1="140" y1="380" x2="260" y2="380" style="stroke:#bbb;stroke-width:1" />
<line x1="140" y1="390" x2="260" y2="390" style="stroke:#bbb;stroke-width:1" />
<text x="150" y="355" style="text-anchor:middle;font-size:10px" >14</text>
<text x="170" y="375" style="text-anchor:middle;font-size:10px" >x</text>
<text x="190" y="375" style="text-anchor:middle;font-size:10px" >13</text>
<text x="210" y="355" style="text-anchor:middle;font-size:10px" >12</text>
<text x="210" y="365" style="text-anchor:middle;font-size:10px" >12</text>
<text x="230" y="375" style="text-anchor:middle;font-size:10px" >x</text>
<text x="250" y="355" style="text-anchor:middle;font-size:10px" >7</text>
<text x="250" y="365" style="text-anchor:middle;font-size:10px" >7</text>
<line x1="140" y1="350" x2="140" y2="390" style="stroke:#bbb;stroke-width:1" />
<text x="260" y="340" >D</text>
<line x1="260" y1="350" x2="380" y2="350" style="stroke:#bbb;stroke-width:1" />
<line x1="260" y1="360" x2="380" y2="360" style="stroke:#bbb;stroke-width:1" />
<line x1="260" y1="370" x2="380" y2="370" style="stroke:#bbb;stroke-width:1" />
<line x1="260" y1="380" x2="380" y2="380" style="stroke:#bbb;stroke-width:1" />
<line x1="260" y1="390" x2="380" y2="390" style="stroke:#bbb;stroke-width:1" />
<text x="270" y="375" style="text-anchor:middle;font-size:10px" >x</text>
<text x="290" y="375" style="text-anchor:middle;font-size:10px" >x</text>
<text x="310" y="375" style="text-anchor:middle;font-size:10px" >7</text>
<text x="330" y="355" style="text-anchor:middle;font-size:10px" >7</text>
<text x="330" y="365" style="text-anchor:middle;font-size:10px" >7</text>
<text x="350" y="375" style="text-anchor:middle;font-size:10px" >7</text>
<text x="370" y="355" style="text-anchor:middle;font-size:10px" >7</text>
<text x="370" y="365" style="text-anchor:middle;font-size:10px" >7</text>
<line x1="260" y1="350" x2="260" y2="390" style="stroke:#bbb;stroke-width:1" />
<text x="380" y="340" >D7</text>
<line x1="380" y1="350" x2="500" y2="350" style="stroke:#bbb;stroke-width:1" />
<line x1="380" y1="360" x2="500" y2="360" style="stroke:#bbb;stroke-width:1" />
<line x1="380" y1="370" x2="500" y2="370" style="stroke:#bbb;stroke-width:1" />
<line x1="380" y1="380" x2="500" y2="380" style="stroke:#bbb;stroke-width:1" />
<line x1="380" y1="390" x2="500" y2="390" style="stroke:#bbb;stroke-width:1" />
<text x="390" y="375" style="text-anchor:middle;font-size:10px" >5</text>
<text x="410" y="355" style="text-anchor:middle;font-size:10px" >7</text>
<text x="410" y="365" style="text-anchor:middle;font-size:10px" >7</text>
<text x="430" y="375" style="text-anchor:middle;font-size:10px" >5</text>
<text x="450" y="355" style="text-anchor:middle;font-size:10px" >7</text>
<text x="450" y="365" style="text-anchor:middle;font-size:10px" >7</text>
<text x="470" y="375" style="text-anchor:middle;font-size:10px" >5</text>
<text x="490" y="355" style="text-anchor:middle;font-size:10px" >7</text>
<text x="490" y="365" style="text-anchor:middle;font-size:10px" >7</text>
<line x1="380" y1="350" x2="380" y2="390" style="stroke:#bbb;stroke-width:1" />
<text x="20" y="410" >G</text>
<line x1="20" y1="420" x2="140" y2="420" style="stroke:#bbb;stroke-width:1" />
<line x1="20" y1="430" x2="140" y2="430" style="stroke:#bbb;stroke-width:1" />
<line x1="20" y1="440" x2="140" y2="440" style="stroke:#bbb;stroke-width:1" />
<line x1="20" y1="450" x2="140" y2="450" style="stroke:#bbb;stroke-width:1" />
<line x1="20" y1="460" x2="140" y2="460" style="stroke:#bbb;stroke-width:1" />
<text x="30" y="445" style="text-anchor:middle;font-size:10px" >5</text>
<text x="40" y="450" style="text-anchor:middle;font-size:10px" >s</text>
<line x1="36" y1="440" x2="44" y2="440" style="stroke:#444;stroke-width:1.2" />
<text x="50" y="445" style="text-anchor:middle;font-size:10px" >7</text>
<text x="40" y="450" style="text-anchor:middle;font-size:10px" >s</text>
<line x1="36" y1="440" x2="44" y2="440" style="stroke:#444;stroke-width:1.2" />
<text x="50" y="445" style="text-anchor:middle;font-size:10px" >7</text>
<text x="50" y="445" style="text-anchor:middle;font-size:10px" >x</text>
<text x="70" y="445" style="text-anchor:middle;font-size:10px" >8</text>
<text x="90" y="425" style="text-anchor:middle;font-size:10px" >9</text>
<text x="90" y="445" style="text-anchor:middle;font-size:10px" >7</text>
<text x="110" y="445" style="text-anchor:middle;font-size:10px" >x</text>
<text x="130" y="445" style="text-anchor:middle;font-size:10px" >8</text>
<line x1="20" y1="420" x2="20" y2="460" style="stroke:#bbb;stroke-width:1" />
<text x="140" y="410" >D</text>
<line x1="140" y1="420" x2="260" y2="420" style="stroke:#bbb;stroke-width:1" />
<line x1="140" y1="430" x2="260" y2="430" style="stroke:#bbb;stroke-width:1" />
<line x1="140" y1="440" x2="260" y2="440" style="stroke:#bbb;stroke-width:1" />
<line x1="140" y1="450" x2="260" y2="450" style="stroke:#bbb;stroke-width:1" />
<line x1="140" y1="460" x2="260" y2="460" style="stroke:#bbb;stroke-width:1" />
<text x="150" y="425" style="text-anchor:middle;font-size:10px" >7</text>
<text x="170" y="445" style="text-anchor:middle;font-size:10px" >x</text>
<text x="190" y="435" style="text-anchor:middle;font-size:10px" >7</text>
<text x="210" y="445" style="text-anchor:middle;font-size:10px" >7</text>
<text x="220" y="450" style="text-anchor:middle;font-size:10px" >s</text>
<line x1="216" y1="440" x2="224" y2="440" style="stroke:#444;stroke-width:1.2" />
<text x="230" y="445" style="text-anchor:middle;font-size:10px" >9</text>
<text x="220" y="450" style="text-anchor:middle;font-size:10px" >s</text>
<line x1="216" y1="440" x2="224" y2="440" style="stroke:#444;stroke-width:1.2" />
<text x="230" y="445" style="text-anchor:middle;font-size:10px" >9</text>
<text x="230" y="445" style="text-anchor:middle;font-size:10px" >x</text>
<text x="250" y="435" style="text-anchor:middle;font-size:10px" >11</text>
<line x1="140" y1="420" x2="140" y2="460" style="stroke:#bbb;stroke-width:1" />
<text x="260" y="410" >F#7</text>
<line x1="260" y1="420" x2="380" y2="420" style="stroke:#bbb;stroke-width:1" />
<line x1="260" y1="430" x2="380" y2="430" style="stroke:#bbb;stroke-width:1" />
<line x1="260" y1="440" x2="380" y2="440" style="stroke:#bbb;stroke-width:1" />
<line x1="260" y1="450" x2="380" y2="450" style="stroke:#bbb;stroke-width:1" />
<line x1="260" y1="460" x2="380" y2="460" style="stroke:#bbb;stroke-width:1" />
<text x="270" y="425" style="text-anchor:middle;font-size:10px" >11</text>
<text x="270" y="445" style="text-anchor:middle;font-size:10px" >9</text>
<text x="290" y="445" style="text-anchor:middle;font-size:10px" >x</text>
<text x="310" y="425" style="text-anchor:middle;font-size:10px" >11</text>
<text x="310" y="445" style="text-anchor:middle;font-size:10px" >9</text>
<text x="330" y="445" style="text-anchor:middle;font-size:10px" >x</text>
<text x="350" y="445" style="text-anchor:middle;font-size:10px" >x</text>
<text x="370" y="425" style="text-anchor:middle;font-size:10px" >9</text>
<text x="370" y="435" style="text-anchor:middle;font-size:10px" >7</text>
<text x="370" y="445" style="text-anchor:middle;font-size:10px" >7</text>
<line x1="260" y1="420" x2="260" y2="460" style="stroke:#bbb;stroke-width:1" />
<text x="380" y="410" >Bm Gに移るところチョークする</text>
<line x1="380" y1="420" x2="500" y2="420" style="stroke:#bbb;stroke-width:1" />
<line x1="380" y1="430" x2="500" y2="430" style="stroke:#bbb;stroke-width:1" />
<line x1="380" y1="440" x2="500" y2="440" style="stroke:#bbb;stroke-width:1" />
<line x1="380" y1="450" x2="500" y2="450" style="stroke:#bbb;stroke-width:1" />
<line x1="380" y1="460" x2="500" y2="460" style="stroke:#bbb;stroke-width:1" />
<text x="390" y="445" style="text-anchor:middle;font-size:10px" >x</text>
<text x="410" y="445" style="text-anchor:middle;font-size:10px" >7</text>
<text x="430" y="425" style="text-anchor:middle;font-size:10px" >9</text>
<text x="430" y="435" style="text-anchor:middle;font-size:10px" >7</text>
<text x="450" y="445" style="text-anchor:middle;font-size:10px" >7</text>
<text x="460" y="450" style="text-anchor:middle;font-size:10px" >s</text>
<line x1="456" y1="440" x2="464" y2="440" style="stroke:#444;stroke-width:1.2" />
<text x="470" y="445" style="text-anchor:middle;font-size:10px" >11</text>
<text x="460" y="450" style="text-anchor:middle;font-size:10px" >s</text>
<line x1="456" y1="440" x2="464" y2="440" style="stroke:#444;stroke-width:1.2" />
<text x="470" y="445" style="text-anchor:middle;font-size:10px" >11</text>
<text x="0" y="0" style="text-anchor:middle;font-size:10px" ></text>
<text x="490" y="425" style="text-anchor:middle;font-size:10px" >12</text>
<text x="490" y="435" style="text-anchor:middle;font-size:10px" >12</text>
<line x1="380" y1="420" x2="380" y2="460" style="stroke:#bbb;stroke-width:1" />
<text x="20" y="480" >G</text>
<line x1="20" y1="490" x2="140" y2="490" style="stroke:#bbb;stroke-width:1" />
<line x1="20" y1="500" x2="140" y2="500" style="stroke:#bbb;stroke-width:1" />
<line x1="20" y1="510" x2="140" y2="510" style="stroke:#bbb;stroke-width:1" />
<line x1="20" y1="520" x2="140" y2="520" style="stroke:#bbb;stroke-width:1" />
<line x1="20" y1="530" x2="140" y2="530" style="stroke:#bbb;stroke-width:1" />
<text x="30" y="515" style="text-anchor:middle;font-size:10px" >x</text>
<text x="50" y="515" style="text-anchor:middle;font-size:10px" >x</text>
<text x="70" y="515" style="text-anchor:middle;font-size:10px" >12</text>
<text x="90" y="505" style="text-anchor:middle;font-size:10px" >12</text>
<text x="110" y="515" style="text-anchor:middle;font-size:10px" >x</text>
<text x="130" y="515" style="text-anchor:middle;font-size:10px" >12</text>
<line x1="20" y1="490" x2="20" y2="530" style="stroke:#bbb;stroke-width:1" />
<text x="140" y="480" >D</text>
<line x1="140" y1="490" x2="260" y2="490" style="stroke:#bbb;stroke-width:1" />
<line x1="140" y1="500" x2="260" y2="500" style="stroke:#bbb;stroke-width:1" />
<line x1="140" y1="510" x2="260" y2="510" style="stroke:#bbb;stroke-width:1" />
<line x1="140" y1="520" x2="260" y2="520" style="stroke:#bbb;stroke-width:1" />
<line x1="140" y1="530" x2="260" y2="530" style="stroke:#bbb;stroke-width:1" />
<text x="150" y="505" style="text-anchor:middle;font-size:10px" >10</text>
<text x="170" y="515" style="text-anchor:middle;font-size:10px" >x</text>
<text x="190" y="515" style="text-anchor:middle;font-size:10px" >11</text>
<text x="200" y="520" style="text-anchor:middle;font-size:10px" >s</text>
<line x1="196" y1="510" x2="204" y2="510" style="stroke:#444;stroke-width:1.2" />
<text x="210" y="515" style="text-anchor:middle;font-size:10px" >2</text>
<text x="200" y="520" style="text-anchor:middle;font-size:10px" >s</text>
<line x1="196" y1="510" x2="204" y2="510" style="stroke:#444;stroke-width:1.2" />
<text x="210" y="515" style="text-anchor:middle;font-size:10px" >2</text>
<text x="210" y="515" style="text-anchor:middle;font-size:10px" >x</text>
<text x="230" y="515" style="text-anchor:middle;font-size:10px" >x</text>
<text x="250" y="495" style="text-anchor:middle;font-size:10px" >4</text>
<text x="250" y="505" style="text-anchor:middle;font-size:10px" >3</text>
<line x1="140" y1="490" x2="140" y2="530" style="stroke:#bbb;stroke-width:1" />
<text x="260" y="480" >F#7</text>
<line x1="260" y1="490" x2="380" y2="490" style="stroke:#bbb;stroke-width:1" />
<line x1="260" y1="500" x2="380" y2="500" style="stroke:#bbb;stroke-width:1" />
<line x1="260" y1="510" x2="380" y2="510" style="stroke:#bbb;stroke-width:1" />
<line x1="260" y1="520" x2="380" y2="520" style="stroke:#bbb;stroke-width:1" />
<line x1="260" y1="530" x2="380" y2="530" style="stroke:#bbb;stroke-width:1" />
<text x="270" y="495" style="text-anchor:middle;font-size:10px" >4</text>
<text x="270" y="505" style="text-anchor:middle;font-size:10px" >0</text>
<line x1="260" y1="490" x2="260" y2="530" style="stroke:#bbb;stroke-width:1" />
<text x="380" y="480" >Bm</text>
<line x1="380" y1="490" x2="500" y2="490" style="stroke:#bbb;stroke-width:1" />
<line x1="380" y1="500" x2="500" y2="500" style="stroke:#bbb;stroke-width:1" />
<line x1="380" y1="510" x2="500" y2="510" style="stroke:#bbb;stroke-width:1" />
<line x1="380" y1="520" x2="500" y2="520" style="stroke:#bbb;stroke-width:1" />
<line x1="380" y1="530" x2="500" y2="530" style="stroke:#bbb;stroke-width:1" />
<text x="390" y="495" style="text-anchor:middle;font-size:10px" >4</text>
<text x="390" y="505" style="text-anchor:middle;font-size:10px" >0</text>
<line x1="380" y1="490" x2="380" y2="530" style="stroke:#bbb;stroke-width:1" />
<text x="20" y="550" >G</text>
<line x1="20" y1="560" x2="140" y2="560" style="stroke:#bbb;stroke-width:1" />
<line x1="20" y1="570" x2="140" y2="570" style="stroke:#bbb;stroke-width:1" />
<line x1="20" y1="580" x2="140" y2="580" style="stroke:#bbb;stroke-width:1" />
<line x1="20" y1="590" x2="140" y2="590" style="stroke:#bbb;stroke-width:1" />
<line x1="20" y1="600" x2="140" y2="600" style="stroke:#bbb;stroke-width:1" />
<text x="30" y="565" style="text-anchor:middle;font-size:10px" >4</text>
<text x="30" y="575" style="text-anchor:middle;font-size:10px" >0</text>
<line x1="20" y1="560" x2="20" y2="600" style="stroke:#bbb;stroke-width:1" />
<text x="140" y="550" >D</text>
<line x1="140" y1="560" x2="260" y2="560" style="stroke:#bbb;stroke-width:1" />
<line x1="140" y1="570" x2="260" y2="570" style="stroke:#bbb;stroke-width:1" />
<line x1="140" y1="580" x2="260" y2="580" style="stroke:#bbb;stroke-width:1" />
<line x1="140" y1="590" x2="260" y2="590" style="stroke:#bbb;stroke-width:1" />
<line x1="140" y1="600" x2="260" y2="600" style="stroke:#bbb;stroke-width:1" />
<text x="150" y="565" style="text-anchor:middle;font-size:10px" >4</text>
<text x="150" y="575" style="text-anchor:middle;font-size:10px" >0</text>
<line x1="140" y1="560" x2="140" y2="600" style="stroke:#bbb;stroke-width:1" />
<text x="260" y="550" >F#7</text>
<line x1="260" y1="560" x2="380" y2="560" style="stroke:#bbb;stroke-width:1" />
<line x1="260" y1="570" x2="380" y2="570" style="stroke:#bbb;stroke-width:1" />
<line x1="260" y1="580" x2="380" y2="580" style="stroke:#bbb;stroke-width:1" />
<line x1="260" y1="590" x2="380" y2="590" style="stroke:#bbb;stroke-width:1" />
<line x1="260" y1="600" x2="380" y2="600" style="stroke:#bbb;stroke-width:1" />
<text x="270" y="565" style="text-anchor:middle;font-size:10px" >4</text>
<text x="270" y="575" style="text-anchor:middle;font-size:10px" >0</text>
<line x1="260" y1="560" x2="260" y2="600" style="stroke:#bbb;stroke-width:1" />
<text x="380" y="550" >Bm Gに移るところチョークする</text>
<line x1="380" y1="560" x2="500" y2="560" style="stroke:#bbb;stroke-width:1" />
<line x1="380" y1="570" x2="500" y2="570" style="stroke:#bbb;stroke-width:1" />
<line x1="380" y1="580" x2="500" y2="580" style="stroke:#bbb;stroke-width:1" />
<line x1="380" y1="590" x2="500" y2="590" style="stroke:#bbb;stroke-width:1" />
<line x1="380" y1="600" x2="500" y2="600" style="stroke:#bbb;stroke-width:1" />
<text x="390" y="585" style="text-anchor:middle;font-size:10px" >x</text>
<text x="410" y="585" style="text-anchor:middle;font-size:10px" >7</text>
<text x="430" y="565" style="text-anchor:middle;font-size:10px" >9</text>
<text x="430" y="575" style="text-anchor:middle;font-size:10px" >7</text>
<text x="450" y="585" style="text-anchor:middle;font-size:10px" >7</text>
<text x="460" y="590" style="text-anchor:middle;font-size:10px" >s</text>
<line x1="456" y1="580" x2="464" y2="580" style="stroke:#444;stroke-width:1.2" />
<text x="470" y="585" style="text-anchor:middle;font-size:10px" >13</text>
<text x="460" y="590" style="text-anchor:middle;font-size:10px" >s</text>
<line x1="456" y1="580" x2="464" y2="580" style="stroke:#444;stroke-width:1.2" />
<text x="470" y="585" style="text-anchor:middle;font-size:10px" >13</text>
<text x="0" y="0" style="text-anchor:middle;font-size:10px" ></text>
<text x="490" y="565" style="text-anchor:middle;font-size:10px" >12</text>
<text x="490" y="575" style="text-anchor:middle;font-size:10px" >12</text>
<line x1="380" y1="560" x2="380" y2="600" style="stroke:#bbb;stroke-width:1" />
<text x="20" y="620" >E7</text>
<line x1="20" y1="630" x2="140" y2="630" style="stroke:#bbb;stroke-width:1" />
<line x1="20" y1="640" x2="140" y2="640" style="stroke:#bbb;stroke-width:1" />
<line x1="20" y1="650" x2="140" y2="650" style="stroke:#bbb;stroke-width:1" />
<line x1="20" y1="660" x2="140" y2="660" style="stroke:#bbb;stroke-width:1" />
<line x1="20" y1="670" x2="140" y2="670" style="stroke:#bbb;stroke-width:1" />
<text x="30" y="655" style="text-anchor:middle;font-size:10px" >x</text>
<text x="50" y="655" style="text-anchor:middle;font-size:10px" >x</text>
<text x="70" y="655" style="text-anchor:middle;font-size:10px" >13</text>
<text x="90" y="645" style="text-anchor:middle;font-size:10px" >12</text>
<text x="110" y="655" style="text-anchor:middle;font-size:10px" >x</text>
<text x="130" y="655" style="text-anchor:middle;font-size:10px" >13</text>
<text x="140" y="660" style="text-anchor:middle;font-size:10px" >s</text>
<line x1="136" y1="650" x2="144" y2="650" style="stroke:#444;stroke-width:1.2" />
<text x="150" y="655" style="text-anchor:middle;font-size:10px" >6</text>
<text x="140" y="660" style="text-anchor:middle;font-size:10px" >s</text>
<line x1="136" y1="650" x2="144" y2="650" style="stroke:#444;stroke-width:1.2" />
<text x="150" y="655" style="text-anchor:middle;font-size:10px" >6</text>
<line x1="20" y1="630" x2="20" y2="670" style="stroke:#bbb;stroke-width:1" />
<text x="140" y="620" >A</text>
<line x1="140" y1="630" x2="260" y2="630" style="stroke:#bbb;stroke-width:1" />
<line x1="140" y1="640" x2="260" y2="640" style="stroke:#bbb;stroke-width:1" />
<line x1="140" y1="650" x2="260" y2="650" style="stroke:#bbb;stroke-width:1" />
<line x1="140" y1="660" x2="260" y2="660" style="stroke:#bbb;stroke-width:1" />
<line x1="140" y1="670" x2="260" y2="670" style="stroke:#bbb;stroke-width:1" />
<text x="150" y="635" style="text-anchor:middle;font-size:10px" >7</text>
<text x="170" y="655" style="text-anchor:middle;font-size:10px" >x</text>
<text x="190" y="645" style="text-anchor:middle;font-size:10px" >7</text>
<text x="200" y="650" style="text-anchor:middle;font-size:10px" >s</text>
<line x1="196" y1="640" x2="204" y2="640" style="stroke:#444;stroke-width:1.2" />
<text x="210" y="645" style="text-anchor:middle;font-size:10px" >3</text>
<text x="200" y="650" style="text-anchor:middle;font-size:10px" >s</text>
<line x1="196" y1="640" x2="204" y2="640" style="stroke:#444;stroke-width:1.2" />
<text x="210" y="645" style="text-anchor:middle;font-size:10px" >3</text>
<text x="210" y="675" style="text-anchor:middle;font-size:10px" >0</text>
<text x="230" y="655" style="text-anchor:middle;font-size:10px" >x</text>
<text x="250" y="635" style="text-anchor:middle;font-size:10px" >4</text>
<text x="250" y="645" style="text-anchor:middle;font-size:10px" >3</text>
<line x1="140" y1="630" x2="140" y2="670" style="stroke:#bbb;stroke-width:1" />
<text x="260" y="620" >D</text>
<line x1="260" y1="630" x2="380" y2="630" style="stroke:#bbb;stroke-width:1" />
<line x1="260" y1="640" x2="380" y2="640" style="stroke:#bbb;stroke-width:1" />
<line x1="260" y1="650" x2="380" y2="650" style="stroke:#bbb;stroke-width:1" />
<line x1="260" y1="660" x2="380" y2="660" style="stroke:#bbb;stroke-width:1" />
<line x1="260" y1="670" x2="380" y2="670" style="stroke:#bbb;stroke-width:1" />
<text x="270" y="635" style="text-anchor:middle;font-size:10px" >4</text>
<text x="270" y="645" style="text-anchor:middle;font-size:10px" >0</text>
<line x1="260" y1="630" x2="260" y2="670" style="stroke:#bbb;stroke-width:1" />
<text x="380" y="620" >B7</text>
<line x1="380" y1="630" x2="500" y2="630" style="stroke:#bbb;stroke-width:1" />
<line x1="380" y1="640" x2="500" y2="640" style="stroke:#bbb;stroke-width:1" />
<line x1="380" y1="650" x2="500" y2="650" style="stroke:#bbb;stroke-width:1" />
<line x1="380" y1="660" x2="500" y2="660" style="stroke:#bbb;stroke-width:1" />
<line x1="380" y1="670" x2="500" y2="670" style="stroke:#bbb;stroke-width:1" />
<text x="390" y="635" style="text-anchor:middle;font-size:10px" >4</text>
<text x="390" y="645" style="text-anchor:middle;font-size:10px" >0</text>
<line x1="380" y1="630" x2="380" y2="670" style="stroke:#bbb;stroke-width:1" />
<text x="20" y="690" >E7</text>
<line x1="20" y1="700" x2="140" y2="700" style="stroke:#bbb;stroke-width:1" />
<line x1="20" y1="710" x2="140" y2="710" style="stroke:#bbb;stroke-width:1" />
<line x1="20" y1="720" x2="140" y2="720" style="stroke:#bbb;stroke-width:1" />
<line x1="20" y1="730" x2="140" y2="730" style="stroke:#bbb;stroke-width:1" />
<line x1="20" y1="740" x2="140" y2="740" style="stroke:#bbb;stroke-width:1" />
<text x="30" y="705" style="text-anchor:middle;font-size:10px" >4</text>
<text x="30" y="715" style="text-anchor:middle;font-size:10px" >0</text>
<line x1="20" y1="700" x2="20" y2="740" style="stroke:#bbb;stroke-width:1" />
<text x="140" y="690" >A</text>
<line x1="140" y1="700" x2="260" y2="700" style="stroke:#bbb;stroke-width:1" />
<line x1="140" y1="710" x2="260" y2="710" style="stroke:#bbb;stroke-width:1" />
<line x1="140" y1="720" x2="260" y2="720" style="stroke:#bbb;stroke-width:1" />
<line x1="140" y1="730" x2="260" y2="730" style="stroke:#bbb;stroke-width:1" />
<line x1="140" y1="740" x2="260" y2="740" style="stroke:#bbb;stroke-width:1" />
<text x="150" y="705" style="text-anchor:middle;font-size:10px" >4</text>
<text x="150" y="715" style="text-anchor:middle;font-size:10px" >0</text>
<line x1="140" y1="700" x2="140" y2="740" style="stroke:#bbb;stroke-width:1" />
<text x="260" y="690" >D</text>
<line x1="260" y1="700" x2="380" y2="700" style="stroke:#bbb;stroke-width:1" />
<line x1="260" y1="710" x2="380" y2="710" style="stroke:#bbb;stroke-width:1" />
<line x1="260" y1="720" x2="380" y2="720" style="stroke:#bbb;stroke-width:1" />
<line x1="260" y1="730" x2="380" y2="730" style="stroke:#bbb;stroke-width:1" />
<line x1="260" y1="740" x2="380" y2="740" style="stroke:#bbb;stroke-width:1" />
<text x="270" y="705" style="text-anchor:middle;font-size:10px" >4</text>
<text x="270" y="715" style="text-anchor:middle;font-size:10px" >0</text>
<line x1="260" y1="700" x2="260" y2="740" style="stroke:#bbb;stroke-width:1" />
<text x="380" y="690" >D イントロと同じ</text>
<line x1="380" y1="700" x2="500" y2="700" style="stroke:#bbb;stroke-width:1" />
<line x1="380" y1="710" x2="500" y2="710" style="stroke:#bbb;stroke-width:1" />
<line x1="380" y1="720" x2="500" y2="720" style="stroke:#bbb;stroke-width:1" />
<line x1="380" y1="730" x2="500" y2="730" style="stroke:#bbb;stroke-width:1" />
<line x1="380" y1="740" x2="500" y2="740" style="stroke:#bbb;stroke-width:1" />
<text x="390" y="705" style="text-anchor:middle;font-size:10px" >0</text>
<line x1="380" y1="700" x2="380" y2="740" style="stroke:#bbb;stroke-width:1" />
</svg>
